<?xml version="1.0" encoding="utf-8"?>
<!-- Generator: Adobe Illustrator 22.0.1, SVG Export Plug-In . SVG Version: 6.00 Build 0)  -->
<svg version="1.1" id="Camada_1" xmlns="http://www.w3.org/2000/svg" xmlns:xlink="http://www.w3.org/1999/xlink" x="0px" y="0px"
	 viewBox="0 0 40 40" style="enable-background:new 0 0 40 40;" xml:space="preserve">
<style type="text/css">
	.st0{fill:#7090B7;}
</style>
<g>
	<path class="st0" d="M33.6,26.8c5.6-5.6,5.6-14.8,0-20.4c-5.6-5.6-14.8-5.6-20.4,0C8.4,11.2,7.7,18.3,11,23.9c0,0,0.2,0.4-0.1,0.7
		c-1.8,1.8-7.4,7.4-7.4,7.4c-1.5,1.5-1.8,3.5-0.5,4.8L3.2,37c1.3,1.3,3.3,1,4.8-0.5l7.3-7.3c0.3-0.3,0.7-0.1,0.7-0.1
		C21.7,32.3,28.8,31.6,33.6,26.8L33.6,26.8z M15.8,24.2c-4.2-4.2-4.2-10.9,0-15.1c4.2-4.2,10.9-4.2,15.1,0c4.2,4.2,4.2,10.9,0,15.1
		C26.7,28.3,20,28.3,15.8,24.2L15.8,24.2z M15.8,24.2"/>
	<path class="st0" d="M22.7,19.5c-0.6,0-1.1-0.5-1.1-1.1l-0.9-8.2c0-0.6,0.5-1.1,1.1-1.1H25c0.6,0,1.1,0.5,1.1,1.1l-0.9,8.2
		c0,0.6-0.5,1.1-1.1,1.1H22.7z M22.7,19.5"/>
	<path class="st0" d="M25,23.3c0,0.5-0.4,0.9-0.9,0.9h-1.4c-0.5,0-0.9-0.4-0.9-0.9v-1.4c0-0.5,0.4-0.9,0.9-0.9h1.4
		c0.5,0,0.9,0.4,0.9,0.9V23.3z M25,23.3"/>
</g>
</svg>
