<?xml version="1.0" encoding="utf-8"?>
<!-- Generator: Adobe Illustrator 22.0.1, SVG Export Plug-In . SVG Version: 6.00 Build 0)  -->
<svg version="1.1" id="Camada_1" xmlns="http://www.w3.org/2000/svg" xmlns:xlink="http://www.w3.org/1999/xlink" x="0px" y="0px"
	 viewBox="0 0 100 100" style="enable-background:new 0 0 100 100;" xml:space="preserve">
<style type="text/css">
	.st0{fill:#7090B7;}
</style>
<g>
	<path class="st0" d="M50,18.6c-15.2,0-27.6,12-27.6,26.7c0,9.5,3.9,15.2,6.7,19.4c1.8,2.6,2.8,4.1,2.8,5.6c0,3.5,1.8,6.7,5.1,9.2
		c0.1,2.1,0.4,7.1,0.4,7.1v0c0.1,1.4,0.8,4.3,5.7,6c0.6,0.8,1.3,1.6,2.3,2.2c0.6,0.4,1.3,0.6,1.9,0.6h5.3c0.7,0,1.4-0.2,2-0.6
		c0.9-0.6,1.7-1.4,2.3-2.2c4.9-1.6,5.7-4.6,5.7-6c0,0,0.3-5,0.4-7.1c3.3-2.4,5.1-5.7,5.1-9.2c0-1.5,1-3.1,2.8-5.7
		c2.8-4.1,6.7-9.8,6.7-19.4C77.6,30.6,65.2,18.6,50,18.6L50,18.6z M65.1,60.8c-2,3-4,5.8-4,9.6c0,1.7-1.5,3-2.6,3.8h-17
		c-1.1-0.8-2.6-2.1-2.6-3.8c0-3.8-1.9-6.6-4-9.6c-2.6-3.8-5.5-8.1-5.5-15.4c0-10.9,9.2-19.7,20.6-19.7c11.4,0,20.6,8.8,20.6,19.7
		C70.6,52.7,67.7,57,65.1,60.8L65.1,60.8z M65.1,60.8"/>
	<path class="st0" d="M50,13.4c1,0,1.7-0.8,1.7-1.7V6.4c0-1-0.8-1.7-1.7-1.7c-1,0-1.7,0.8-1.7,1.7v5.2C48.3,12.6,49,13.4,50,13.4
		L50,13.4z M50,13.4"/>
	<path class="st0" d="M31.5,17.1c0.3,0.6,0.9,0.9,1.5,0.9c0.3,0,0.6-0.1,0.9-0.2c0.8-0.5,1.1-1.5,0.6-2.4l-2.6-4.5
		c-0.5-0.8-1.5-1.1-2.4-0.6c-0.8,0.5-1.1,1.6-0.6,2.4L31.5,17.1z M31.5,17.1"/>
	<path class="st0" d="M21.4,27.1l-4.5-2.6c-0.8-0.5-1.9-0.2-2.4,0.6c-0.5,0.8-0.2,1.9,0.6,2.4l4.5,2.6c0.3,0.2,0.6,0.2,0.9,0.2
		c0.6,0,1.2-0.3,1.5-0.9C22.5,28.7,22.2,27.6,21.4,27.1L21.4,27.1z M21.4,27.1"/>
	<path class="st0" d="M17.7,45.7c0-1-0.8-1.7-1.7-1.7h-5.2c-1,0-1.7,0.8-1.7,1.7c0,1,0.8,1.7,1.7,1.7H16
		C16.9,47.4,17.7,46.6,17.7,45.7L17.7,45.7z M17.7,45.7"/>
	<path class="st0" d="M19.7,61.2l-4.5,2.6c-0.8,0.5-1.1,1.5-0.6,2.4c0.3,0.6,0.9,0.9,1.5,0.9c0.3,0,0.6-0.1,0.9-0.2l4.5-2.6
		c0.8-0.5,1.1-1.6,0.6-2.4C21.6,61,20.5,60.7,19.7,61.2L19.7,61.2z M19.7,61.2"/>
	<path class="st0" d="M84.9,63.8l-4.5-2.6c-0.8-0.5-1.9-0.2-2.4,0.6c-0.5,0.8-0.2,1.9,0.6,2.4l4.5,2.6C83.4,67,83.7,67,84,67
		c0.6,0,1.2-0.3,1.5-0.9C86,65.3,85.7,64.3,84.9,63.8L84.9,63.8z M84.9,63.8"/>
	<path class="st0" d="M89.3,43.9H84c-1,0-1.7,0.8-1.7,1.7c0,1,0.8,1.7,1.7,1.7h5.2c1,0,1.7-0.8,1.7-1.7C91,44.7,90.2,43.9,89.3,43.9
		L89.3,43.9z M89.3,43.9"/>
	<path class="st0" d="M79.5,30.4c0.3,0,0.6-0.1,0.9-0.2l4.5-2.6c0.8-0.5,1.1-1.6,0.6-2.4c-0.5-0.8-1.5-1.1-2.4-0.6l-4.5,2.6
		c-0.8,0.5-1.1,1.6-0.6,2.4C78.3,30.1,78.9,30.4,79.5,30.4L79.5,30.4z M79.5,30.4"/>
	<path class="st0" d="M66.1,17.7c0.3,0.2,0.6,0.2,0.9,0.2c0.6,0,1.2-0.3,1.5-0.9l2.6-4.5c0.5-0.8,0.2-1.9-0.6-2.4
		c-0.8-0.5-1.9-0.2-2.4,0.6l-2.6,4.5C65,16.2,65.3,17.2,66.1,17.7L66.1,17.7z M66.1,17.7"/>
	<path class="st0" d="M47.7,56.2c0.2,1.5,1,2,2.3,2c1.4,0,2.1-0.4,2.3-2L54,43.8c0.1-0.8,0.2-1.7,0.2-2.5v-6.2
		c0-2.7-1.5-4.1-4.2-4.1c-2.7,0-4.2,1.4-4.2,4.1v6.2c0,0.8,0.1,1.6,0.2,2.5L47.7,56.2z M47.7,56.2"/>
	<path class="st0" d="M50,61.6c-2.4,0-4.4,2-4.4,4.4s2,4.4,4.4,4.4c2.4,0,4.4-2,4.4-4.4S52.4,61.6,50,61.6L50,61.6z M50,61.6"/>
</g>
</svg>
