<?xml version="1.0" encoding="utf-8"?>
<!-- Generator: Adobe Illustrator 22.0.1, SVG Export Plug-In . SVG Version: 6.00 Build 0)  -->
<svg version="1.1" id="Camada_1" xmlns="http://www.w3.org/2000/svg" xmlns:xlink="http://www.w3.org/1999/xlink" x="0px" y="0px"
	 viewBox="0 0 100 100" style="enable-background:new 0 0 100 100;" xml:space="preserve">
<style type="text/css">
	.st0{fill:#1794BC;}
</style>
<g>
	<path class="st0" d="M37.9,74.1H23.6c-2.7,0-5-2.2-5-4.9V24.7c0-2.7,2.3-4.9,5-4.9h34.7c2.7,0,5,2.1,5,4.9V62l6.4-7.6V20
		c0-3.6-2.9-6.5-6.5-6.5H18.4c-3.5,0-6.2,2.8-6.2,6.3v54.5c0,3.6,2.9,6.5,6.5,6.5h25.2l-3-2.6C39.6,77,38.6,75.6,37.9,74.1
		L37.9,74.1z"/>
	<path class="st0" d="M55.7,28.1H26.8c-1.8,0-3.2,1.4-3.2,3.2c0,1.8,1.4,3.2,3.2,3.2h28.8c1.8,0,3.2-1.4,3.2-3.2
		C58.9,29.5,57.4,28.1,55.7,28.1L55.7,28.1z"/>
	<path class="st0" d="M55.7,38.8H26.8c-1.8,0-3.2,1.4-3.2,3.2s1.4,3.2,3.2,3.2h28.8c1.8,0,3.2-1.4,3.2-3.2
		C58.9,40.2,57.4,38.8,55.7,38.8L55.7,38.8z"/>
	<path class="st0" d="M55.7,49.5H26.8c-1.8,0-3.2,1.4-3.2,3.1c0,1.8,1.4,3.1,3.2,3.1h28.8c1.8,0,3.2-1.4,3.2-3.1
		C58.9,50.8,57.4,49.5,55.7,49.5L55.7,49.5z"/>
	<path class="st0" d="M23.6,62.8c0,1.8,1.4,3.1,3.2,3.1h10.7c0.5-1.2,1.1-2.5,2.1-3.6c1-1.2,2.2-2,3.4-2.7H26.8
		C25.1,59.7,23.6,61,23.6,62.8L23.6,62.8z"/>
	<path class="st0" d="M55.7,59.7h-2.4c0.8,0.3,1.5,0.9,2.2,1.5l3.2,2.7c0.1-0.3,0.2-0.7,0.2-1.1C58.9,61.1,57.4,59.7,55.7,59.7
		L55.7,59.7z"/>
	<path class="st0" d="M87.4,51.1c-2.4-2-5.9-1.7-7.9,0.6L61,73.3l-9.2-7.9c-2.4-2-5.9-1.7-7.9,0.6c-2,2.4-1.7,5.9,0.6,7.9L58,85.5
		c1,0.9,2.3,1.4,3.7,1.4c0.1,0,0.3,0,0.4,0c1.5-0.1,2.9-0.8,3.8-1.9L88,59C90,56.6,89.7,53.1,87.4,51.1L87.4,51.1z"/>
</g>
</svg>
