<?xml version="1.0" encoding="utf-8"?>
<!-- Generator: Adobe Illustrator 22.0.1, SVG Export Plug-In . SVG Version: 6.00 Build 0)  -->
<svg version="1.1" id="Camada_1" xmlns="http://www.w3.org/2000/svg" xmlns:xlink="http://www.w3.org/1999/xlink" x="0px" y="0px"
	 viewBox="0 0 100 100" style="enable-background:new 0 0 100 100;" xml:space="preserve">
<style type="text/css">
	.st0{fill:#1794BC;}
</style>
<g>
	<path class="st0" d="M84.3,17.2H15.7c-2,0-3.7,1.6-3.7,3.7V64c0,2,1.6,3.7,3.7,3.7h25.7V76h-10c-1.9,0-3.4,1.5-3.4,3.4
		s1.5,3.4,3.4,3.4h37.3c1.9,0,3.4-1.5,3.4-3.4S70.6,76,68.7,76h-10v-8.3h25.7c2,0,3.7-1.6,3.7-3.7V20.9C88,18.9,86.4,17.2,84.3,17.2
		L84.3,17.2z M82.5,62.1h-65V22.7h65V62.1z"/>
	<path class="st0" d="M29.4,44.5L41,49.9c0.3,0.1,0.6,0.2,0.9,0.2c0.4,0,0.8-0.1,1.2-0.4c0.7-0.4,1-1.1,1-1.9v-0.1
		c0-0.9-0.5-1.7-1.3-2l-7.3-3.4l7.3-3.4c0.8-0.4,1.3-1.2,1.3-2v-0.1c0-0.8-0.4-1.5-1-1.9c-0.4-0.2-0.8-0.4-1.2-0.4
		c-0.3,0-0.7,0.1-0.9,0.2l-11.6,5.4c-0.8,0.4-1.3,1.2-1.3,2v0.2C28.1,43.3,28.6,44.1,29.4,44.5L29.4,44.5z"/>
	<path class="st0" d="M44.3,55.5c0.4,0.6,1.1,0.9,1.8,0.9h0.1c1,0,1.8-0.6,2.1-1.6L56,31.2c0.2-0.7,0.1-1.4-0.3-2
		c-0.4-0.6-1.1-0.9-1.8-0.9h-0.1c-1,0-1.8,0.6-2.1,1.6L44,53.5C43.8,54.2,43.9,54.9,44.3,55.5L44.3,55.5z"/>
	<path class="st0" d="M55.8,37c0,0.9,0.5,1.7,1.3,2l7.3,3.4l-7.3,3.4c-0.8,0.4-1.3,1.2-1.3,2v0.1c0,0.8,0.4,1.5,1,1.9
		c0.4,0.2,0.8,0.4,1.2,0.4c0.3,0,0.6-0.1,1-0.2l11.6-5.4c0.8-0.4,1.3-1.2,1.3-2v-0.2c0-0.9-0.5-1.7-1.3-2L59,34.9
		c-0.3-0.1-0.6-0.2-0.9-0.2c-0.4,0-0.9,0.1-1.2,0.4C56.2,35.4,55.8,36.1,55.8,37L55.8,37z"/>
</g>
</svg>
