<?xml version="1.0" encoding="utf-8"?>
<!-- Generator: Adobe Illustrator 22.0.1, SVG Export Plug-In . SVG Version: 6.00 Build 0)  -->
<svg version="1.1" id="Camada_1" xmlns="http://www.w3.org/2000/svg" xmlns:xlink="http://www.w3.org/1999/xlink" x="0px" y="0px"
	 viewBox="0 0 100 100" style="enable-background:new 0 0 100 100;" xml:space="preserve">
<style type="text/css">
	.st0{fill:#7090B7;}
	.st1{fill:none;}
</style>
<g>
	<path class="st0" d="M192.6,79.7c-1.4-1-1.5-2.6-1.5-2.6l-0.5-3.3H174l-0.5,3.3c0,0-0.1,1.5-1.5,2.6c-1.4,1-2.5,1.9-1.4,2
		c1.1,0.1,11,0,11.7,0c0.7,0,10.7,0.1,11.7,0C195.1,81.6,194,80.7,192.6,79.7L192.6,79.7z M192.6,79.7"/>
	<path class="st0" d="M163.6,53.2c4.4,0,5-1.1,6.4-5.5c2.7-7,14.6,1.8,7.2,4.9C169.9,55.6,159.2,53.2,163.6,53.2L163.6,53.2z
		 M163.6,53.2"/>
	<path class="st0" d="M209,6.9c-2.1-1.7-5.7-0.9-7.9,1.9l-22.7,32.3c-2.2,2.8-2.2,2.2-0.1,4c2.1,1.7,1.6,1.9,3.9-0.9l26.7-29.1
		C211.1,12.3,211.2,8.7,209,6.9L209,6.9z M203.2,10.8c0,0-0.3-0.4-1.4-1.3c1.7-2.7,4.9-2.2,4.9-2.2C203.6,9.1,203.2,10.8,203.2,10.8
		L203.2,10.8z M203.2,10.8"/>
	<path class="st0" d="M219.1,17.8h-10l-4.4,4.8h12.8V61h-70.4V22.6h41l3.4-4.8h-45.9c-1.8,0-3.2,1.4-3.2,3.2v46.4
		c0,1.8,1.4,3.2,3.2,3.2h73.6c1.8,0,3.2-1.4,3.2-3.2V21C222.3,19.3,220.9,17.8,219.1,17.8L219.1,17.8z M219.1,17.8"/>
	<rect x="142.3" y="6" class="st1" width="79.9" height="76"/>
</g>
<g>
	<path class="st0" d="M40.1,40.1l-10.7,3c-0.1,0-0.2,0.1-0.3,0.2l-7.6,9.1c-0.1,0.1-0.1,0.3-0.1,0.4c0,0.1,0,0.1,0,0.2
		c0.1,0.2,0.2,0.4,0.4,0.4l10.8,3.1c-0.1,2.3,0.4,4.3,1.6,5.9l-3.4,4.1c-0.2,0.3-0.2,0.6,0.1,0.9l3.2,3.1c0.1,0.1,0.3,0.2,0.5,0.2
		c0.2,0,0.3-0.1,0.5-0.2l3.8-4.1c1,0.4,3.3,1,7,0.3l3.9,10.5c0.1,0.2,0.2,0.4,0.5,0.4c0.2,0.1,0.4,0,0.6-0.2l8.6-8.2
		c0.1-0.1,0.2-0.2,0.2-0.4l1.9-10.8c2.3-2,4.7-4.4,7-7c13.4-15.1,15.4-26.9,15.4-32.6c0-1.9-0.2-2.9-0.2-3c-0.1-0.3-0.3-0.4-0.5-0.5
		c-0.7-0.1-16.6-2.6-37.3,18.2C45.7,33.4,43,36.2,40.1,40.1L40.1,40.1z M51.7,41.1c0-3.6,2.9-6.5,6.5-6.5c3.6,0,6.5,2.9,6.5,6.5
		c0,3.6-2.9,6.5-6.5,6.5C54.6,47.6,51.7,44.7,51.7,41.1L51.7,41.1z M51.7,41.1"/>
	<path class="st0" d="M28.3,65.6c0.1-0.1,0.2-0.3,0.1-0.5c-0.1-0.2-0.2-0.3-0.4-0.4l-4.4-1.5c-0.2-0.1-0.4,0-0.6,0.1l-6.7,7
		c-0.1,0.1-0.2,0.2-0.2,0.4v5.9c0,0.2,0.1,0.4,0.4,0.5c0.2,0.1,0.5,0,0.6-0.1L28.3,65.6z M28.3,65.6"/>
	<path class="st0" d="M31.9,73.5c0.1-0.1,0.4-0.3,0.4-0.4v0c0-0.2-0.3-0.3-0.4-0.4l-3.1-2.6c-0.2-0.2-0.6-0.2-0.8,0L16.4,81.5
		c-0.1,0.1-0.2,0.3-0.2,0.4v2.5c0,0.3,0.3,0.6,0.6,0.6h2.7c0.1,0,0.4-0.1,0.5-0.2L31.9,73.5z M31.9,73.5"/>
	<path class="st0" d="M30.5,84.8l8-8.2c0.2-0.2,0.2-0.5,0.1-0.7l-2.1-3.4c-0.1-0.2-0.3-0.2-0.4-0.3c-0.2,0-0.3,0-0.5,0.2L24.1,84
		c-0.1,0.1-0.2,0.3-0.2,0.4c0,0.1,0,0.2,0,0.2c0.1,0.2,0.3,0.3,0.5,0.3h5.6C30.3,84.9,30.4,84.9,30.5,84.8L30.5,84.8z M30.5,84.8"/>
</g>
</svg>
