<?xml version="1.0" encoding="utf-8"?>
<!-- Generator: Adobe Illustrator 22.0.1, SVG Export Plug-In . SVG Version: 6.00 Build 0)  -->
<svg version="1.1" id="Camada_1" xmlns="http://www.w3.org/2000/svg" xmlns:xlink="http://www.w3.org/1999/xlink" x="0px" y="0px"
	 viewBox="0 0 100 100" style="enable-background:new 0 0 100 100;" xml:space="preserve">
<style type="text/css">
	.st0{fill:#7090B7;}
	.st1{fill:none;}
</style>
<g>
	<path class="st0" d="M192.6,79.7c-1.4-1-1.5-2.6-1.5-2.6l-0.5-3.3H174l-0.5,3.3c0,0-0.1,1.5-1.5,2.6c-1.4,1-2.5,1.9-1.4,2
		c1.1,0.1,11,0,11.7,0c0.7,0,10.7,0.1,11.7,0C195.1,81.6,194,80.7,192.6,79.7L192.6,79.7z M192.6,79.7"/>
	<path class="st0" d="M163.6,53.2c4.4,0,5-1.1,6.4-5.5c2.7-7,14.6,1.8,7.2,4.9C169.9,55.6,159.2,53.2,163.6,53.2L163.6,53.2z
		 M163.6,53.2"/>
	<path class="st0" d="M209,6.9c-2.1-1.7-5.7-0.9-7.9,1.9l-22.7,32.3c-2.2,2.8-2.2,2.2-0.1,4c2.1,1.7,1.6,1.9,3.9-0.9l26.7-29.1
		C211.1,12.3,211.2,8.7,209,6.9L209,6.9z M203.2,10.8c0,0-0.3-0.4-1.4-1.3c1.7-2.7,4.9-2.2,4.9-2.2C203.6,9.1,203.2,10.8,203.2,10.8
		L203.2,10.8z M203.2,10.8"/>
	<path class="st0" d="M219.1,17.8h-10l-4.4,4.8h12.8V61h-70.4V22.6h41l3.4-4.8h-45.9c-1.8,0-3.2,1.4-3.2,3.2v46.4
		c0,1.8,1.4,3.2,3.2,3.2h73.6c1.8,0,3.2-1.4,3.2-3.2V21C222.3,19.3,220.9,17.8,219.1,17.8L219.1,17.8z M219.1,17.8"/>
	<rect x="142.3" y="6" class="st1" width="79.9" height="76"/>
</g>
<g>
	<path class="st0" d="M253.9,53.4l-10.7,3c-0.1,0-0.2,0.1-0.3,0.2l-7.6,9.1c-0.1,0.1-0.1,0.3-0.1,0.4c0,0.1,0,0.1,0,0.2
		c0.1,0.2,0.2,0.4,0.4,0.4l10.8,3.1c-0.1,2.3,0.4,4.3,1.6,5.9l-3.4,4.1c-0.2,0.3-0.2,0.6,0.1,0.9l3.2,3.1c0.1,0.1,0.3,0.2,0.5,0.2
		c0.2,0,0.3-0.1,0.5-0.2l3.8-4.1c1,0.4,3.3,1,7,0.3l3.9,10.5c0.1,0.2,0.2,0.4,0.5,0.4c0.2,0.1,0.4,0,0.6-0.2l8.6-8.2
		c0.1-0.1,0.2-0.2,0.2-0.4l1.9-10.8c2.3-2,4.7-4.4,7-7c13.4-15.1,15.4-26.9,15.4-32.6c0-1.9-0.2-2.9-0.2-3c-0.1-0.3-0.3-0.4-0.5-0.5
		c-0.7-0.1-16.6-2.6-37.3,18.2C259.5,46.8,256.8,49.5,253.9,53.4L253.9,53.4z M265.5,54.4c0-3.6,2.9-6.5,6.5-6.5
		c3.6,0,6.5,2.9,6.5,6.5c0,3.6-2.9,6.5-6.5,6.5C268.4,60.9,265.5,58,265.5,54.4L265.5,54.4z M265.5,54.4"/>
	<path class="st0" d="M242.1,79c0.1-0.1,0.2-0.3,0.1-0.5c-0.1-0.2-0.2-0.3-0.4-0.4l-4.4-1.5c-0.2-0.1-0.4,0-0.6,0.1l-6.7,7
		c-0.1,0.1-0.2,0.2-0.2,0.4v5.9c0,0.2,0.1,0.4,0.4,0.5c0.2,0.1,0.5,0,0.6-0.1L242.1,79z M242.1,79"/>
	<path class="st0" d="M245.7,86.9c0.1-0.1,0.4-0.3,0.4-0.4v0c0-0.2-0.3-0.3-0.4-0.4l-3.1-2.6c-0.2-0.2-0.6-0.2-0.8,0l-11.6,11.4
		c-0.1,0.1-0.2,0.3-0.2,0.4v2.5c0,0.3,0.3,0.6,0.6,0.6h2.7c0.1,0,0.4-0.1,0.5-0.2L245.7,86.9z M245.7,86.9"/>
	<path class="st0" d="M244.3,98.1l8-8.2c0.2-0.2,0.2-0.5,0.1-0.7l-2.1-3.4c-0.1-0.2-0.3-0.2-0.4-0.3c-0.2,0-0.3,0-0.5,0.2
		l-11.5,11.6c-0.1,0.1-0.2,0.3-0.2,0.4c0,0.1,0,0.2,0,0.2c0.1,0.2,0.3,0.3,0.5,0.3h5.6C244.1,98.3,244.2,98.2,244.3,98.1L244.3,98.1
		z M244.3,98.1"/>
</g>
<g id="_x39_nY0pi.tif">
	<g>
		<path class="st0" d="M90.7,55.3c-0.2,0.9-0.4,1.8-0.6,2.7c-2.3,8.2-7.7,13.4-16,15.1c-7.1,1.4-13.2-0.9-18.3-6.1
			c1.4-1.8,2.7-3.6,4.1-5.5c0.6,0.6,1.2,1.2,1.9,1.7c3.8,3.3,8.1,4.3,12.9,2.7c5-1.7,8.1-5.2,9-10.3c1.3-7-2.6-14.1-10.1-15.7
			c-5.3-1.1-9.8,0.5-13.3,4.6c-2.1,2.5-3.9,5.2-5.7,7.9c-2.6,3.9-5,8-7.8,11.9c-2.5,3.5-5.8,6.3-9.9,7.9c-4.4,1.7-9,1.8-13.4,0.4
			c-5.7-1.8-9.9-5.5-12.3-11C9.4,57.8,9,53.9,9.6,49.9c1.1-6.4,4.4-11.2,10-14.4c2.7-1.6,5.6-2.5,8.7-2.6c1.8-0.1,3.7-0.1,5.6-0.1
			c0.3,0,0.6,0,1,0c-2.6-2.6-5.1-5.1-7.5-7.6c1.6-1.7,3.2-3.2,4.7-4.7c5.2,5.2,10.5,10.5,15.8,15.8C42.6,41.4,37.3,46.7,32.1,52
			c-1.5-1.5-3.1-3.1-4.8-4.8c2.5-2.5,5-5,7.5-7.5c-2,0-3.9-0.1-5.9,0c-3.7,0.1-6.8,1.7-9.3,4.4c-2.8,3.1-3.8,6.8-3.3,10.9
			c0.6,5.7,4.7,10.1,10.2,11.3c5.3,1.1,9.8-0.4,13.3-4.5c2.1-2.5,3.9-5.2,5.8-8c2.7-3.9,5.1-8.1,7.8-11.9c2.5-3.5,5.7-6.3,9.9-7.9
			c4-1.6,8.2-1.7,12.3-0.7c8.1,2.1,12.9,7.4,14.8,15.5c0.2,0.7,0.2,1.3,0.4,2C90.7,52.4,90.7,53.8,90.7,55.3z"/>
	</g>
</g>
</svg>
