<?xml version="1.0" encoding="utf-8"?>
<!-- Generator: Adobe Illustrator 22.0.1, SVG Export Plug-In . SVG Version: 6.00 Build 0)  -->
<svg version="1.1" id="Layer_1" xmlns="http://www.w3.org/2000/svg" xmlns:xlink="http://www.w3.org/1999/xlink" x="0px" y="0px"
	 viewBox="0 0 130 50" style="enable-background:new 0 0 130 50;" xml:space="preserve">
<style type="text/css">
	.st0{fill:#5DAAEF;}
	.st1{fill:#7FBDF2;}
	.st2{fill:#A0CDF5;}
	.st3{fill:#BADBF8;}
</style>
<g id="VcPxRQ.tif">
	<g>
		<path class="st0" d="M119.3,29.3c-0.1,0.4-0.1,0.7-0.2,1.1c-0.2,1.5-0.6,2.9-1.1,4.3c-0.1,0.2-0.2,0.1-0.3,0.1
			c-1.6-0.7-3.1-1.5-4.7-2.2c-0.5-0.2-0.5-0.2-0.3-0.7c0.4-1.2,0.7-2.4,0.6-3.6c-0.1-4.2-3.1-7.4-6.8-8.1c-2.8-0.5-5.2,0.2-7.3,2
			c-0.1,0.1-0.2,0.1-0.3,0c-1.2-1.4-2.5-2.7-3.7-4.1c-0.1-0.1-0.2-0.2,0-0.3c1.8-1.5,3.8-2.6,6.1-3.2c4.8-1.1,9.2-0.1,13.1,3
			c2.4,2,3.9,4.5,4.7,7.5c0.2,0.7,0.3,1.3,0.3,2c0,0,0,0.1,0.1,0.1c0,0,0,0,0,0.1c-0.1,0.1,0,0.2,0,0.4c0,0.4,0,0.7,0,1.1
			c0,0.1,0,0.3,0,0.4C119.3,29.2,119.3,29.2,119.3,29.3z"/>
		<path class="st0" d="M41.5,7c0.1,0.1,0.2,0.1,0.3,0.1c1.8,0.4,3.2,2,3.1,4.1c-0.1,1.7-1.5,3.3-3.4,3.6c-2.4,0.4-4.6-1.5-4.5-4
			c0-1.8,1.4-3.4,3.3-3.8c0.1,0,0.1,0,0.1-0.1C40.8,7,41.2,7,41.5,7z"/>
		<path class="st1" d="M119.3,28.7c0-0.4,0-0.8,0-1.2c0,0,0,0,0.1,0C119.3,27.9,119.3,28.3,119.3,28.7
			C119.3,28.7,119.3,28.7,119.3,28.7z"/>
		<path class="st2" d="M119.3,28.7C119.3,28.7,119.3,28.7,119.3,28.7c0.1,0.1,0.1,0.3,0.1,0.4C119.2,29,119.3,28.8,119.3,28.7z"/>
		<path class="st3" d="M119.3,27.5C119.3,27.5,119.3,27.5,119.3,27.5c0-0.1-0.1-0.2,0-0.3C119.3,27.3,119.3,27.4,119.3,27.5z"/>
		<path d="M24.8,14.1c2.1,0,4,0.4,5.9,0.9c0.2,0,0.2,0.1,0.1,0.3c-0.7,1.7-1.5,3.4-2.2,5.1c-0.1,0.2-0.1,0.2-0.3,0.1
			c-1.9-0.7-3.9-0.9-5.8-0.1c-3.3,1.3-5.2,3.7-5.7,7.1c-0.5,3.1,0.8,5.7,3.1,7.7c1.6,1.4,3.4,2,5.5,2c2,0,3.8-0.8,5.4-2.1
			c0.2-0.1,0.3-0.4,0.5-0.4c0.2,0,0.3,0.3,0.5,0.4c1.2,1.2,2.3,2.4,3.5,3.6c0.1,0.1,0.1,0.2,0,0.4c-2.4,2.1-5.1,3.4-8.3,3.7
			c-4,0.5-7.6-0.5-10.7-3c-2.4-1.9-3.9-4.4-4.8-7.2c-0.6-1.8-0.9-3.6-0.6-5.5c0.3-2.9,1.4-5.5,3.2-7.8c2.1-2.6,4.8-4.3,8.1-4.9
			C23,14.2,23.9,14.1,24.8,14.1z"/>
		<path d="M79,22.1c0-4.8,0-9.5,0-14.3c0-0.3,0.1-0.3,0.3-0.3c1.6,0,3.3,0,4.9,0c0.2,0,0.2,0.1,0.2,0.3c0,5.7,0,11.3,0.1,17
			c0,3.5,0,7.1,0,10.6c0,0.2,0.1,0.3,0.2,0.3c1.4,0.6,2.9,1.3,4.3,1.9c0.2,0.1,0.2,0.1,0.1,0.3c-0.7,1.7-1.3,3.3-2,5
			c-0.1,0.2-0.1,0.2-0.3,0.1c-1.1-0.4-2.2-0.8-3.3-1.3c-1-0.4-2-0.9-2.8-1.7c-1.1-1-1.7-2.3-1.7-3.7c0-1.6,0-3.3,0-4.9
			C79,28.2,79,25.1,79,22.1C79,22.1,79,22.1,79,22.1z"/>
		<path d="M90.3,28.6c0-2.3,0.5-4.3,1.3-6.2c0.1-0.2,0.2-0.2,0.3-0.1c1.7,0.8,3.3,1.7,5,2.5c0.2,0.1,0.2,0.2,0.1,0.4
			c-0.9,1.9-1.1,3.8-0.5,5.8c0.6,2.2,2.1,3.8,4,4.9c1.8,1,3.7,1.5,5.7,1.3c1.6-0.2,3.1-0.8,4.2-2c0.2-0.2,0.3-0.2,0.4,0
			c1.2,1.3,2.4,2.6,3.6,4c0.1,0.1,0.2,0.2,0,0.3c-2.1,1.6-4.4,2.9-7,3.4c-4.8,0.9-9-0.3-12.5-3.7c-2.4-2.2-3.8-5-4.4-8.2
			C90.4,30,90.3,29.2,90.3,28.6z"/>
		<path d="M43.7,32.9c0,3.1,0,6.1,0,9.2c0,0.3-0.1,0.4-0.4,0.4c-1.6,0-3.3,0-4.9,0c-0.2,0-0.3,0-0.3-0.2c0-5.9-0.1-11.8-0.1-17.6
			c0-0.2-0.1-0.3-0.3-0.4c-1.4-0.6-2.9-1.3-4.3-1.9c-0.2-0.1-0.2-0.2-0.1-0.3c0.7-1.6,1.4-3.3,2.2-4.9c0.1-0.2,0.1-0.2,0.4-0.2
			c1.3,0.5,2.6,0.9,3.9,1.5c1,0.5,1.9,1,2.6,1.9c0.9,1,1.4,2.3,1.4,3.7C43.8,26.9,43.8,29.9,43.7,32.9
			C43.8,32.9,43.8,32.9,43.7,32.9z"/>
		<path d="M62.4,43c-2,0-3.9-0.5-5.8-1.3c-0.7-0.3-1.4-0.6-2.1-0.9c-0.2-0.1-0.2-0.1-0.1-0.3c1-1.5,1.9-3,2.9-4.6
			c0.1-0.2,0.2-0.2,0.4-0.1c1,0.5,2.1,0.9,3.3,1.1c2.3,0.4,4.4-0.2,6.2-1.6c0.2-0.2,0.5-0.4,0.7-0.6c0.1-0.1,0.2-0.1,0.3,0
			c1.3,1.4,2.7,2.7,4.1,4.1c0.1,0.1,0.1,0.1,0,0.2c-2.1,1.6-4.4,3.1-7.1,3.7C64.2,42.9,63.3,43,62.4,43z"/>
		<path d="M76.2,24.9c-0.1-0.3-0.2-0.6-0.3-0.8C73.8,17.9,68.4,14,62,14c-0.7,0-1.4,0-2.1,0.1c-0.5,0.1-0.9,0.2-1.4,0.3
			C52,15.9,48,21.5,47.6,27.3c-0.2,3.2,0.6,6.1,2.2,8.8c0.1,0.2,0.2,0.3,0.5,0.2c6.8-2.9,13.7-5.8,20.5-8.7c1.8-0.7,3.5-1.5,5.3-2.2
			C76.2,25.2,76.3,25.1,76.2,24.9z M53.4,29.5c0-0.5,0-1.1,0.1-1.6c0.2-1.8,0.8-3.5,1.9-4.9c1.9-2.4,4.4-3.4,7.4-3.1
			c2.2,0.2,4,1.3,5.4,2.9c0,0.1,0.1,0.1,0.2,0.2C63.4,25.2,58.4,27.3,53.4,29.5z"/>
	</g>
</g>
</svg>
