<?xml version="1.0" encoding="utf-8"?>
<!-- Generator: Adobe Illustrator 22.0.1, SVG Export Plug-In . SVG Version: 6.00 Build 0)  -->
<svg version="1.1" id="Layer_1" xmlns="http://www.w3.org/2000/svg" xmlns:xlink="http://www.w3.org/1999/xlink" x="0px" y="0px"
	 viewBox="0 0 130 50" style="enable-background:new 0 0 130 50;" xml:space="preserve">
<style type="text/css">
	.st0{fill:#5DAAEF;}
	.st1{fill:#7FBDF2;}
	.st2{fill:#A0CDF5;}
	.st3{fill:#BADBF8;}
</style>
<g id="VcPxRQ.tif">
	<g>
		<path class="st0" d="M109.8,29.1c-0.1,0.3-0.1,0.6-0.2,0.9c-0.2,1.2-0.5,2.4-0.9,3.5c-0.1,0.2-0.2,0.1-0.2,0.1
			c-1.3-0.6-2.6-1.2-3.9-1.8c-0.4-0.2-0.4-0.2-0.2-0.6c0.3-1,0.6-2,0.5-3c-0.1-3.5-2.6-6.1-5.6-6.7c-2.3-0.4-4.3,0.2-6,1.7
			c-0.1,0.1-0.2,0.1-0.2,0c-1-1.2-2.1-2.2-3.1-3.4c-0.1-0.1-0.2-0.2,0-0.2c1.5-1.2,3.1-2.1,5-2.6c4-0.9,7.6-0.1,10.8,2.5
			c2,1.7,3.2,3.7,3.9,6.2c0.2,0.6,0.2,1.1,0.2,1.7c0,0,0,0.1,0.1,0.1c0,0,0,0,0,0.1c-0.1,0.1,0,0.2,0,0.3c0,0.3,0,0.6,0,0.9
			c0,0.1,0,0.2,0,0.3C109.8,29.1,109.8,29.1,109.8,29.1z"/>
		<path class="st0" d="M45.6,10.7c0.1,0.1,0.2,0.1,0.2,0.1c1.5,0.3,2.6,1.7,2.6,3.4c-0.1,1.4-1.2,2.7-2.8,3c-2,0.3-3.8-1.2-3.7-3.3
			c0-1.5,1.2-2.8,2.7-3.1c0.1,0,0.1,0,0.1-0.1C45.1,10.7,45.4,10.7,45.6,10.7z"/>
		<path class="st1" d="M109.8,28.7c0-0.3,0-0.7,0-1c0,0,0,0,0.1,0C109.8,28,109.8,28.3,109.8,28.7L109.8,28.7z"/>
		<path class="st2" d="M109.8,28.7L109.8,28.7c0.1,0.1,0.1,0.2,0.1,0.3C109.7,28.9,109.8,28.7,109.8,28.7z"/>
		<path class="st3" d="M109.8,27.7L109.8,27.7c0-0.1-0.1-0.2,0-0.2C109.8,27.5,109.8,27.6,109.8,27.7z"/>
		<path d="M31.9,16.6c1.7,0,3.3,0.3,4.9,0.7c0.2,0,0.2,0.1,0.1,0.2c-0.6,1.4-1.2,2.8-1.8,4.2c-0.1,0.2-0.1,0.2-0.2,0.1
			c-1.6-0.6-3.2-0.7-4.8-0.1c-2.7,1.1-4.3,3.1-4.7,5.9c-0.4,2.6,0.7,4.7,2.6,6.4c1.3,1.2,2.8,1.7,4.5,1.7c1.7,0,3.1-0.7,4.5-1.7
			c0.2-0.1,0.2-0.3,0.4-0.3c0.2,0,0.2,0.2,0.4,0.3c1,1,1.9,2,2.9,3c0.1,0.1,0.1,0.2,0,0.3c-2,1.7-4.2,2.8-6.8,3.1
			c-3.3,0.4-6.3-0.4-8.8-2.5c-2-1.6-3.2-3.6-4-5.9c-0.5-1.5-0.7-3-0.5-4.5c0.2-2.4,1.2-4.5,2.6-6.4c1.7-2.1,4-3.5,6.7-4
			C30.4,16.7,31.1,16.6,31.9,16.6z"/>
		<path d="M76.6,23.2c0-4,0-7.8,0-11.8c0-0.2,0.1-0.2,0.2-0.2c1.3,0,2.7,0,4,0c0.2,0,0.2,0.1,0.2,0.2c0,4.7,0,9.3,0.1,14
			c0,2.9,0,5.9,0,8.7c0,0.2,0.1,0.2,0.2,0.2c1.2,0.5,2.4,1.1,3.5,1.6c0.2,0.1,0.2,0.1,0.1,0.2c-0.6,1.4-1.1,2.7-1.7,4.1
			c-0.1,0.2-0.1,0.2-0.2,0.1c-0.9-0.3-1.8-0.7-2.7-1.1C79.5,39,78.6,38.6,78,38c-0.9-0.8-1.4-1.9-1.4-3.1c0-1.3,0-2.7,0-4
			C76.6,28.2,76.6,25.7,76.6,23.2L76.6,23.2z"/>
		<path d="M85.9,28.6c0-1.9,0.4-3.5,1.1-5.1c0.1-0.2,0.2-0.2,0.2-0.1c1.4,0.7,2.7,1.4,4.1,2.1c0.2,0.1,0.2,0.2,0.1,0.3
			c-0.7,1.6-0.9,3.1-0.4,4.8c0.5,1.8,1.7,3.1,3.3,4c1.5,0.8,3.1,1.2,4.7,1.1c1.3-0.2,2.6-0.7,3.5-1.7c0.2-0.2,0.2-0.2,0.3,0
			c1,1.1,2,2.1,3,3.3c0.1,0.1,0.2,0.2,0,0.2c-1.7,1.3-3.6,2.4-5.8,2.8c-4,0.7-7.4-0.2-10.3-3.1c-2-1.8-3.1-4.1-3.6-6.8
			C86,29.7,85.9,29.1,85.9,28.6z"/>
		<path d="M47.5,32.1c0,2.6,0,5,0,7.6c0,0.2-0.1,0.3-0.3,0.3c-1.3,0-2.7,0-4,0c-0.2,0-0.2,0-0.2-0.2c0-4.9-0.1-9.7-0.1-14.5
			c0-0.2-0.1-0.2-0.2-0.3c-1.2-0.5-2.4-1.1-3.5-1.6c-0.2-0.1-0.2-0.2-0.1-0.2c0.6-1.3,1.2-2.7,1.8-4C40.8,19,40.8,19,41,19
			c1.1,0.4,2.1,0.7,3.2,1.2c0.8,0.4,1.6,0.8,2.1,1.6c0.7,0.8,1.2,1.9,1.2,3.1C47.5,27.2,47.5,29.6,47.5,32.1
			C47.5,32.1,47.5,32.1,47.5,32.1z"/>
		<path d="M62.9,40.4c-1.7,0-3.2-0.4-4.8-1.1c-0.6-0.2-1.2-0.5-1.7-0.7c-0.2-0.1-0.2-0.1-0.1-0.2c0.8-1.2,1.6-2.5,2.4-3.8
			c0.1-0.2,0.2-0.2,0.3-0.1c0.8,0.4,1.7,0.7,2.7,0.9c1.9,0.3,3.6-0.2,5.1-1.3c0.2-0.2,0.4-0.3,0.6-0.5c0.1-0.1,0.2-0.1,0.2,0
			c1.1,1.2,2.2,2.2,3.4,3.4c0.1,0.1,0.1,0.1,0,0.2c-1.7,1.3-3.6,2.6-5.9,3.1C64.4,40.4,63.6,40.4,62.9,40.4z"/>
		<path d="M74.3,25.5c-0.1-0.2-0.2-0.5-0.2-0.7c-1.7-5.1-6.2-8.3-11.5-8.3c-0.6,0-1.2,0-1.7,0.1c-0.4,0.1-0.7,0.2-1.2,0.2
			c-5.4,1.2-8.7,5.9-9,10.6c-0.2,2.6,0.5,5,1.8,7.3c0.1,0.2,0.2,0.2,0.4,0.2c5.6-2.4,11.3-4.8,16.9-7.2c1.5-0.6,2.9-1.2,4.4-1.8
			C74.3,25.8,74.3,25.7,74.3,25.5z M55.5,29.3c0-0.4,0-0.9,0.1-1.3c0.2-1.5,0.7-2.9,1.6-4c1.6-2,3.6-2.8,6.1-2.6
			c1.8,0.2,3.3,1.1,4.5,2.4c0,0.1,0.1,0.1,0.2,0.2C63.7,25.8,59.6,27.5,55.5,29.3z"/>
	</g>
</g>
<g>
</g>
</svg>
