<?xml version="1.0" encoding="utf-8"?>
<!-- Generator: Adobe Illustrator 22.0.1, SVG Export Plug-In . SVG Version: 6.00 Build 0)  -->
<svg version="1.1" id="Layer_1" xmlns="http://www.w3.org/2000/svg" xmlns:xlink="http://www.w3.org/1999/xlink" x="0px" y="0px"
	 viewBox="0 0 130 50" style="enable-background:new 0 0 130 50;" xml:space="preserve">
<style type="text/css">
	.st0{fill:#C33019;}
</style>
<g>
	<path class="st0" d="M75,24.4L75,24.4L75,24.4L75,24.4z"/>
	<path class="st0" d="M80.6,26.1c0-0.1,0-0.2,0-0.2C80.6,25.9,80.6,26,80.6,26.1z"/>
	<path class="st0" d="M112,26.7L112,26.7C112,26.7,112,26.6,112,26.7C112,26.6,112,26.7,112,26.7C111.9,26.7,111.9,26.7,112,26.7z"
		/>
	<path class="st0" d="M112,30.5C111.9,30.5,111.9,30.5,112,30.5L112,30.5L112,30.5L112,30.5L112,30.5z"/>
	<path class="st0" d="M101.1,26.6c-0.2,0-0.2,0.1-0.2,0.2c0,1.1,0,2.2,0,3.3c0,0.2,0.1,0.3,0.3,0.3c3.6,0,7.2,0,10.8,0
		c0,0-0.1,0-0.1-0.1c-0.1,0-0.2,0-0.2,0c-3.5,0-7,0-10.5,0c-0.2,0-0.2-0.1-0.2-0.2c0-1.1,0-2.3,0-3.4C101,26.7,101,26.7,101.1,26.6
		c3.5,0,7.1,0,10.7,0h0.1c0,0,0.1,0,0.1-0.1C108.4,26.6,104.8,26.6,101.1,26.6z"/>
	<path class="st0" d="M88.6,6.8c0.2,0,0.5,0,0.7,0c0,0,0,0,0-0.1c-0.3,0-0.6,0-0.9,0c0,0.1,0.1,0.1,0.1,0.2
		C88.4,6.9,88.5,6.8,88.6,6.8z"/>
	<path class="st0" d="M88.3,17.8c0,0.1,0,0.1,0,0.2c0,0.1,0,0.2,0.2,0.2c1.1,0,2.3,0,3.4,0c0.1,0,0.2,0,0.2-0.2c0-0.3,0-0.7,0-1
		c-0.1,0.3,0,0.6,0,0.9c0,0.2-0.1,0.2-0.2,0.2c-1,0-2.1,0-3.1,0C88.4,18.1,88.4,18,88.3,17.8c0-3.5,0-7.2,0-10.7c0-0.1,0-0.1,0-0.1
		c0-0.1,0-0.1-0.1-0.2c0,0.1,0,0.2,0,0.2C88.3,10.7,88.3,14.2,88.3,17.8z"/>
	<path class="st0" d="M112,30.4C112,30.5,112,30.5,112,30.4c0.1-1.3,0.1-2.5,0.1-3.8c0,0,0,0-0.1,0C112,28,112,29.2,112,30.4z"/>
	<path class="st0" d="M112,26.7L112,26.7L112,26.7L112,26.7z"/>
	<path class="st0" d="M112,30.5L112,30.5L112,30.5L112,30.5L112,30.5z"/>
	<path class="st0" d="M89.3,6.8c0.9,0,1.8,0,2.8,0c0,0,0,0,0-0.1C91.1,6.8,90.2,6.8,89.3,6.8L89.3,6.8z"/>
	<path class="st0" d="M92,6.8L92,6.8L92,6.8L92,6.8z"/>
	<path class="st0" d="M89.3,6.8L89.3,6.8L89.3,6.8L89.3,6.8z"/>
	<path class="st0" d="M40.9,31.4c-0.2,0-0.2,0.1-0.2,0.2c-0.3,0.6-0.7,1.3-1.3,1.7c-0.6,0.7-1.3,1.3-2.2,1.6
		c-0.6,0.2-1.1,0.4-1.7,0.4c-0.1,0.1-0.2,0-0.2,0s-0.2,0-0.3,0c-0.2,0-0.2,0-0.4,0l0,0c-0.2,0-0.2,0-0.4,0c-0.1,0-0.2,0-0.2,0l0,0
		c-0.1,0-0.2,0-0.2,0c-1.3-0.2-2.5-0.9-3.5-1.8c-0.6-0.6-1-1.2-1.3-1.8c-0.4-0.7-0.6-1.5-0.6-2.3c0-0.1,0-0.2,0-0.2
		c0-0.2,0-0.3,0-0.4c-0.1-0.2,0-0.3,0-0.6l0,0c0-0.2,0-0.2,0-0.4c0-0.1,0-0.2,0-0.3l0,0c0-0.8,0.2-1.5,0.6-2.1
		c0.8-1.7,2-2.8,3.7-3.5c0.6-0.2,1.1-0.4,1.7-0.4c0.4-0.1,0.8-0.1,1.2,0l0,0c0.1,0,0.2,0,0.2,0c0.5,0.1,0.9,0.2,1.4,0.4
		c0.7,0.3,1.4,0.7,2,1.2c0.7,0.6,1.3,1.4,1.7,2.2c0.1,0.2,0.2,0.2,0.3,0.2c1.3,0,2.4,0,3.7,0c0.5,0,0.5,0,0.3-0.5c0-0.1,0-0.1,0-0.2
		c-0.6-1.4-1.4-2.8-2.4-3.9c-0.9-1-2-1.9-3.2-2.6c-1.1-0.6-2.2-0.9-3.4-1c-0.1,0-0.2,0-0.2,0l0,0c-0.2,0-0.3,0-0.4,0
		c-0.4,0-0.9,0-1.3,0c-0.1,0-0.2,0-0.3,0c-0.1,0.1-0.2,0-0.3,0c-0.3,0.1-0.6,0.1-0.9,0.2c-1.7,0.3-3.1,1-4.3,2
		c-0.6,0.6-1.2,1.1-1.7,1.7c-0.8,0.9-1.4,2-1.8,3.1c-0.2,0.7-0.5,1.4-0.6,2.1c-0.2,1.4-0.2,2.8,0,4.2c0.4,2.3,1.4,4.2,3.1,5.9
		c2,2,4.3,3.1,7.1,3.1c1.9,0.1,3.7-0.3,5.4-1.3c1.3-0.7,2.3-1.6,3.1-2.7c0.6-0.8,1.2-1.7,1.6-2.7c0.2-0.6,0.4-1,0.6-1.7
		C43.6,31.4,42.3,31.4,40.9,31.4z"/>
	<path class="st0" d="M68.2,39.8c0-4.2,0-8.6,0-12.8c0-0.1,0-0.2,0-0.2s0-0.2,0-0.3c0-0.1,0-0.2,0-0.2c-0.1-0.4-0.2-0.9-0.2-1.3
		c-0.2-0.8-0.6-1.4-1.3-1.9c-0.6-0.5-1.2-0.7-1.8-0.9c-0.8-0.3-1.6-0.4-2.4-0.6c-0.1,0-0.2,0-0.2,0l0,0c-0.6,0-1.1,0-1.7,0l0,0
		c-0.1,0-0.2,0-0.3,0s-0.3,0.1-0.5,0.1c-0.1,0.1-0.2,0-0.2,0s-0.2,0-0.3,0.1c-1.4,0.2-2.6,0.7-3.5,1.8c-0.6,0.7-1,1.4-1.2,2.2
		c-0.2,0.6-0.2,1.2-0.3,1.8c0,0.2,0.2,0.1,0.2,0.1c1.1,0,2.3,0,3.4,0c0.1,0,0.2,0,0.3,0l0,0c0.2,0,0.2-0.1,0.2-0.2
		c0-0.1,0-0.2,0.1-0.2c0.4-1.5,1.3-2,2.6-2c0.2-0.1,0.4-0.1,0.6,0l0,0c0.3,0,0.6,0,0.9,0.2c0.5,0.2,0.9,0.3,1.2,0.8
		c0.2,0.2,0.2,0.5,0.2,0.7c0.1,0.3,0,0.6-0.2,0.9c-0.3,0.5-0.7,0.7-1.3,0.8c-1.2,0.2-2.4,0.4-3.5,0.6c-0.8,0.2-1.6,0.4-2.4,0.7
		c-0.6,0.2-1.1,0.6-1.5,1.1c-0.3,0.4-0.6,0.8-0.8,1.3c-0.2,0.6-0.4,1.2-0.4,1.9c0,0.1,0,0.2,0,0.3l0,0c0,0.2,0,0.6,0,0.8
		c0,0.1,0,0.2,0,0.3c0,0.1,0,0.2,0,0.3c0.2,0.6,0.2,1.3,0.6,1.8c0.3,0.5,0.6,0.9,1.1,1.3c0.7,0.6,1.6,0.8,2.4,0.9c0.1,0,0.2,0,0.2,0
		l0,0c0.1,0,0.2,0,0.2,0c0.2,0,0.5,0,0.6,0s0.4,0,0.6-0.1c0.1-0.1,0.2,0,0.2,0c0.5-0.1,1-0.2,1.5-0.3c0.7-0.2,1.3-0.5,1.9-0.9
		c0.2-0.2,0.5-0.3,0.7-0.5l0,0l0,0c0.1,0,0.1,0.1,0.1,0.1c0,0.6,0,1,0,1.6c0.1,0.2,0.3,0,0.4,0.1l0,0C65.8,39.8,67,39.8,68.2,39.8
		C68.1,39.8,68.1,39.8,68.2,39.8z M63.7,34c-0.3,1.3-1.2,2.1-2.4,2.5c-0.5,0.2-1,0.2-1.6,0.2c-0.9-0.1-1.4-0.6-1.7-1.3
		c-0.2-0.6-0.2-1.1,0-1.6c0.2-0.8,0.8-1.3,1.5-1.5c0.6-0.2,1.3-0.3,2-0.5c0.4-0.1,0.8-0.2,1.3-0.3c0.2-0.1,0.4-0.2,0.6-0.3
		c0.2-0.1,0.2-0.2,0.4-0.2C63.9,32,63.9,33,63.7,34z"/>
	<path class="st0" d="M98.4,30c-0.1-0.1,0-0.2,0-0.3c-0.1-0.3-0.1-0.6-0.2-0.9c-0.4-2-1.3-3.8-2.9-5.2c-1.3-1.1-2.9-1.8-4.6-2
		c-0.1,0-0.2,0-0.3,0c0,0,0,0-0.1,0c-0.2,0-0.2,0-0.4,0c-0.2,0-0.4,0-0.6,0c-0.1,0-0.2,0-0.3,0c-0.1,0.1-0.2,0-0.3,0s-0.2,0-0.2,0
		c-0.1,0.1-0.2,0-0.2,0c-0.8,0.2-1.6,0.4-2.3,0.7c-1.1,0.6-2,1.3-2.8,2.4c-0.7,0.9-1.3,1.8-1.6,2.8c-0.2,0.7-0.4,1.4-0.5,2.1
		c0,0.1,0,0.2,0,0.2l0,0c0,0.1,0,0.2,0,0.3c0,0.3,0,0.7,0,1c0,0.1,0,0.2,0,0.3c0,0.1,0,0.2,0,0.3c0,0.2,0.1,0.5,0.1,0.7
		c0.2,0.9,0.5,1.9,0.9,2.8c0.6,1.1,1.5,2,2.5,2.8c1.1,0.9,2.3,1.4,3.6,1.6c0.9,0,1.8,0,2.8,0c0.1,0,0.2,0,0.3-0.1
		c0.9-0.2,1.7-0.5,2.5-0.9c0.8-0.5,1.5-1.1,2.1-1.7c0.5-0.6,0.9-1.1,1.3-1.8c0.6-1.1,0.9-2.3,1-3.5c0-0.1,0-0.2,0-0.3l0,0
		c0-0.2,0-0.2,0-0.4c0-0.2,0-0.5,0-0.6C98.4,30.3,98.4,30.2,98.4,30z M91.9,35.1c-1.9,1.1-4.4,0.6-5.7-1.3c-0.7-0.9-1-1.9-1-3.5
		c0-1.7,1.3-3.6,3.2-4.2c0.6-0.2,1.3-0.2,2-0.2c1.8,0.2,3,1.3,3.6,2.9C94.9,31.1,94,33.8,91.9,35.1z"/>
	<path class="st0" d="M80.6,24.1c0-0.1,0-0.2,0-0.2c0-0.3,0-0.6,0-0.9c0-0.1,0-0.2,0-0.2c0-0.3,0-0.7,0-1c-0.2,0-0.4,0-0.6,0
		c-0.8,0.2-1.6,0.3-2.4,0.6c-0.5,0.2-0.9,0.5-1.3,0.9c-0.5,0.4-0.9,0.9-1.3,1.3c-0.1,0-0.1-0.1-0.1-0.1s0,0,0-0.1c0-0.6,0-1.1,0-1.7
		c0-0.1,0-0.2,0-0.2l0,0c-0.1,0-0.2,0-0.3,0l0,0c-0.2,0-0.4,0-0.6,0l0,0c-0.2,0-0.4,0-0.6,0c-0.2,0-0.6,0-0.8,0h-0.1
		c-0.5,0-1,0-1.5,0c0,0.1,0,0.2,0,0.2c0,2.7,0,5.3,0,8l0,0c0,0.1,0,0.2,0,0.2c0,0.1,0,0.1,0,0.2c0,1.7,0,3.5,0,5.2
		c0,0.1,0,0.1,0,0.2s0,0.1,0,0.2c0,0.2,0,0.3,0,0.5c0,0.9,0,1.8,0,2.7c0,0.2,0.1,0.2,0.2,0.2c1.3,0,2.4,0,3.7,0
		c0.2,0,0.2-0.1,0.2-0.2c0-2.8,0-5.7,0-8.5c0-0.2,0-0.3,0-0.5l0,0c0-0.2,0-0.3,0.1-0.5c0-0.1,0-0.2,0-0.2l0,0c0-0.2,0-0.2,0-0.4
		c0.2-1,0.7-1.8,1.4-2.5c0.9-0.8,2-1.2,3.2-1c0.1,0,0.2,0,0.2,0l0,0c0.2,0,0.3,0,0.6,0.1c0-0.1,0-0.2,0-0.2
		C80.7,25.2,80.6,24.7,80.6,24.1z"/>
	<path class="st0" d="M51.4,17.2c-0.2,0-0.2,0-0.4,0c-1.3,0-2.5,0-3.8,0c0,7.5,0,15.1,0,22.6c1.3,0,2.7,0,4,0h0.1l0,0
		c0-0.1,0-0.2,0-0.2c0-7.4,0-14.8,0-22.2C51.4,17.3,51.4,17.2,51.4,17.2z"/>
	<path class="st0" d="M104.1,17.1c1-1.1,2-2.1,3.1-3.2c0.6-0.6,1.3-1.3,1.9-2l0.1-0.1c-0.1-0.1-0.1-0.2-0.2-0.2
		c-0.8-0.8-1.6-1.7-2.4-2.4c-0.1-0.1-0.2-0.1-0.2,0c-0.5,0.6-0.9,1-1.4,1.5c-0.4,0.5-0.9,0.9-1.3,1.3c-0.6,0.6-1.2,1.3-1.8,1.9
		c-0.3,0.3-0.6,0.7-1,1c-0.7,0.8-1.5,1.5-2.2,2.3c-0.6,0.6-1.3,1.3-1.9,1.9c-0.1,0.1-0.2,0.2-0.3,0.3c-0.1,0.1-0.1,0.1,0,0.2
		c0.2,0.2,0.4,0.4,0.6,0.6c0.6,0.6,1.3,1.3,1.8,1.9c0.1,0.1,0.2,0.1,0.2,0c0.9-0.9,1.8-1.9,2.8-2.8
		C102.6,18.5,103.4,17.8,104.1,17.1z"/>
	<path class="st0" d="M91.7,6.9c-0.7,0-1.5,0-2.2,0c-0.1,0-0.2,0-0.3-0.1l0,0c-0.2,0.1-0.3,0-0.5,0.1c-0.3,0-0.3,0-0.3,0.3v0.1
		c0,3.4,0,6.8,0,10.2c0,0.4,0,0.4,0.4,0.4c0.9,0,1.8,0,2.8,0c0.2,0,0.3,0,0.3-0.3c0-0.2,0-0.3,0-0.6c0-0.1,0-0.2,0.1-0.2l0,0
		c0-1.3,0-2.6,0-3.9c0-0.1,0-0.1,0-0.2c0.1-0.3,0.1-0.6,0-0.9c0-0.1,0-0.2,0-0.3c0-1.5,0-3,0-4.5c0-0.1,0-0.2,0-0.3
		C92,6.9,91.8,6.9,91.7,6.9z"/>
	<path class="st0" d="M92,7.2c0,1.5,0,3,0,4.5c0,0.1,0,0.2,0,0.3c0.1,0.3,0.1,0.6,0,0.9c0,0.1,0,0.1,0,0.2c0,1.3,0,2.6,0,3.9l0,0
		c0,0,0,0,0.1,0c0-0.1,0-0.2,0-0.3c0-1.3,0-2.5,0-3.8c0-0.2,0-0.6,0-0.8c0-0.2,0-0.5,0-0.8c0-1.5,0-3,0-4.4l0,0C92,7,92,7.1,92,7.2z
		"/>
	<path class="st0" d="M88.4,7.2c0,3.5,0,6.8,0,10.3c0,0.1,0,0.2,0,0.2c0,0.2,0,0.3,0.3,0.3c1,0,2,0,3,0c0.2,0,0.2,0,0.2-0.2
		c0-0.2,0-0.6,0-0.8c-0.1,0.1-0.1,0.2-0.1,0.2c0,0.2,0,0.3,0,0.6c0,0.2,0,0.3-0.3,0.3c-0.9,0-1.8,0-2.8,0c-0.4,0-0.4,0-0.4-0.4
		c0-3.4,0-6.8,0-10.2C88.5,7.3,88.5,7.3,88.4,7.2c0.1-0.2,0.1-0.3,0.4-0.3c0.2,0,0.3,0,0.5-0.1l0,0l0,0c-0.2,0-0.5,0-0.7,0
		c-0.1,0-0.2,0-0.2,0.1C88.4,7.1,88.4,7.1,88.4,7.2z"/>
	<path class="st0" d="M92,17.8c0,0.2,0,0.2-0.2,0.2c-1,0-2,0-3,0c-0.2,0-0.3,0-0.3-0.3c0-0.1,0-0.2,0-0.2c0-3.5,0-6.8,0-10.3
		c0-0.1,0-0.2,0-0.2V7c0,3.6,0,7.2,0,10.8c0,0.2,0.1,0.2,0.2,0.2c1,0,2.1,0,3.1,0C92,18.1,92,18,92,17.8c0-0.2,0-0.6,0.1-0.8H92
		C92,17.2,92,17.5,92,17.8z"/>
	<path class="st0" d="M89.6,6.9c0.7,0,1.5,0,2.2,0c0.1,0,0.2,0,0.2-0.1l0,0l0,0c-0.9,0-1.8,0-2.8,0l0,0C89.4,6.9,89.4,6.9,89.6,6.9z
		"/>
	<path class="st0" d="M92,6.9L92,6.9L92,6.9C92,6.8,92,6.8,92,6.9L92,6.9z"/>
	<path class="st0" d="M89.3,6.8L89.3,6.8L89.3,6.8z"/>
	<path class="st0" d="M75.1,31c0,2.9,0,5.7,0,8.6c0,0.3,0,0.2-0.2,0.2c-1.2,0-2.4,0-3.6,0c-0.3,0-0.2,0-0.2-0.3c0-1,0-2,0-3v-0.1
		c0-0.1,0-0.1,0-0.2c0,1.1,0,2.2,0,3.4c0,0.2,0.1,0.2,0.2,0.2c1.3,0,2.5,0,3.8,0c0.2,0,0.2-0.1,0.2-0.2c0-1.2,0-2.4,0-3.5
		c0-1.8,0-3.6,0-5.4l0,0C75.1,30.7,75.1,30.9,75.1,31z"/>
	<path class="st0" d="M75.1,31.1c0,2.8,0,5.7,0,8.5c0,0.2-0.1,0.2-0.2,0.2c-1.3,0-2.4,0-3.7,0c-0.2,0-0.2-0.1-0.2-0.2
		c0-0.9,0-1.8,0-2.7c0-0.2,0-0.3,0-0.5v0.1c0,1,0,2,0,3c0,0.3,0,0.3,0.2,0.3c1.2,0,2.4,0,3.6,0c0.3,0,0.2,0,0.2-0.2
		c0-2.9,0-5.7,0-8.6c0-0.1,0-0.2,0-0.2C75.1,30.8,75.1,31,75.1,31.1z"/>
	<path class="st0" d="M68.2,39.8L68.2,39.8L68.2,39.8z"/>
	<path class="st0" d="M68.2,27c0-0.1,0-0.2,0-0.2C68.2,26.8,68.2,26.9,68.2,27c0,4.2,0,8.4,0,12.6c0,0.1,0,0.2,0,0.2l0,0l0,0l0,0
		c0.1-0.1,0.1-0.2,0.1-0.2C68.3,35.4,68.3,31.2,68.2,27z"/>
	<path class="st0" d="M68.2,39.8L68.2,39.8c0.1-0.1,0-0.2,0-0.2c0-4.2,0-8.4,0-12.6c0-0.1,0-0.2,0-0.2c0,0.1,0,0.2,0,0.2
		C68.2,31.3,68.2,35.5,68.2,39.8z"/>
	<polygon class="st0" points="68.2,39.8 68.2,39.8 68.2,39.8 68.2,39.8 	"/>
	<path class="st0" d="M71,22.6c0-0.1,0-0.2,0-0.2C71,22.4,71,22.5,71,22.6c0,2.8,0,5.5,0,8.3c0-0.1,0-0.2,0-0.2l0,0
		C71,28,71,25.3,71,22.6z"/>
	<path class="st0" d="M71,22.6c0-0.1,0-0.2,0-0.2C71,22.5,71,22.6,71,22.6c0,2.7,0,5.3,0,8l0,0l0,0C71,28,71,25.3,71,22.6z"/>
	<path class="st0" d="M47.5,17.1c1.3,0,2.5,0,3.9,0c0.1,0,0.2,0,0.2,0c-0.1-0.1-0.2-0.1-0.2-0.1C50,17.1,48.7,17.1,47.5,17.1
		c0,0-0.1-0.1-0.2,0C47.3,17.1,47.4,17.1,47.5,17.1z"/>
	<path class="st0" d="M51.4,17.2c-0.1-0.1-0.1,0-0.2,0c-1.3,0-2.5,0-3.9,0c-0.1,0-0.1,0-0.2,0c1.3,0,2.5,0,3.8,0
		C51.2,17.1,51.3,17.1,51.4,17.2z"/>
	<path class="st0" d="M51.2,39.8c-1.3,0-2.5,0-3.9,0c-0.1,0-0.1,0-0.2,0c0.1,0.1,0.1,0.1,0.2,0.1C48.7,39.8,50,39.8,51.2,39.8
		c0.1,0,0.2,0.1,0.2,0l0,0C51.4,39.8,51.3,39.8,51.2,39.8z"/>
	<path class="st0" d="M47.3,39.8c0.1,0,0.1,0,0.2,0c1.3,0,2.5,0,3.9,0c0.1,0,0.2,0,0.2,0h-0.1C50,39.8,48.6,39.8,47.3,39.8z"/>
	<path class="st0" d="M57.9,27.7c-1.2,0-2.4,0-3.5,0c-0.1,0-0.2,0.1-0.2-0.1c-0.1,0.2,0.1,0.2,0.2,0.2c1.3,0,2.5,0,3.9,0l0,0
		C58,27.7,57.9,27.7,57.9,27.7z"/>
	<path class="st0" d="M57.8,27.7c-1.1,0-2.3,0-3.4,0c-0.1,0-0.2,0.1-0.2-0.1c0,0.2,0.2,0.1,0.2,0.1c1.2,0,2.4,0,3.5,0
		c0.1,0,0.2,0,0.2,0C58,27.7,57.9,27.7,57.8,27.7z"/>
	<path class="st0" d="M68.1,39.8c-1.2,0-2.4,0-3.5,0c-0.1,0-0.1,0-0.2,0l0,0c0.1,0.1,0.1,0,0.2,0C65.8,39.8,66.9,39.8,68.1,39.8
		c0,0,0.1,0.1,0.2,0l0,0C68.1,39.8,68.1,39.8,68.1,39.8z"/>
	<path class="st0" d="M64.6,39.8c1.2,0,2.4,0,3.5,0c0.1,0,0.1,0,0.2,0l0,0c-0.1,0-0.2,0-0.2,0C66.9,39.8,65.7,39.8,64.6,39.8
		C64.4,39.8,64.5,39.8,64.6,39.8z"/>
	<path class="st0" d="M68.2,39.8L68.2,39.8L68.2,39.8z"/>
	<polygon class="st0" points="68.2,39.8 68.2,39.8 68.2,39.8 	"/>
	<polygon class="st0" points="68.2,39.8 68.2,39.8 68.2,39.8 	"/>
	<polygon class="st0" points="68.2,39.8 68.2,39.8 68.2,39.8 	"/>
	<path class="st0" d="M88.3,39.8c0.1,0.1,0.1,0,0.2,0c0.8,0,1.7,0,2.4,0c0.1,0,0.2,0,0.2,0C90.1,39.8,89.2,39.8,88.3,39.8z"/>
	<path class="st0" d="M91.1,39.8c-0.9,0-1.8,0-2.8,0C89.2,39.8,90.1,39.8,91.1,39.8z"/>
	<path class="st0" d="M80.6,23.9c0,0.6,0,1.3,0,2c0,0.1,0,0.2,0,0.2l0,0c0,0,0,0,0-0.1C80.6,25.3,80.6,24.7,80.6,23.9
		C80.7,24,80.7,23.9,80.6,23.9z"/>
	<path class="st0" d="M80.6,25.9c0-0.6,0-1.3,0-2c0,0.1,0,0.2,0,0.2C80.6,24.7,80.7,25.2,80.6,25.9z"/>
	<path class="st0" d="M75,22.7c0,0.6,0,1.1,0,1.7c0,0,0,0,0,0.1l0,0l0,0c0,0,0,0.1,0.1,0.1c-0.1-0.1,0-0.2,0-0.2
		C75.1,23.8,75.1,23.3,75,22.7c0-0.1,0.1-0.2,0-0.2l0,0C75.1,22.6,75,22.6,75,22.7z"/>
	<path class="st0" d="M75,24.4C75,24.5,75,24.5,75,24.4C75,24.5,75,24.5,75,24.4z"/>
	<path class="st0" d="M75,24.4C75,24.4,75,24.4,75,24.4c0-0.6,0-1.2,0-1.7c0-0.1,0-0.2,0-0.2c0,0.1,0,0.2,0,0.2
		C75,23.3,75,23.9,75,24.4z"/>
	<path class="st0" d="M64,38.3c0-0.1,0-0.2,0-0.2c0,0.4,0,0.9,0,1.3c0,0.1,0,0.2,0,0.3C64,39.2,64,38.7,64,38.3z"/>
	<path class="st0" d="M64,38.1C64,38.1,64,38,64,38.1L64,38.1c0,0-0.1,0.1-0.1,0.2c0,0.5,0,0.9,0,1.4C64,39.2,64,38.7,64,38.1z"/>
	<path class="st0" d="M35.4,17.1c-0.4-0.1-0.9-0.1-1.3,0C34.6,17.1,35,17.1,35.4,17.1z"/>
	<path class="st0" d="M34.1,17.1c0.4,0,0.9,0,1.3,0C35,17.1,34.6,17.1,34.1,17.1z"/>
	<path class="st0" d="M80.6,21.7L80.6,21.7L80.6,21.7z"/>
	<path class="st0" d="M80.6,21.7c0.1,0.3,0,0.6,0,0.9c0,0.1,0,0.1,0,0.2s0,0.2,0,0.2c0-0.3,0-0.6,0-0.9
		C80.6,21.8,80.7,21.8,80.6,21.7L80.6,21.7L80.6,21.7z"/>
	<path class="st0" d="M80.6,22.6c0-0.3,0-0.6,0-0.9l0,0c0,0.3,0,0.7,0,1C80.6,22.7,80.6,22.6,80.6,22.6z"/>
	<path class="st0" d="M80.6,21.7L80.6,21.7L80.6,21.7z"/>
	<path class="st0" d="M34.2,21.5c0.4,0,0.8,0,1.2,0l0,0C35,21.5,34.6,21.5,34.2,21.5z"/>
	<path class="st0" d="M34.2,21.5c0.4,0,0.8,0,1.2,0C35,21.5,34.6,21.4,34.2,21.5z"/>
	<path class="st0" d="M81,30.3c-0.1,0.3-0.1,0.7,0,1C81,31,81,30.6,81,30.3z"/>
	<path class="st0" d="M81,31.3c0-0.3,0-0.7,0-1C81,30.6,81,31,81,31.3z"/>
	<path class="st0" d="M73.4,22.4c-0.3-0.1-0.6,0-0.9,0h0.1C72.9,22.4,73.2,22.4,73.4,22.4z"/>
	<path class="st0" d="M73.4,22.4c-0.2,0-0.6,0-0.8,0C72.9,22.5,73.2,22.4,73.4,22.4z"/>
	<path class="st0" d="M92,12.9c0.1-0.2,0.1-0.6,0-0.8l0,0C92.1,12.3,92.1,12.6,92,12.9z"/>
	<path class="st0" d="M92,12c0,0.2,0,0.6,0,0.8C92.1,12.6,92.1,12.3,92,12z"/>
	<path class="st0" d="M58.5,39.8c0.2,0.1,0.5,0.1,0.6,0C58.9,39.8,58.7,39.8,58.5,39.8z"/>
	<path class="st0" d="M59.1,39.8c-0.2,0-0.5,0-0.6,0C58.7,39.8,58.9,39.8,59.1,39.8z"/>
	<path class="st0" d="M98.4,31.1c0.1-0.2,0.1-0.5,0-0.6C98.4,30.7,98.4,30.9,98.4,31.1z"/>
	<path class="st0" d="M98.4,30.4c0,0.2,0,0.5,0,0.6C98.4,30.9,98.4,30.7,98.4,30.4z"/>
	<path class="st0" d="M80.6,21.7L80.6,21.7c-0.2-0.1-0.4-0.1-0.6,0C80.2,21.7,80.4,21.6,80.6,21.7z"/>
	<path class="st0" d="M80.6,21.7c-0.2-0.1-0.4,0-0.6,0C80.2,21.7,80.4,21.7,80.6,21.7L80.6,21.7z"/>
	<polygon class="st0" points="80.6,21.7 80.6,21.7 80.6,21.7 	"/>
	<path class="st0" d="M80.6,21.7L80.6,21.7L80.6,21.7z"/>
	<path class="st0" d="M80.6,21.7L80.6,21.7L80.6,21.7z"/>
	<polygon class="st0" points="80.6,21.7 80.6,21.7 80.6,21.7 	"/>
	<path class="st0" d="M61,25.2c0.2,0,0.4,0,0.6,0l0,0C61.4,25.2,61.2,25.2,61,25.2z"/>
	<path class="st0" d="M61,25.2c0.2,0,0.4,0,0.6,0C61.4,25.2,61.2,25.2,61,25.2z"/>
	<path class="st0" d="M89.9,21.6c-0.2-0.1-0.4-0.1-0.6,0C89.5,21.6,89.8,21.6,89.9,21.6z"/>
	<path class="st0" d="M89.4,21.6c0.2,0,0.4,0,0.6,0C89.8,21.6,89.5,21.6,89.4,21.6z"/>
	<path class="st0" d="M74.7,22.5L74.7,22.5c-0.2-0.1-0.4,0-0.6,0l0,0C74.3,22.5,74.4,22.4,74.7,22.5z"/>
	<path class="st0" d="M74.7,22.5c-0.2-0.1-0.4,0-0.6,0C74.3,22.5,74.4,22.5,74.7,22.5z"/>
	<path class="st0" d="M28.2,28.8c0-0.2,0-0.3,0-0.6l0,0C28.1,28.4,28.1,28.6,28.2,28.8z"/>
	<path class="st0" d="M28.2,28.8c0-0.2,0-0.3,0-0.6C28.1,28.4,28.1,28.6,28.2,28.8z"/>
	<path class="st0" d="M35,35.4c-0.2,0-0.2,0-0.4,0l0,0C34.7,35.4,34.9,35.4,35,35.4z"/>
	<path class="st0" d="M35,35.4c-0.2,0-0.2,0-0.4,0C34.7,35.4,34.9,35.4,35,35.4z"/>
	<path class="st0" d="M90.7,21.7c-0.1-0.1-0.2,0-0.4,0c0,0,0,0,0.1,0S90.5,21.6,90.7,21.7z"/>
	<path class="st0" d="M90.7,21.7c-0.1,0-0.2,0-0.3,0C90.5,21.7,90.5,21.7,90.7,21.7z"/>
	<path class="st0" d="M28.2,27.8c0.1-0.1,0-0.2,0-0.3l0,0C28.2,27.7,28.2,27.7,28.2,27.8z"/>
	<path class="st0" d="M28.2,27.8c0-0.1,0-0.2,0-0.3C28.2,27.7,28.2,27.7,28.2,27.8z"/>
	<path class="st0" d="M89,21.6c-0.1,0-0.2,0-0.3,0C88.8,21.6,88.9,21.7,89,21.6z"/>
	<path class="st0" d="M89,21.6c-0.1,0.1-0.2,0-0.3,0C88.8,21.7,88.9,21.7,89,21.6z"/>
	<path class="st0" d="M98.4,30c0-0.1,0-0.2,0-0.3C98.4,29.9,98.3,29.9,98.4,30z"/>
	<path class="st0" d="M98.4,30c-0.1-0.1,0-0.2,0-0.3C98.3,29.9,98.3,29.9,98.4,30z"/>
	<path class="st0" d="M33.9,17.1c-0.1,0-0.2,0-0.3,0C33.6,17.1,33.8,17.2,33.9,17.1z"/>
	<path class="st0" d="M33.9,17.1c-0.1,0.1-0.2,0-0.3,0C33.6,17.2,33.8,17.2,33.9,17.1z"/>
	<path class="st0" d="M62.4,21.6c-0.1-0.1-0.2,0-0.2,0l0,0C62.2,21.6,62.3,21.5,62.4,21.6z"/>
	<path class="st0" d="M62.4,21.6c-0.1,0-0.2,0-0.2,0C62.2,21.6,62.3,21.6,62.4,21.6z"/>
	<path class="st0" d="M60.4,21.5L60.4,21.5c-0.1,0-0.2,0-0.3,0C60.3,21.5,60.4,21.6,60.4,21.5z"/>
	<path class="st0" d="M60.4,21.5c-0.1,0.1-0.2,0-0.3,0C60.3,21.6,60.4,21.6,60.4,21.5z"/>
	<path class="st0" d="M98.3,31.8c0.1-0.1,0-0.2,0-0.3l0,0C98.3,31.6,98.4,31.7,98.3,31.8z"/>
	<path class="st0" d="M98.3,31.8c0-0.1,0-0.2,0-0.3C98.3,31.6,98.3,31.7,98.3,31.8z"/>
	<path class="st0" d="M81,31.6c0,0.1,0,0.2,0,0.3C81,31.8,81.1,31.7,81,31.6z"/>
	<path class="st0" d="M81,31.6c0.1,0.1,0,0.2,0,0.3C81.1,31.8,81.1,31.7,81,31.6z"/>
	<path class="st0" d="M53.8,34.1c-0.1,0.1,0,0.2,0,0.3l0,0C53.9,34.3,53.8,34.2,53.8,34.1z"/>
	<path class="st0" d="M53.8,34.1c0,0.1,0,0.2,0,0.3C53.9,34.3,53.9,34.3,53.8,34.1z"/>
	<path class="st0" d="M53.8,35.2c0,0.1,0,0.2,0,0.3C53.8,35.4,53.9,35.3,53.8,35.2z"/>
	<path class="st0" d="M53.8,35.2c0.1,0.1,0,0.2,0,0.3C53.9,35.4,53.9,35.3,53.8,35.2z"/>
	<path class="st0" d="M59.6,39.8c0.1,0,0.2,0,0.2,0C59.8,39.8,59.7,39.7,59.6,39.8z"/>
	<path class="st0" d="M59.6,39.8c0.1,0,0.2,0,0.2,0C59.8,39.7,59.7,39.7,59.6,39.8z"/>
	<path class="st0" d="M58,39.8c0.1,0.1,0.2,0,0.2,0l0,0C58.2,39.8,58.1,39.8,58,39.8z"/>
	<path class="st0" d="M58,39.8c0.1,0,0.2,0,0.2,0C58.2,39.8,58.1,39.8,58,39.8z"/>
	<path class="st0" d="M35.6,35.4c-0.1,0-0.2,0-0.2,0C35.4,35.4,35.5,35.4,35.6,35.4z"/>
	<path class="st0" d="M35.6,35.4c-0.1,0-0.2,0-0.2,0C35.4,35.4,35.5,35.4,35.6,35.4z"/>
	<path class="st0" d="M34.3,35.4c-0.1-0.1-0.2,0-0.2,0l0,0C34.1,35.4,34.2,35.4,34.3,35.4z"/>
	<path class="st0" d="M34.3,35.4c-0.1,0-0.2,0-0.2,0C34.1,35.4,34.2,35.4,34.3,35.4z"/>
	<path class="st0" d="M36.1,17.2c-0.1-0.1-0.2,0-0.2,0l0,0C35.9,17.2,36,17.1,36.1,17.2z"/>
	<path class="st0" d="M36.1,17.2c-0.1,0-0.2,0-0.2,0C35.9,17.2,36,17.2,36.1,17.2z"/>
	<path class="st0" d="M75.2,30.2c0.1-0.1,0-0.2,0-0.2l0,0C75.2,30,75.2,30.1,75.2,30.2z"/>
	<path class="st0" d="M75.2,30.2c0-0.1,0-0.2,0-0.2C75.2,30,75.2,30.1,75.2,30.2z"/>
	<path class="st0" d="M81.1,29.7c-0.1,0.1,0,0.2,0,0.2l0,0C81.1,29.9,81,29.8,81.1,29.7z"/>
	<path class="st0" d="M81.1,29.7c0,0.1,0,0.2,0,0.2C81.1,29.9,81.1,29.8,81.1,29.7z"/>
	<path class="st0" d="M28.2,29.4c0-0.1,0-0.2,0-0.2C28.2,29.2,28.2,29.3,28.2,29.4z"/>
	<path class="st0" d="M28.2,29.4c-0.1-0.1,0-0.2,0-0.2C28.2,29.2,28.2,29.3,28.2,29.4z"/>
	<path class="st0" d="M59.7,21.6c-0.1,0-0.2,0-0.2,0C59.6,21.6,59.6,21.7,59.7,21.6z"/>
	<path class="st0" d="M59.7,21.6c-0.1,0.1-0.2,0-0.2,0C59.6,21.7,59.6,21.7,59.7,21.6z"/>
	<path class="st0" d="M68.2,26.5c0-0.1,0-0.2,0-0.2C68.2,26.3,68.1,26.4,68.2,26.5z"/>
	<path class="st0" d="M68.2,26.5c0-0.1,0-0.2,0-0.2C68.1,26.3,68.1,26.4,68.2,26.5z"/>
	<path class="st0" d="M79.9,26c0.1,0.1,0.2,0,0.2,0l0,0C80.1,26,80,26,79.9,26z"/>
	<path class="st0" d="M79.9,26c0.1,0,0.2,0,0.2,0C80.1,26,80,26,79.9,26z"/>
	<path class="st0" d="M88.5,21.7c-0.1,0-0.2,0-0.2,0C88.3,21.7,88.4,21.7,88.5,21.7z"/>
	<path class="st0" d="M88.5,21.7c-0.1,0-0.2,0-0.2,0C88.3,21.8,88.4,21.8,88.5,21.7z"/>
	<path class="st0" d="M111.9,27c0-0.1,0-0.2,0.1-0.2c-0.2,0-0.2,0-0.4,0c-3.4,0-6.8,0-10.1,0c-0.4,0-0.4,0-0.4,0.4
		c0,0.9,0,1.8,0,2.8c0,0.5-0.1,0.5,0.5,0.5c3.4,0,6.7,0,10.1,0c0.2,0,0.2,0,0.4,0c-0.1-0.1,0-0.2,0-0.2
		C111.9,29.2,111.9,28.1,111.9,27z"/>
	<path class="st0" d="M111.9,30.4c-0.2,0-0.2,0-0.4,0c-3.4,0-6.7,0-10.1,0c-0.5,0-0.5,0-0.5-0.5c0-0.9,0-1.8,0-2.8
		c0-0.4,0-0.4,0.4-0.4c3.4,0,6.8,0,10.1,0c0.2,0,0.2,0,0.4,0c0,0,0,0,0-0.1l0,0c-0.1,0.1-0.2,0-0.3,0c-3.4,0-6.8,0-10.2,0
		c-0.1,0-0.2,0-0.2,0c-0.2,0-0.2,0.1-0.2,0.2c0,1.1,0,2.2,0,3.2c0,0.2,0.1,0.2,0.2,0.2c0.9,0,1.7,0,2.5,0c2.6,0,5.3,0,7.9,0
		C111.8,30.5,111.8,30.4,111.9,30.4C111.9,30.5,111.9,30.5,111.9,30.4C111.9,30.5,111.9,30.4,111.9,30.4z"/>
	<path class="st0" d="M111.7,30.5c-2.6,0-5.3,0-7.9,0c-0.9,0-1.7,0-2.5,0c-0.2,0-0.2,0-0.2-0.2c0-1.1,0-2.2,0-3.2
		c0-0.2,0.1-0.2,0.2-0.2c0.1,0,0.2,0,0.2,0c3.4,0,6.8,0,10.2,0c0.1,0,0.2,0,0.3,0H112c-3.5,0-7.2,0-10.7,0c-0.2,0-0.2,0.1-0.2,0.2
		c0,1.1,0,2.3,0,3.4c0,0.2,0.1,0.2,0.2,0.2C104.7,30.5,108.2,30.5,111.7,30.5c0.2,0,0.2,0,0.3,0C111.8,30.4,111.8,30.5,111.7,30.5z"
		/>
	<path class="st0" d="M111.9,26.7c-0.1,0.1-0.1,0.2-0.1,0.2c0,1.1,0,2.1,0,3.2c0,0.1,0,0.2,0,0.2l0,0l0,0
		C112,29.2,112,28,111.9,26.7L111.9,26.7L111.9,26.7z"/>
	<path class="st0" d="M111.9,30.4C111.9,30.4,111.9,30.5,111.9,30.4C112,30.5,112,30.5,111.9,30.4L111.9,30.4L111.9,30.4z"/>
	<path class="st0" d="M111.9,26.7L111.9,26.7C112,26.7,112,26.7,111.9,26.7L111.9,26.7L111.9,26.7z"/>
</g>
<g>
</g>
</svg>
