<?xml version="1.0" encoding="utf-8"?>
<!-- Generator: Adobe Illustrator 22.0.1, SVG Export Plug-In . SVG Version: 6.00 Build 0)  -->
<svg version="1.1" id="Layer_1" xmlns="http://www.w3.org/2000/svg" xmlns:xlink="http://www.w3.org/1999/xlink" x="0px" y="0px"
	 viewBox="0 0 130 50" style="enable-background:new 0 0 130 50;" xml:space="preserve">
<style type="text/css">
	.st0{fill:#C33019;}
</style>
<g>
	<path class="st0" d="M73.8,25.4C73.8,25.4,73.8,25.4,73.8,25.4C73.8,25.4,73.8,25.4,73.8,25.4C73.8,25.4,73.8,25.4,73.8,25.4z"/>
	<path class="st0" d="M81,27.5c0-0.1,0-0.2,0-0.3C81,27.3,81,27.4,81,27.5z"/>
	<path class="st0" d="M120.9,28.3C120.9,28.3,120.9,28.3,120.9,28.3C120.9,28.3,120.9,28.2,120.9,28.3
		C120.9,28.2,120.9,28.3,120.9,28.3C120.8,28.3,120.8,28.3,120.9,28.3z"/>
	<path class="st0" d="M120.9,33.1C120.8,33.1,120.8,33.1,120.9,33.1C120.9,33.1,120.9,33.1,120.9,33.1
		C120.9,33.1,120.9,33.1,120.9,33.1L120.9,33.1L120.9,33.1z"/>
	<path class="st0" d="M107.1,28.2c-0.3,0-0.3,0.1-0.3,0.3c0,1.4,0,2.8,0,4.2c0,0.3,0.1,0.4,0.4,0.4c4.6,0,9.2,0,13.8,0
		c0,0-0.1,0-0.1-0.1c-0.1,0-0.2,0-0.3,0c-4.5,0-8.9,0-13.4,0c-0.3,0-0.3-0.1-0.3-0.3c0-1.4,0-2.9,0-4.3
		C106.9,28.3,106.9,28.3,107.1,28.2c4.5,0,9,0,13.6,0c0,0,0.1,0,0.1,0c0,0,0.1,0,0.1-0.1C116.3,28.2,111.7,28.2,107.1,28.2z"/>
	<path class="st0" d="M91.1,3c0.3,0,0.6,0,0.9,0c0,0,0,0,0-0.1c-0.4,0-0.8,0-1.2,0c0,0.1,0.1,0.1,0.1,0.2C90.9,3.1,91,3,91.1,3z"/>
	<path class="st0" d="M90.8,16.9c0,0.1,0,0.1,0,0.2c0,0.1,0,0.2,0.2,0.2c1.4,0,2.9,0,4.3,0c0.1,0,0.2,0,0.2-0.2c0-0.4,0-0.9,0-1.3
		c-0.1,0.4,0,0.7,0,1.1c0,0.2-0.1,0.3-0.3,0.3c-1.3,0-2.7,0-4,0C90.9,17.3,90.9,17.2,90.8,16.9c0-4.5,0-9.1,0-13.6
		c0-0.1,0-0.1,0-0.1c0-0.1,0-0.1-0.1-0.2c0,0.1,0,0.2,0,0.3C90.8,7.9,90.8,12.4,90.8,16.9z"/>
	<path class="st0" d="M120.9,33C120.9,33.1,120.9,33.1,120.9,33c0.1-1.6,0.1-3.2,0.1-4.8c0,0,0,0-0.1,0
		C120.9,29.9,120.9,31.5,120.9,33z"/>
	<path class="st0" d="M120.9,28.3C120.9,28.3,120.9,28.3,120.9,28.3C120.9,28.3,120.9,28.3,120.9,28.3
		C120.9,28.3,120.9,28.3,120.9,28.3z"/>
	<path class="st0" d="M120.9,33.1L120.9,33.1L120.9,33.1C120.9,33.1,120.9,33.1,120.9,33.1C120.9,33.1,120.9,33.1,120.9,33.1z"/>
	<path class="st0" d="M92,3c1.2,0,2.3,0,3.5,0c0,0,0,0,0-0.1C94.3,3,93.2,3,92,3C92,3,92,3,92,3z"/>
	<path class="st0" d="M95.5,3C95.5,3,95.5,3,95.5,3C95.5,3,95.5,3,95.5,3C95.5,3,95.5,3,95.5,3z"/>
	<path class="st0" d="M92,3C92,3,92,3,92,3C92,3,92,3,92,3C92,3,92,3,92,3z"/>
	<path class="st0" d="M30.4,34.3c-0.2,0-0.2,0.1-0.2,0.2c-0.4,0.8-0.9,1.6-1.6,2.2c-0.8,0.9-1.7,1.6-2.8,2c-0.7,0.3-1.4,0.5-2.1,0.5
		c-0.1,0.1-0.2,0-0.3,0c-0.1,0-0.3,0-0.4,0c-0.2,0-0.3,0-0.5,0c0,0,0,0,0,0c-0.2,0-0.3,0-0.5,0c-0.1,0-0.2,0-0.3,0c0,0,0,0,0,0
		c-0.1,0-0.2,0-0.3,0c-1.7-0.3-3.2-1.1-4.4-2.3c-0.7-0.7-1.3-1.5-1.7-2.3c-0.5-0.9-0.8-1.9-0.8-2.9c0-0.1,0-0.2,0-0.3
		c0-0.2,0-0.4,0-0.5c-0.1-0.2,0-0.4,0-0.7c0,0,0,0,0,0c0-0.2,0-0.3,0-0.5c0-0.1,0-0.3,0-0.4c0,0,0,0,0,0c0-1,0.3-1.9,0.7-2.7
		c1-2.1,2.5-3.6,4.7-4.5c0.7-0.3,1.4-0.5,2.1-0.5c0.5-0.1,1-0.1,1.5,0c0,0,0,0,0,0c0.1,0,0.2,0,0.3,0c0.6,0.1,1.2,0.2,1.8,0.5
		c0.9,0.4,1.8,0.9,2.5,1.5c0.9,0.8,1.6,1.8,2.2,2.8c0.1,0.2,0.2,0.2,0.4,0.2c1.6,0,3.1,0,4.7,0c0.6,0,0.6,0,0.4-0.6
		c0-0.1,0-0.1,0-0.2C35,24,34,22.3,32.7,20.8c-1.2-1.3-2.5-2.4-4.1-3.3c-1.4-0.7-2.8-1.1-4.3-1.3c-0.1,0-0.2,0-0.3,0c0,0,0,0,0,0
		c-0.2,0-0.4,0-0.5,0c-0.5,0-1.1,0-1.6,0c-0.1,0-0.2,0-0.4,0c-0.1,0.1-0.2,0-0.4,0c-0.4,0.1-0.8,0.1-1.1,0.2
		c-2.1,0.4-3.9,1.3-5.5,2.6c-0.8,0.7-1.5,1.4-2.1,2.2c-1,1.2-1.8,2.5-2.3,4c-0.3,0.9-0.6,1.8-0.7,2.7c-0.3,1.8-0.3,3.6,0,5.4
		c0.5,2.9,1.8,5.4,3.9,7.5c2.5,2.5,5.5,3.9,9,4c2.4,0.1,4.7-0.4,6.9-1.6c1.6-0.9,2.9-2,4-3.4c0.8-1,1.5-2.2,2-3.4
		c0.3-0.7,0.5-1.3,0.7-2.1C33.9,34.3,32.2,34.3,30.4,34.3z"/>
	<path class="st0" d="M65.2,44.9c0-5.4,0-10.9,0-16.3c0-0.1,0-0.2,0-0.3c0-0.1,0-0.2,0-0.4c0-0.1,0-0.2,0-0.3
		c-0.1-0.5-0.2-1.1-0.3-1.6c-0.3-1-0.8-1.8-1.6-2.4c-0.7-0.6-1.5-0.9-2.3-1.2c-1-0.4-2-0.5-3.1-0.7c-0.1,0-0.2,0-0.3,0c0,0,0,0,0,0
		c-0.7,0-1.4,0-2.1,0c0,0,0,0,0,0c-0.1,0-0.2,0-0.4,0c-0.2,0-0.4,0.1-0.6,0.1c-0.1,0.1-0.2,0-0.3,0c-0.1,0-0.3,0-0.4,0.1
		c-1.8,0.3-3.3,0.9-4.5,2.3C48.5,25.1,48,26,47.8,27c-0.2,0.8-0.3,1.5-0.4,2.3c0,0.2,0.2,0.1,0.3,0.1c1.4,0,2.9,0,4.3,0
		c0.1,0,0.2,0,0.4,0c0,0,0,0,0,0c0.2,0,0.3-0.1,0.3-0.3c0-0.1,0-0.2,0.1-0.3c0.5-1.9,1.6-2.5,3.3-2.5c0.3-0.1,0.5-0.1,0.8,0
		c0,0,0,0,0,0c0.4,0,0.8,0,1.2,0.2c0.6,0.2,1.1,0.4,1.5,1c0.2,0.3,0.2,0.6,0.3,0.9c0.1,0.4,0,0.8-0.2,1.2c-0.4,0.6-0.9,0.9-1.7,1
		c-1.5,0.2-3,0.5-4.5,0.8c-1,0.2-2,0.5-3,0.9c-0.7,0.3-1.4,0.8-1.9,1.4c-0.4,0.5-0.8,1-1,1.6c-0.3,0.8-0.5,1.5-0.5,2.4
		c0,0.1,0,0.2,0,0.4c0,0,0,0,0,0c0,0.3,0,0.7,0,1c0,0.1,0,0.2,0,0.4c0,0.1,0,0.3,0,0.4c0.2,0.8,0.3,1.6,0.8,2.3
		c0.4,0.6,0.8,1.1,1.4,1.6c0.9,0.7,2,1,3.1,1.1c0.1,0,0.2,0,0.3,0c0,0,0,0,0,0c0.1,0,0.2,0,0.3,0c0.3,0,0.6,0,0.8,0
		c0.2,0,0.5,0,0.7-0.1c0.1-0.1,0.2,0,0.3,0c0.6-0.1,1.3-0.2,1.9-0.4c0.9-0.3,1.7-0.6,2.4-1.1c0.3-0.2,0.6-0.4,0.9-0.6c0,0,0,0,0,0
		c0,0,0,0,0,0c0.1,0,0.1,0.1,0.1,0.1c0,0.7,0,1.3,0,2c0.1,0.2,0.4,0,0.5,0.1c0,0,0,0,0,0c1.5,0,3,0,4.5,0C65,45,65.1,44.9,65.2,44.9
		z M59.5,37.6c-0.4,1.7-1.5,2.7-3.1,3.2c-0.6,0.2-1.3,0.2-2,0.2c-1.1-0.1-1.8-0.7-2.1-1.7c-0.2-0.7-0.2-1.4,0-2c0.3-1,1-1.6,1.9-1.9
		c0.8-0.3,1.7-0.4,2.5-0.6c0.5-0.1,1-0.3,1.6-0.4c0.3-0.1,0.5-0.2,0.8-0.4c0.2-0.1,0.3-0.2,0.5-0.2C59.7,35,59.7,36.3,59.5,37.6z"/>
	<path class="st0" d="M103.6,32.5c-0.1-0.1,0-0.2,0-0.4c-0.1-0.4-0.1-0.7-0.2-1.1c-0.5-2.6-1.7-4.8-3.7-6.6C98,23,96,22.1,93.8,21.9
		c-0.1,0-0.3,0-0.4,0c0,0,0,0-0.1,0c-0.2,0-0.3,0-0.5,0c-0.2,0-0.5,0-0.7,0c-0.1,0-0.3,0-0.4,0c-0.1,0.1-0.3,0-0.4,0
		c-0.1,0-0.2,0-0.3,0c-0.1,0.1-0.2,0-0.3,0c-1,0.2-2,0.5-2.9,0.9c-1.4,0.7-2.6,1.7-3.6,3c-0.9,1.1-1.6,2.3-2,3.6
		c-0.3,0.9-0.5,1.8-0.6,2.7c0,0.1,0,0.2,0,0.3c0,0,0,0,0,0c0,0.1,0,0.3,0,0.4c0,0.4,0,0.9,0,1.3c0,0.1,0,0.3,0,0.4
		c0,0.1,0,0.2,0,0.4c0,0.3,0.1,0.6,0.1,0.9c0.2,1.2,0.6,2.4,1.2,3.5c0.8,1.4,1.9,2.6,3.2,3.6c1.4,1.1,2.9,1.8,4.6,2
		c1.2,0,2.3,0,3.5,0c0.1,0,0.2,0,0.4-0.1c1.1-0.2,2.2-0.6,3.2-1.2c1-0.6,1.9-1.4,2.7-2.2c0.6-0.7,1.2-1.4,1.6-2.3
		c0.8-1.4,1.2-2.9,1.3-4.4c0-0.1,0-0.2,0-0.4c0,0,0,0,0,0c0-0.2,0-0.3,0-0.5c0-0.3,0-0.6,0-0.8C103.6,32.9,103.6,32.7,103.6,32.5z
		 M95.3,38.9c-2.4,1.4-5.6,0.7-7.3-1.6c-0.9-1.2-1.3-2.4-1.3-4.4c0-2.2,1.7-4.6,4.1-5.4c0.8-0.3,1.7-0.3,2.5-0.2
		c2.3,0.3,3.8,1.6,4.6,3.7C99.1,33.9,98,37.3,95.3,38.9z"/>
	<path class="st0" d="M81,25c0-0.1,0-0.2,0-0.3c0-0.4,0-0.8,0-1.2c0-0.1,0-0.2,0-0.2c0-0.4,0-0.9,0-1.3c-0.2,0-0.5,0-0.7,0
		c-1,0.2-2,0.4-3,0.8c-0.6,0.3-1.2,0.6-1.7,1.1c-0.6,0.5-1.2,1.1-1.6,1.7c-0.1,0-0.1-0.1-0.1-0.1c0,0,0,0,0-0.1c0-0.7,0-1.4,0-2.1
		c0-0.1,0-0.2,0-0.3c0,0,0,0,0,0c-0.1,0-0.3,0-0.4,0c0,0,0,0,0,0c-0.2,0-0.5,0-0.7,0c0,0,0,0,0,0c-0.3,0-0.5,0-0.8,0
		c-0.3,0-0.7,0-1,0c0,0-0.1,0-0.1,0c-0.6,0-1.3,0-1.9,0c0,0.1,0,0.2,0,0.3c0,3.4,0,6.8,0,10.2c0,0,0,0,0,0c0,0.1,0,0.2,0,0.3
		c0,0.1,0,0.1,0,0.2c0,2.2,0,4.4,0,6.6c0,0.1,0,0.1,0,0.2c0,0.1,0,0.1,0,0.2c0,0.2,0,0.4,0,0.6c0,1.1,0,2.3,0,3.4
		c0,0.2,0.1,0.3,0.3,0.3c1.6,0,3.1,0,4.7,0c0.2,0,0.3-0.1,0.3-0.3c0-3.6,0-7.2,0-10.8c0-0.2,0-0.4,0-0.6c0,0,0,0,0,0
		c0-0.2,0-0.4,0.1-0.6c0-0.1,0-0.2,0-0.3c0,0,0,0,0,0c0-0.2,0-0.3,0-0.5c0.3-1.3,0.9-2.3,1.8-3.2c1.2-1,2.5-1.5,4.1-1.3
		c0.1,0,0.2,0,0.3,0c0,0,0,0,0,0c0.2,0,0.4,0,0.7,0.1c0-0.1,0-0.2,0-0.3C81.1,26.4,81,25.7,81,25z"/>
	<path class="st0" d="M43.8,16.2c-0.2,0-0.3,0-0.5,0c-1.6,0-3.2,0-4.8,0c0,9.6,0,19.2,0,28.8c1.7,0,3.4,0,5.1,0c0,0,0.1,0,0.1,0
		c0,0,0,0,0,0c0-0.1,0-0.2,0-0.3c0-9.4,0-18.8,0-28.2C43.8,16.3,43.8,16.2,43.8,16.2z"/>
	<path class="st0" d="M110.8,16c1.3-1.4,2.6-2.7,3.9-4.1c0.8-0.8,1.6-1.7,2.4-2.5c0,0,0.1-0.1,0.1-0.1c-0.1-0.1-0.1-0.2-0.2-0.2
		c-1-1-2-2.1-3-3.1c-0.1-0.1-0.2-0.1-0.3,0c-0.6,0.7-1.2,1.3-1.8,1.9c-0.5,0.6-1.1,1.1-1.6,1.7c-0.8,0.8-1.5,1.6-2.3,2.4
		c-0.4,0.4-0.8,0.9-1.3,1.3c-0.9,1-1.9,1.9-2.8,2.9c-0.8,0.8-1.6,1.6-2.4,2.4c-0.1,0.1-0.3,0.3-0.4,0.4c-0.1,0.1-0.1,0.1,0,0.2
		c0.2,0.3,0.5,0.5,0.7,0.8c0.8,0.8,1.6,1.6,2.3,2.4c0.1,0.1,0.2,0.1,0.3,0c1.1-1.2,2.3-2.4,3.5-3.6C109,17.9,109.9,17,110.8,16z"/>
	<path class="st0" d="M95.1,3.1c-0.9,0-1.9,0-2.8,0c-0.1,0-0.3,0-0.4-0.1c0,0,0,0,0,0c-0.2,0.1-0.4,0-0.6,0.1c-0.4,0-0.4,0-0.4,0.4
		c0,0,0,0.1,0,0.1c0,4.3,0,8.6,0,13c0,0.5,0,0.5,0.5,0.5c1.2,0,2.3,0,3.5,0c0.3,0,0.4,0,0.4-0.4c0-0.2,0-0.4,0-0.7
		c0-0.1,0-0.2,0.1-0.2c0,0,0,0,0,0c0-1.6,0-3.3,0-4.9c0-0.1,0-0.1,0-0.2c0.1-0.4,0.1-0.7,0-1.1c0-0.1,0-0.3,0-0.4c0-1.9,0-3.8,0-5.7
		c0-0.1,0-0.3,0-0.4C95.4,3.1,95.2,3.1,95.1,3.1z"/>
	<path class="st0" d="M95.4,3.5c0,1.9,0,3.8,0,5.7c0,0.1,0,0.3,0,0.4c0.1,0.4,0.1,0.7,0,1.1c0,0.1,0,0.1,0,0.2c0,1.6,0,3.3,0,4.9
		c0,0,0,0,0,0c0,0,0,0,0.1,0c0-0.1,0-0.3,0-0.4c0-1.6,0-3.2,0-4.8c0-0.3,0-0.7,0-1c0-0.3,0-0.6,0-1c0-1.9,0-3.8,0-5.6c0,0,0,0,0,0
		C95.4,3.2,95.4,3.3,95.4,3.5z"/>
	<path class="st0" d="M90.9,3.5c0,4.4,0,8.7,0,13.1c0,0.1,0,0.2,0,0.3c0,0.3,0,0.4,0.4,0.4c1.3,0,2.6,0,3.8,0c0.3,0,0.3,0,0.3-0.3
		c0-0.3,0-0.7,0-1c-0.1,0.1-0.1,0.2-0.1,0.2c0,0.2,0,0.4,0,0.7c0,0.3,0,0.4-0.4,0.4c-1.2,0-2.3,0-3.5,0c-0.5,0-0.5,0-0.5-0.5
		c0-4.3,0-8.6,0-13C91,3.6,91,3.6,90.9,3.5C91,3.2,91,3.1,91.4,3.1c0.2,0,0.4,0,0.6-0.1c0,0,0,0,0,0c0,0,0,0,0,0c-0.3,0-0.6,0-0.9,0
		c-0.1,0-0.2,0-0.2,0.1C90.9,3.3,90.9,3.4,90.9,3.5z"/>
	<path class="st0" d="M95.4,16.9c0,0.3,0,0.3-0.3,0.3c-1.3,0-2.6,0-3.8,0c-0.3,0-0.4,0-0.4-0.4c0-0.1,0-0.2,0-0.3
		c0-4.4,0-8.7,0-13.1c0-0.1,0-0.2,0-0.3c0,0,0,0.1,0,0.1c0,4.6,0,9.1,0,13.7c0,0.2,0.1,0.3,0.3,0.3c1.3,0,2.7,0,4,0
		C95.4,17.3,95.5,17.2,95.4,16.9c0-0.3,0-0.7,0.1-1c0,0-0.1,0-0.1,0C95.4,16.2,95.4,16.6,95.4,16.9z"/>
	<path class="st0" d="M92.4,3.1c0.9,0,1.9,0,2.8,0c0.1,0,0.2,0,0.3-0.1c0,0,0,0,0,0c0,0,0,0,0,0c-1.2,0-2.3,0-3.5,0c0,0,0,0,0,0
		C92.1,3.1,92.2,3.1,92.4,3.1z"/>
	<path class="st0" d="M95.5,3.1C95.5,3.1,95.5,3.1,95.5,3.1C95.5,3.1,95.5,3.1,95.5,3.1C95.5,3,95.5,3,95.5,3.1
		C95.5,3.1,95.5,3.1,95.5,3.1z"/>
	<polygon class="st0" points="92,3 92,3 92,3 	"/>
	<path class="st0" d="M74,33.7c0,3.7,0,7.3,0,11c0,0.4,0,0.3-0.3,0.3c-1.5,0-3,0-4.6,0c-0.4,0-0.3,0-0.3-0.4c0-1.3,0-2.5,0-3.8
		c0,0,0-0.1,0-0.1c0-0.1,0-0.1,0-0.2c0,1.4,0,2.8,0,4.3c0,0.2,0.1,0.3,0.3,0.3c1.6,0,3.2,0,4.8,0c0.2,0,0.3-0.1,0.3-0.3
		c0-1.5,0-3,0-4.5c0-2.3,0-4.6,0-6.9c0,0,0,0,0,0C74,33.4,74,33.6,74,33.7z"/>
	<path class="st0" d="M74,33.9c0,3.6,0,7.2,0,10.8c0,0.2-0.1,0.3-0.3,0.3c-1.6,0-3.1,0-4.7,0c-0.2,0-0.3-0.1-0.3-0.3
		c0-1.1,0-2.3,0-3.4c0-0.2,0-0.4,0-0.6c0,0,0,0.1,0,0.1c0,1.3,0,2.5,0,3.8c0,0.4,0,0.4,0.3,0.4c1.5,0,3,0,4.6,0c0.4,0,0.3,0,0.3-0.3
		c0-3.7,0-7.3,0-11c0-0.1,0-0.2,0-0.3C74,33.5,74,33.7,74,33.9z"/>
	<polygon class="st0" points="65.2,44.9 65.2,44.9 65.2,44.9 	"/>
	<path class="st0" d="M65.2,28.7c0-0.1,0-0.2,0-0.3C65.2,28.4,65.2,28.5,65.2,28.7c0,5.3,0,10.7,0,16c0,0.1,0,0.2,0,0.3c0,0,0,0,0,0
		c0,0,0,0,0,0l0,0c0.1-0.1,0.1-0.2,0.1-0.3C65.3,39.3,65.3,34,65.2,28.7z"/>
	<path class="st0" d="M65.2,44.9C65.2,44.9,65.2,44.9,65.2,44.9c0.1-0.1,0-0.2,0-0.3c0-5.3,0-10.7,0-16c0-0.1,0-0.2,0-0.3
		c0,0.1,0,0.2,0,0.3C65.2,34.1,65.2,39.5,65.2,44.9z"/>
	<polygon class="st0" points="65.2,44.9 65.2,44.9 65.2,44.9 65.2,44.9 65.2,44.9 	"/>
	<path class="st0" d="M68.8,23.1c0-0.1,0-0.2,0-0.3C68.7,22.8,68.7,22.9,68.8,23.1c0,3.5,0,7,0,10.5c0-0.1,0-0.2,0-0.3c0,0,0,0,0,0
		C68.7,29.9,68.7,26.5,68.8,23.1z"/>
	<path class="st0" d="M68.8,23.1c0-0.1,0-0.2,0-0.3C68.7,22.9,68.8,23,68.8,23.1c0,3.4,0,6.8,0,10.2c0,0,0,0,0,0c0,0,0,0,0,0
		C68.8,29.9,68.8,26.5,68.8,23.1z"/>
	<path class="st0" d="M38.8,16.1c1.6,0,3.2,0,4.9,0c0.1,0,0.2,0,0.2,0c-0.1-0.1-0.2-0.1-0.3-0.1C42,16.1,40.4,16.1,38.8,16.1
		c0,0-0.1-0.1-0.2,0C38.6,16.1,38.7,16.1,38.8,16.1z"/>
	<path class="st0" d="M43.8,16.2c-0.1-0.1-0.1,0-0.2,0c-1.6,0-3.2,0-4.9,0c-0.1,0-0.1,0-0.2,0c1.6,0,3.2,0,4.8,0
		C43.5,16.1,43.7,16.1,43.8,16.2z"/>
	<path class="st0" d="M43.6,45c-1.6,0-3.2,0-4.9,0c-0.1,0-0.1,0-0.2,0c0.1,0.1,0.1,0.1,0.2,0.1C40.4,45,42,45,43.6,45
		c0.1,0,0.2,0.1,0.2,0c0,0,0,0,0,0C43.8,45,43.7,45,43.6,45z"/>
	<path class="st0" d="M38.6,44.9c0.1,0,0.1,0,0.2,0c1.6,0,3.2,0,4.9,0c0.1,0,0.2,0,0.2,0c0,0-0.1,0-0.1,0
		C42,44.9,40.3,44.9,38.6,44.9z"/>
	<path class="st0" d="M52.1,29.5c-1.5,0-3,0-4.5,0c-0.1,0-0.3,0.1-0.3-0.1c-0.1,0.2,0.1,0.2,0.2,0.2c1.6,0,3.2,0,4.9,0c0,0,0,0,0,0
		C52.2,29.5,52.1,29.5,52.1,29.5z"/>
	<path class="st0" d="M51.9,29.5c-1.4,0-2.9,0-4.3,0c-0.1,0-0.2,0.1-0.3-0.1c0,0.2,0.2,0.1,0.3,0.1c1.5,0,3,0,4.5,0
		c0.1,0,0.2,0,0.3,0C52.2,29.5,52.1,29.5,51.9,29.5z"/>
	<path class="st0" d="M65,45c-1.5,0-3,0-4.5,0c-0.1,0-0.1,0-0.2,0c0,0,0,0,0,0c0.1,0.1,0.1,0,0.2,0C62.1,45,63.5,45,65,45
		c0,0,0.1,0.1,0.2,0c0,0,0,0,0,0C65.1,45,65.1,45,65,45z"/>
	<path class="st0" d="M60.6,45c1.5,0,3,0,4.5,0c0.1,0,0.1,0,0.2,0c0,0,0,0,0,0c-0.1,0-0.2,0-0.3,0c-1.5,0-3,0-4.5,0
		C60.4,45,60.5,45,60.6,45z"/>
	<polygon class="st0" points="65.2,44.9 65.2,44.9 65.2,44.9 	"/>
	<polygon class="st0" points="65.2,44.9 65.2,44.9 65.2,44.9 65.2,44.9 	"/>
	<polygon class="st0" points="65.2,44.9 65.2,44.9 65.2,44.9 65.2,44.9 	"/>
	<polygon class="st0" points="65.2,44.9 65.2,44.9 65.2,44.9 65.2,44.9 	"/>
	<path class="st0" d="M90.8,45c0.1,0.1,0.1,0,0.2,0c1,0,2.1,0,3.1,0c0.1,0,0.2,0,0.2,0C93.1,45,91.9,45,90.8,45z"/>
	<path class="st0" d="M94.3,45c-1.2,0-2.3,0-3.5,0C91.9,45,93.1,45,94.3,45z"/>
	<path class="st0" d="M81,24.7c0,0.8,0,1.6,0,2.5c0,0.1,0,0.2,0,0.3c0,0,0,0,0,0c0,0,0,0,0-0.1c0-0.9,0-1.7,0-2.6
		C81.1,24.8,81.1,24.7,81,24.7z"/>
	<path class="st0" d="M81,27.2c0-0.8,0-1.6,0-2.5c0,0.1,0,0.2,0,0.3C81,25.7,81.1,26.4,81,27.2z"/>
	<path class="st0" d="M73.8,23.2c0,0.7,0,1.4,0,2.1c0,0,0,0,0,0.1c0,0,0,0,0,0c0,0,0,0,0,0c0,0,0,0.1,0.1,0.1c-0.1-0.1,0-0.2,0-0.3
		C73.9,24.6,73.9,23.9,73.8,23.2c0-0.1,0.1-0.2,0-0.3c0,0,0,0,0,0C73.9,23,73.8,23.1,73.8,23.2z"/>
	<path class="st0" d="M73.8,25.4c0,0.1,0,0.1,0.1,0.1C73.8,25.5,73.8,25.5,73.8,25.4z"/>
	<path class="st0" d="M73.8,25.4C73.8,25.3,73.8,25.3,73.8,25.4c0-0.8,0-1.5,0-2.2c0-0.1,0-0.2,0-0.3c0,0.1,0,0.2,0,0.3
		C73.8,23.9,73.8,24.7,73.8,25.4z"/>
	<path class="st0" d="M59.9,43c0-0.1,0-0.2,0-0.3c0,0.5,0,1.1,0,1.6c0,0.1,0,0.3,0,0.4C59.8,44.2,59.9,43.6,59.9,43z"/>
	<path class="st0" d="M59.9,42.8c0,0,0-0.1-0.1-0.1c0,0,0,0,0,0c0.1,0.1,0,0.2,0,0.3c0,0.6,0,1.2,0,1.8
		C59.9,44.2,59.9,43.5,59.9,42.8z"/>
	<path class="st0" d="M23.5,16.1c-0.5-0.1-1.1-0.1-1.6,0C22.4,16.1,22.9,16.1,23.5,16.1z"/>
	<path class="st0" d="M21.8,16.1c0.5,0,1.1,0,1.6,0C22.9,16.1,22.4,16.1,21.8,16.1z"/>
	<polygon class="st0" points="81,21.9 81,21.9 81,21.9 	"/>
	<path class="st0" d="M81,21.9c0.1,0.4,0,0.7,0,1.1c0,0.1,0,0.1,0,0.2c0,0.1,0,0.2,0,0.2c0-0.4,0-0.8,0-1.2C81,22.1,81.1,22,81,21.9
		L81,21.9C81,21.9,81,21.9,81,21.9z"/>
	<path class="st0" d="M81,23c0-0.4,0-0.7,0-1.1c0,0,0,0,0,0c0,0.4,0,0.9,0,1.3C81,23.2,81,23.1,81,23z"/>
	<polygon class="st0" points="81,21.9 81,21.9 81,21.9 	"/>
	<path class="st0" d="M21.9,21.6c0.5,0,1,0,1.5,0c0,0,0,0,0,0C22.9,21.6,22.4,21.6,21.9,21.6z"/>
	<path class="st0" d="M21.9,21.6c0.5,0,1,0,1.5,0C22.9,21.6,22.4,21.5,21.9,21.6z"/>
	<path class="st0" d="M81.5,32.8c-0.1,0.4-0.1,0.9,0,1.3C81.5,33.7,81.5,33.2,81.5,32.8z"/>
	<path class="st0" d="M81.5,34.1c0-0.4,0-0.9,0-1.3C81.5,33.2,81.5,33.7,81.5,34.1z"/>
	<path class="st0" d="M71.8,22.8c-0.4-0.1-0.7,0-1.1,0c0,0,0.1,0,0.1,0C71.1,22.8,71.5,22.8,71.8,22.8z"/>
	<path class="st0" d="M71.8,22.8c-0.3,0-0.7,0-1,0C71.1,22.9,71.5,22.8,71.8,22.8z"/>
	<path class="st0" d="M95.5,10.7c0.1-0.3,0.1-0.7,0-1v0C95.6,10,95.6,10.3,95.5,10.7z"/>
	<path class="st0" d="M95.5,9.6c0,0.3,0,0.7,0,1C95.6,10.3,95.6,10,95.5,9.6z"/>
	<path class="st0" d="M52.8,45c0.3,0.1,0.6,0.1,0.8,0C53.3,45,53.1,45,52.8,45z"/>
	<path class="st0" d="M53.6,45c-0.3,0-0.6,0-0.8,0C53.1,45,53.3,45,53.6,45z"/>
	<path class="st0" d="M103.6,33.9c0.1-0.3,0.1-0.6,0-0.8C103.6,33.3,103.6,33.6,103.6,33.9z"/>
	<path class="st0" d="M103.6,33c0,0.3,0,0.6,0,0.8C103.6,33.6,103.6,33.3,103.6,33z"/>
	<path class="st0" d="M81,21.9C81,21.9,81,21.9,81,21.9c-0.2-0.1-0.5-0.1-0.7,0C80.5,21.9,80.7,21.8,81,21.9z"/>
	<path class="st0" d="M81,21.9c-0.2-0.1-0.5,0-0.7,0C80.5,21.9,80.7,21.9,81,21.9C81,21.9,81,21.9,81,21.9z"/>
	<polygon class="st0" points="81,21.9 81,21.9 81,21.9 81,21.9 	"/>
	<polygon class="st0" points="81,21.9 81,21.9 81,21.9 	"/>
	<polygon class="st0" points="81,21.9 81,21.9 81,21.9 	"/>
	<polygon class="st0" points="81,21.9 81,21.9 81,21.9 81,21.9 	"/>
	<path class="st0" d="M56,26.4c0.3,0,0.5,0,0.8,0c0,0,0,0,0,0C56.5,26.4,56.3,26.4,56,26.4z"/>
	<path class="st0" d="M56,26.4c0.3,0,0.5,0,0.8,0C56.5,26.4,56.3,26.4,56,26.4z"/>
	<path class="st0" d="M92.8,21.8c-0.2-0.1-0.5-0.1-0.7,0C92.3,21.8,92.6,21.8,92.8,21.8z"/>
	<path class="st0" d="M92.1,21.8c0.2,0,0.5,0,0.7,0C92.6,21.8,92.3,21.8,92.1,21.8z"/>
	<path class="st0" d="M73.4,22.9C73.4,22.9,73.4,22.9,73.4,22.9c-0.2-0.1-0.5,0-0.7,0c0,0,0,0,0,0C72.9,22.9,73.1,22.8,73.4,22.9z"
		/>
	<path class="st0" d="M73.4,22.9c-0.2-0.1-0.5,0-0.7,0C72.9,22.9,73.1,22.9,73.4,22.9z"/>
	<path class="st0" d="M14.3,30.9c0-0.2,0-0.4,0-0.7c0,0,0,0,0,0C14.2,30.4,14.2,30.7,14.3,30.9z"/>
	<path class="st0" d="M14.3,30.9c0-0.2,0-0.4,0-0.7C14.2,30.4,14.2,30.7,14.3,30.9z"/>
	<path class="st0" d="M22.9,39.4c-0.2,0-0.3,0-0.5,0c0,0,0,0,0,0C22.6,39.4,22.8,39.4,22.9,39.4z"/>
	<path class="st0" d="M22.9,39.4c-0.2,0-0.3,0-0.5,0C22.6,39.4,22.8,39.4,22.9,39.4z"/>
	<path class="st0" d="M93.8,21.9c-0.1-0.1-0.3,0-0.5,0c0,0,0,0,0.1,0C93.5,21.9,93.6,21.8,93.8,21.9z"/>
	<path class="st0" d="M93.8,21.9c-0.1,0-0.3,0-0.4,0C93.5,21.9,93.6,21.9,93.8,21.9z"/>
	<path class="st0" d="M14.3,29.7c0.1-0.1,0-0.3,0-0.4c0,0,0,0,0,0C14.3,29.5,14.3,29.6,14.3,29.7z"/>
	<path class="st0" d="M14.3,29.7c0-0.1,0-0.3,0-0.4C14.3,29.5,14.3,29.6,14.3,29.7z"/>
	<path class="st0" d="M91.7,21.8c-0.1,0-0.3,0-0.4,0C91.4,21.8,91.5,21.9,91.7,21.8z"/>
	<path class="st0" d="M91.7,21.8c-0.1,0.1-0.3,0-0.4,0C91.4,21.9,91.5,21.9,91.7,21.8z"/>
	<path class="st0" d="M103.6,32.5c0-0.1,0-0.2,0-0.4C103.6,32.3,103.5,32.4,103.6,32.5z"/>
	<path class="st0" d="M103.6,32.5c-0.1-0.1,0-0.2,0-0.4C103.5,32.3,103.5,32.4,103.6,32.5z"/>
	<path class="st0" d="M21.5,16.1c-0.1,0-0.2,0-0.4,0C21.2,16.1,21.4,16.2,21.5,16.1z"/>
	<path class="st0" d="M21.5,16.1c-0.1,0.1-0.2,0-0.4,0C21.2,16.2,21.4,16.2,21.5,16.1z"/>
	<path class="st0" d="M57.8,21.8c-0.1-0.1-0.2,0-0.3,0c0,0,0,0,0,0C57.6,21.8,57.7,21.7,57.8,21.8z"/>
	<path class="st0" d="M57.8,21.8c-0.1,0-0.2,0-0.3,0C57.6,21.8,57.7,21.8,57.8,21.8z"/>
	<path class="st0" d="M55.3,21.7C55.3,21.7,55.3,21.7,55.3,21.7c-0.1,0-0.2,0-0.4,0C55.1,21.7,55.2,21.8,55.3,21.7z"/>
	<path class="st0" d="M55.3,21.7c-0.1,0.1-0.2,0-0.4,0C55.1,21.8,55.2,21.8,55.3,21.7z"/>
	<path class="st0" d="M103.5,34.7c0.1-0.1,0-0.2,0-0.4c0,0,0,0,0,0C103.5,34.5,103.6,34.6,103.5,34.7z"/>
	<path class="st0" d="M103.5,34.7c0-0.1,0-0.2,0-0.4C103.5,34.5,103.5,34.6,103.5,34.7z"/>
	<path class="st0" d="M81.5,34.5c0,0.1,0,0.2,0,0.4C81.5,34.7,81.6,34.6,81.5,34.5z"/>
	<path class="st0" d="M81.5,34.5c0.1,0.1,0,0.2,0,0.4C81.6,34.7,81.6,34.6,81.5,34.5z"/>
	<path class="st0" d="M46.9,37.7c-0.1,0.1,0,0.2,0,0.4c0,0,0,0,0,0C47,38,46.9,37.8,46.9,37.7z"/>
	<path class="st0" d="M46.9,37.7c0,0.1,0,0.2,0,0.4C47,38,47,37.9,46.9,37.7z"/>
	<path class="st0" d="M46.9,39.1c0,0.1,0,0.2,0,0.4C46.9,39.3,47,39.2,46.9,39.1z"/>
	<path class="st0" d="M46.9,39.1c0.1,0.1,0,0.2,0,0.4C47,39.3,47,39.2,46.9,39.1z"/>
	<path class="st0" d="M54.3,44.9c0.1,0,0.2,0,0.3,0C54.5,44.9,54.4,44.8,54.3,44.9z"/>
	<path class="st0" d="M54.3,44.9c0.1,0,0.2,0,0.3,0C54.5,44.8,54.4,44.8,54.3,44.9z"/>
	<path class="st0" d="M52.2,44.9c0.1,0.1,0.2,0,0.3,0c0,0,0,0,0,0C52.4,44.9,52.3,44.9,52.2,44.9z"/>
	<path class="st0" d="M52.2,44.9c0.1,0,0.2,0,0.3,0C52.4,44.9,52.3,44.9,52.2,44.9z"/>
	<path class="st0" d="M23.7,39.3c-0.1,0-0.2,0-0.3,0C23.5,39.3,23.6,39.3,23.7,39.3z"/>
	<path class="st0" d="M23.7,39.3c-0.1,0-0.2,0-0.3,0C23.5,39.3,23.6,39.4,23.7,39.3z"/>
	<path class="st0" d="M22,39.3c-0.1-0.1-0.2,0-0.3,0c0,0,0,0,0,0C21.8,39.4,21.9,39.3,22,39.3z"/>
	<path class="st0" d="M22,39.3c-0.1,0-0.2,0-0.3,0C21.8,39.4,21.9,39.3,22,39.3z"/>
	<path class="st0" d="M24.3,16.2c-0.1-0.1-0.2,0-0.3,0c0,0,0,0,0,0C24.1,16.2,24.2,16.1,24.3,16.2z"/>
	<path class="st0" d="M24.3,16.2c-0.1,0-0.2,0-0.3,0C24.1,16.2,24.2,16.2,24.3,16.2z"/>
	<path class="st0" d="M74.1,32.7c0.1-0.1,0-0.2,0-0.3c0,0,0,0,0,0C74.1,32.5,74.1,32.6,74.1,32.7z"/>
	<path class="st0" d="M74.1,32.7c0-0.1,0-0.2,0-0.3C74.1,32.5,74.1,32.6,74.1,32.7z"/>
	<path class="st0" d="M81.6,32.1c-0.1,0.1,0,0.2,0,0.3c0,0,0,0,0,0C81.6,32.3,81.5,32.2,81.6,32.1z"/>
	<path class="st0" d="M81.6,32.1c0,0.1,0,0.2,0,0.3C81.6,32.3,81.6,32.2,81.6,32.1z"/>
	<path class="st0" d="M14.3,31.7c0-0.1,0-0.2,0-0.3C14.3,31.5,14.3,31.6,14.3,31.7z"/>
	<path class="st0" d="M14.3,31.7c-0.1-0.1,0-0.2,0-0.3C14.3,31.5,14.3,31.6,14.3,31.7z"/>
	<path class="st0" d="M54.4,21.8c-0.1,0-0.2,0-0.3,0C54.2,21.8,54.3,21.9,54.4,21.8z"/>
	<path class="st0" d="M54.4,21.8c-0.1,0.1-0.2,0-0.3,0C54.2,21.9,54.3,21.9,54.4,21.8z"/>
	<path class="st0" d="M65.2,28c0-0.1,0-0.2,0-0.3C65.2,27.8,65.1,27.9,65.2,28z"/>
	<path class="st0" d="M65.2,28c0-0.1,0-0.2,0-0.3C65.1,27.8,65.1,27.9,65.2,28z"/>
	<path class="st0" d="M80.1,27.4c0.1,0.1,0.2,0,0.3,0c0,0,0,0,0,0C80.3,27.4,80.2,27.4,80.1,27.4z"/>
	<path class="st0" d="M80.1,27.4c0.1,0,0.2,0,0.3,0C80.3,27.4,80.2,27.4,80.1,27.4z"/>
	<path class="st0" d="M91,21.9c-0.1,0-0.2,0-0.3,0C90.8,21.9,90.9,21.9,91,21.9z"/>
	<path class="st0" d="M91,21.9c-0.1,0-0.2,0-0.3,0C90.8,22,90.9,22,91,21.9z"/>
	<path class="st0" d="M120.8,28.6c0-0.1,0-0.2,0.1-0.3c-0.2,0-0.3,0-0.5,0c-4.3,0-8.6,0-12.8,0c-0.5,0-0.5,0-0.5,0.5
		c0,1.2,0,2.3,0,3.5c0,0.6-0.1,0.6,0.6,0.6c4.3,0,8.5,0,12.8,0c0.2,0,0.3,0,0.5,0c-0.1-0.1,0-0.2,0-0.3
		C120.8,31.4,120.8,30,120.8,28.6z"/>
	<path class="st0" d="M120.8,33c-0.2,0-0.3,0-0.5,0c-4.3,0-8.5,0-12.8,0c-0.6,0-0.6,0-0.6-0.6c0-1.2,0-2.3,0-3.5
		c0-0.5,0-0.5,0.5-0.5c4.3,0,8.6,0,12.8,0c0.2,0,0.3,0,0.5,0c0,0,0,0,0-0.1c0,0,0,0,0,0c-0.1,0.1-0.3,0-0.4,0c-4.3,0-8.6,0-13,0
		c-0.1,0-0.2,0-0.3,0c-0.2,0-0.3,0.1-0.3,0.3c0,1.4,0,2.8,0,4.1c0,0.3,0.1,0.3,0.3,0.3c1.1,0,2.1,0,3.2,0c3.3,0,6.7,0,10,0
		C120.6,33.1,120.7,33,120.8,33C120.8,33.1,120.8,33.1,120.8,33C120.8,33.1,120.8,33,120.8,33z"/>
	<path class="st0" d="M120.5,33.1c-3.3,0-6.7,0-10,0c-1.1,0-2.1,0-3.2,0c-0.3,0-0.3,0-0.3-0.3c0-1.4,0-2.8,0-4.1
		c0-0.2,0.1-0.3,0.3-0.3c0.1,0,0.2,0,0.3,0c4.3,0,8.6,0,13,0c0.1,0,0.3,0,0.4,0c0,0-0.1,0-0.1,0c-4.5,0-9.1,0-13.6,0
		c-0.2,0-0.2,0.1-0.2,0.2c0,1.4,0,2.9,0,4.3c0,0.3,0.1,0.3,0.3,0.3C111.6,33.1,116.1,33.1,120.5,33.1c0.2,0,0.3,0,0.4,0
		C120.7,33,120.6,33.1,120.5,33.1z"/>
	<path class="st0" d="M120.8,28.3c-0.1,0.1-0.1,0.2-0.1,0.3c0,1.4,0,2.7,0,4.1c0,0.1,0,0.2,0,0.3c0,0,0,0,0,0c0,0,0,0,0,0
		C120.9,31.5,120.9,29.9,120.8,28.3C120.8,28.3,120.8,28.3,120.8,28.3C120.8,28.3,120.8,28.3,120.8,28.3z"/>
	<path class="st0" d="M120.8,33C120.8,33,120.8,33.1,120.8,33C120.9,33.1,120.9,33.1,120.8,33C120.8,33,120.8,33,120.8,33
		C120.8,33,120.8,33,120.8,33z"/>
	<path class="st0" d="M120.8,28.3C120.8,28.3,120.8,28.3,120.8,28.3C120.9,28.3,120.9,28.3,120.8,28.3
		C120.8,28.3,120.8,28.3,120.8,28.3C120.8,28.3,120.8,28.3,120.8,28.3z"/>
</g>
</svg>
