<?xml version="1.0" encoding="utf-8"?>
<!-- Generator: Adobe Illustrator 22.0.1, SVG Export Plug-In . SVG Version: 6.00 Build 0)  -->
<svg version="1.1" id="Layer_1" xmlns="http://www.w3.org/2000/svg" xmlns:xlink="http://www.w3.org/1999/xlink" x="0px" y="0px"
	 viewBox="0 0 130 50" style="enable-background:new 0 0 130 50;" xml:space="preserve">
<style type="text/css">
	.st0{fill:#C33019;}
</style>
<g>
	<path class="st0" d="M72,24.4L72,24.4L72,24.4L72,24.4z"/>
	<path class="st0" d="M77.6,26.1c0-0.1,0-0.2,0-0.2C77.6,25.9,77.6,26,77.6,26.1z"/>
	<path class="st0" d="M109,26.7L109,26.7C109,26.7,109,26.6,109,26.7C109,26.6,109,26.7,109,26.7C108.9,26.7,108.9,26.7,109,26.7z"
		/>
	<path class="st0" d="M109,30.5C108.9,30.5,108.9,30.5,109,30.5L109,30.5L109,30.5L109,30.5L109,30.5z"/>
	<path class="st0" d="M98.1,26.6c-0.2,0-0.2,0.1-0.2,0.2c0,1.1,0,2.2,0,3.3c0,0.2,0.1,0.3,0.3,0.3c3.6,0,7.2,0,10.8,0
		c0,0-0.1,0-0.1-0.1c-0.1,0-0.2,0-0.2,0c-3.5,0-7,0-10.5,0c-0.2,0-0.2-0.1-0.2-0.2c0-1.1,0-2.3,0-3.4C98,26.7,98,26.7,98.1,26.6
		c3.5,0,7.1,0,10.7,0h0.1c0,0,0.1,0,0.1-0.1C105.4,26.6,101.8,26.6,98.1,26.6z"/>
	<path class="st0" d="M85.6,6.8c0.2,0,0.5,0,0.7,0c0,0,0,0,0-0.1c-0.3,0-0.6,0-0.9,0c0,0.1,0.1,0.1,0.1,0.2
		C85.4,6.9,85.5,6.8,85.6,6.8z"/>
	<path class="st0" d="M85.3,17.8c0,0.1,0,0.1,0,0.2c0,0.1,0,0.2,0.2,0.2c1.1,0,2.3,0,3.4,0c0.1,0,0.2,0,0.2-0.2c0-0.3,0-0.7,0-1
		c-0.1,0.3,0,0.6,0,0.9c0,0.2-0.1,0.2-0.2,0.2c-1,0-2.1,0-3.1,0C85.4,18.1,85.4,18,85.3,17.8c0-3.5,0-7.2,0-10.7c0-0.1,0-0.1,0-0.1
		c0-0.1,0-0.1-0.1-0.2c0,0.1,0,0.2,0,0.2C85.3,10.7,85.3,14.2,85.3,17.8z"/>
	<path class="st0" d="M109,30.4C109,30.5,109,30.5,109,30.4c0.1-1.3,0.1-2.5,0.1-3.8c0,0,0,0-0.1,0C109,28,109,29.2,109,30.4z"/>
	<path class="st0" d="M109,26.7L109,26.7L109,26.7L109,26.7z"/>
	<path class="st0" d="M109,30.5L109,30.5L109,30.5L109,30.5L109,30.5z"/>
	<path class="st0" d="M86.3,6.8c0.9,0,1.8,0,2.8,0c0,0,0,0,0-0.1C88.1,6.8,87.2,6.8,86.3,6.8L86.3,6.8z"/>
	<path class="st0" d="M89,6.8L89,6.8L89,6.8L89,6.8z"/>
	<path class="st0" d="M86.3,6.8L86.3,6.8L86.3,6.8L86.3,6.8z"/>
	<path class="st0" d="M37.9,31.4c-0.2,0-0.2,0.1-0.2,0.2c-0.3,0.6-0.7,1.3-1.3,1.7c-0.6,0.7-1.3,1.3-2.2,1.6
		c-0.6,0.2-1.1,0.4-1.7,0.4c-0.1,0.1-0.2,0-0.2,0s-0.2,0-0.3,0c-0.2,0-0.2,0-0.4,0l0,0c-0.2,0-0.2,0-0.4,0c-0.1,0-0.2,0-0.2,0l0,0
		c-0.1,0-0.2,0-0.2,0c-1.3-0.2-2.5-0.9-3.5-1.8c-0.6-0.6-1-1.2-1.3-1.8c-0.4-0.7-0.6-1.5-0.6-2.3c0-0.1,0-0.2,0-0.2
		c0-0.2,0-0.3,0-0.4c-0.1-0.2,0-0.3,0-0.6l0,0c0-0.2,0-0.2,0-0.4c0-0.1,0-0.2,0-0.3l0,0c0-0.8,0.2-1.5,0.6-2.1
		c0.8-1.7,2-2.8,3.7-3.5c0.6-0.2,1.1-0.4,1.7-0.4c0.4-0.1,0.8-0.1,1.2,0l0,0c0.1,0,0.2,0,0.2,0c0.5,0.1,0.9,0.2,1.4,0.4
		c0.7,0.3,1.4,0.7,2,1.2c0.7,0.6,1.3,1.4,1.7,2.2c0.1,0.2,0.2,0.2,0.3,0.2c1.3,0,2.4,0,3.7,0c0.5,0,0.5,0,0.3-0.5c0-0.1,0-0.1,0-0.2
		c-0.6-1.4-1.4-2.8-2.4-3.9c-0.9-1-2-1.9-3.2-2.6c-1.1-0.6-2.2-0.9-3.4-1c-0.1,0-0.2,0-0.2,0l0,0c-0.2,0-0.3,0-0.4,0
		c-0.4,0-0.9,0-1.3,0c-0.1,0-0.2,0-0.3,0c-0.1,0.1-0.2,0-0.3,0c-0.3,0.1-0.6,0.1-0.9,0.2c-1.7,0.3-3.1,1-4.3,2
		c-0.6,0.6-1.2,1.1-1.7,1.7c-0.8,0.9-1.4,2-1.8,3.1c-0.2,0.7-0.5,1.4-0.6,2.1c-0.2,1.4-0.2,2.8,0,4.2c0.4,2.3,1.4,4.2,3.1,5.9
		c2,2,4.3,3.1,7.1,3.1c1.9,0.1,3.7-0.3,5.4-1.3c1.3-0.7,2.3-1.6,3.1-2.7c0.6-0.8,1.2-1.7,1.6-2.7c0.2-0.6,0.4-1,0.6-1.7
		C40.6,31.4,39.3,31.4,37.9,31.4z"/>
	<path class="st0" d="M65.2,39.8c0-4.2,0-8.6,0-12.8c0-0.1,0-0.2,0-0.2s0-0.2,0-0.3c0-0.1,0-0.2,0-0.2c-0.1-0.4-0.2-0.9-0.2-1.3
		c-0.2-0.8-0.6-1.4-1.3-1.9c-0.6-0.5-1.2-0.7-1.8-0.9c-0.8-0.3-1.6-0.4-2.4-0.6c-0.1,0-0.2,0-0.2,0l0,0c-0.6,0-1.1,0-1.7,0l0,0
		c-0.1,0-0.2,0-0.3,0s-0.3,0.1-0.5,0.1c-0.1,0.1-0.2,0-0.2,0s-0.2,0-0.3,0.1c-1.4,0.2-2.6,0.7-3.5,1.8c-0.6,0.7-1,1.4-1.2,2.2
		c-0.2,0.6-0.2,1.2-0.3,1.8c0,0.2,0.2,0.1,0.2,0.1c1.1,0,2.3,0,3.4,0c0.1,0,0.2,0,0.3,0l0,0c0.2,0,0.2-0.1,0.2-0.2
		c0-0.1,0-0.2,0.1-0.2c0.4-1.5,1.3-2,2.6-2c0.2-0.1,0.4-0.1,0.6,0l0,0c0.3,0,0.6,0,0.9,0.2c0.5,0.2,0.9,0.3,1.2,0.8
		c0.2,0.2,0.2,0.5,0.2,0.7c0.1,0.3,0,0.6-0.2,0.9c-0.3,0.5-0.7,0.7-1.3,0.8c-1.2,0.2-2.4,0.4-3.5,0.6c-0.8,0.2-1.6,0.4-2.4,0.7
		c-0.6,0.2-1.1,0.6-1.5,1.1c-0.3,0.4-0.6,0.8-0.8,1.3c-0.2,0.6-0.4,1.2-0.4,1.9c0,0.1,0,0.2,0,0.3l0,0c0,0.2,0,0.6,0,0.8
		c0,0.1,0,0.2,0,0.3c0,0.1,0,0.2,0,0.3c0.2,0.6,0.2,1.3,0.6,1.8c0.3,0.5,0.6,0.9,1.1,1.3c0.7,0.6,1.6,0.8,2.4,0.9c0.1,0,0.2,0,0.2,0
		l0,0c0.1,0,0.2,0,0.2,0c0.2,0,0.5,0,0.6,0s0.4,0,0.6-0.1c0.1-0.1,0.2,0,0.2,0c0.5-0.1,1-0.2,1.5-0.3c0.7-0.2,1.3-0.5,1.9-0.9
		c0.2-0.2,0.5-0.3,0.7-0.5l0,0l0,0c0.1,0,0.1,0.1,0.1,0.1c0,0.6,0,1,0,1.6c0.1,0.2,0.3,0,0.4,0.1l0,0C62.8,39.8,64,39.8,65.2,39.8
		C65.1,39.8,65.1,39.8,65.2,39.8z M60.7,34c-0.3,1.3-1.2,2.1-2.4,2.5c-0.5,0.2-1,0.2-1.6,0.2c-0.9-0.1-1.4-0.6-1.7-1.3
		c-0.2-0.6-0.2-1.1,0-1.6c0.2-0.8,0.8-1.3,1.5-1.5c0.6-0.2,1.3-0.3,2-0.5c0.4-0.1,0.8-0.2,1.3-0.3c0.2-0.1,0.4-0.2,0.6-0.3
		c0.2-0.1,0.2-0.2,0.4-0.2C60.9,32,60.9,33,60.7,34z"/>
	<path class="st0" d="M95.4,30c-0.1-0.1,0-0.2,0-0.3c-0.1-0.3-0.1-0.6-0.2-0.9c-0.4-2-1.3-3.8-2.9-5.2c-1.3-1.1-2.9-1.8-4.6-2
		c-0.1,0-0.2,0-0.3,0c0,0,0,0-0.1,0c-0.2,0-0.2,0-0.4,0c-0.2,0-0.4,0-0.6,0c-0.1,0-0.2,0-0.3,0c-0.1,0.1-0.2,0-0.3,0s-0.2,0-0.2,0
		c-0.1,0.1-0.2,0-0.2,0c-0.8,0.2-1.6,0.4-2.3,0.7c-1.1,0.6-2,1.3-2.8,2.4c-0.7,0.9-1.3,1.8-1.6,2.8c-0.2,0.7-0.4,1.4-0.5,2.1
		c0,0.1,0,0.2,0,0.2l0,0c0,0.1,0,0.2,0,0.3c0,0.3,0,0.7,0,1c0,0.1,0,0.2,0,0.3c0,0.1,0,0.2,0,0.3c0,0.2,0.1,0.5,0.1,0.7
		c0.2,0.9,0.5,1.9,0.9,2.8c0.6,1.1,1.5,2,2.5,2.8c1.1,0.9,2.3,1.4,3.6,1.6c0.9,0,1.8,0,2.8,0c0.1,0,0.2,0,0.3-0.1
		c0.9-0.2,1.7-0.5,2.5-0.9c0.8-0.5,1.5-1.1,2.1-1.7c0.5-0.6,0.9-1.1,1.3-1.8c0.6-1.1,0.9-2.3,1-3.5c0-0.1,0-0.2,0-0.3l0,0
		c0-0.2,0-0.2,0-0.4c0-0.2,0-0.5,0-0.6C95.4,30.3,95.4,30.2,95.4,30z M88.9,35.1c-1.9,1.1-4.4,0.6-5.7-1.3c-0.7-0.9-1-1.9-1-3.5
		c0-1.7,1.3-3.6,3.2-4.2c0.6-0.2,1.3-0.2,2-0.2c1.8,0.2,3,1.3,3.6,2.9C91.9,31.1,91,33.8,88.9,35.1z"/>
	<path class="st0" d="M77.6,24.1c0-0.1,0-0.2,0-0.2c0-0.3,0-0.6,0-0.9c0-0.1,0-0.2,0-0.2c0-0.3,0-0.7,0-1c-0.2,0-0.4,0-0.6,0
		c-0.8,0.2-1.6,0.3-2.4,0.6c-0.5,0.2-0.9,0.5-1.3,0.9c-0.5,0.4-0.9,0.9-1.3,1.3c-0.1,0-0.1-0.1-0.1-0.1s0,0,0-0.1c0-0.6,0-1.1,0-1.7
		c0-0.1,0-0.2,0-0.2l0,0c-0.1,0-0.2,0-0.3,0l0,0c-0.2,0-0.4,0-0.6,0l0,0c-0.2,0-0.4,0-0.6,0c-0.2,0-0.6,0-0.8,0h-0.1
		c-0.5,0-1,0-1.5,0c0,0.1,0,0.2,0,0.2c0,2.7,0,5.3,0,8l0,0c0,0.1,0,0.2,0,0.2c0,0.1,0,0.1,0,0.2c0,1.7,0,3.5,0,5.2
		c0,0.1,0,0.1,0,0.2s0,0.1,0,0.2c0,0.2,0,0.3,0,0.5c0,0.9,0,1.8,0,2.7c0,0.2,0.1,0.2,0.2,0.2c1.3,0,2.4,0,3.7,0
		c0.2,0,0.2-0.1,0.2-0.2c0-2.8,0-5.7,0-8.5c0-0.2,0-0.3,0-0.5l0,0c0-0.2,0-0.3,0.1-0.5c0-0.1,0-0.2,0-0.2l0,0c0-0.2,0-0.2,0-0.4
		c0.2-1,0.7-1.8,1.4-2.5c0.9-0.8,2-1.2,3.2-1c0.1,0,0.2,0,0.2,0l0,0c0.2,0,0.3,0,0.6,0.1c0-0.1,0-0.2,0-0.2
		C77.7,25.2,77.6,24.7,77.6,24.1z"/>
	<path class="st0" d="M48.4,17.2c-0.2,0-0.2,0-0.4,0c-1.3,0-2.5,0-3.8,0c0,7.5,0,15.1,0,22.6c1.3,0,2.7,0,4,0h0.1l0,0
		c0-0.1,0-0.2,0-0.2c0-7.4,0-14.8,0-22.2C48.4,17.3,48.4,17.2,48.4,17.2z"/>
	<path class="st0" d="M101.1,17.1c1-1.1,2-2.1,3.1-3.2c0.6-0.6,1.3-1.3,1.9-2l0.1-0.1c-0.1-0.1-0.1-0.2-0.2-0.2
		c-0.8-0.8-1.6-1.7-2.4-2.4c-0.1-0.1-0.2-0.1-0.2,0c-0.5,0.6-0.9,1-1.4,1.5c-0.4,0.5-0.9,0.9-1.3,1.3c-0.6,0.6-1.2,1.3-1.8,1.9
		c-0.3,0.3-0.6,0.7-1,1c-0.7,0.8-1.5,1.5-2.2,2.3c-0.6,0.6-1.3,1.3-1.9,1.9c-0.1,0.1-0.2,0.2-0.3,0.3c-0.1,0.1-0.1,0.1,0,0.2
		c0.2,0.2,0.4,0.4,0.6,0.6c0.6,0.6,1.3,1.3,1.8,1.9c0.1,0.1,0.2,0.1,0.2,0c0.9-0.9,1.8-1.9,2.8-2.8C99.6,18.5,100.4,17.8,101.1,17.1
		z"/>
	<path class="st0" d="M88.7,6.9c-0.7,0-1.5,0-2.2,0c-0.1,0-0.2,0-0.3-0.1l0,0c-0.2,0.1-0.3,0-0.5,0.1c-0.3,0-0.3,0-0.3,0.3v0.1
		c0,3.4,0,6.8,0,10.2c0,0.4,0,0.4,0.4,0.4c0.9,0,1.8,0,2.8,0c0.2,0,0.3,0,0.3-0.3c0-0.2,0-0.3,0-0.6c0-0.1,0-0.2,0.1-0.2l0,0
		c0-1.3,0-2.6,0-3.9c0-0.1,0-0.1,0-0.2c0.1-0.3,0.1-0.6,0-0.9c0-0.1,0-0.2,0-0.3c0-1.5,0-3,0-4.5c0-0.1,0-0.2,0-0.3
		C89,6.9,88.8,6.9,88.7,6.9z"/>
	<path class="st0" d="M89,7.2c0,1.5,0,3,0,4.5c0,0.1,0,0.2,0,0.3c0.1,0.3,0.1,0.6,0,0.9c0,0.1,0,0.1,0,0.2c0,1.3,0,2.6,0,3.9l0,0
		c0,0,0,0,0.1,0c0-0.1,0-0.2,0-0.3c0-1.3,0-2.5,0-3.8c0-0.2,0-0.6,0-0.8c0-0.2,0-0.5,0-0.8c0-1.5,0-3,0-4.4l0,0C89,7,89,7.1,89,7.2z
		"/>
	<path class="st0" d="M85.4,7.2c0,3.5,0,6.8,0,10.3c0,0.1,0,0.2,0,0.2c0,0.2,0,0.3,0.3,0.3c1,0,2,0,3,0c0.2,0,0.2,0,0.2-0.2
		c0-0.2,0-0.6,0-0.8c-0.1,0.1-0.1,0.2-0.1,0.2c0,0.2,0,0.3,0,0.6c0,0.2,0,0.3-0.3,0.3c-0.9,0-1.8,0-2.8,0c-0.4,0-0.4,0-0.4-0.4
		c0-3.4,0-6.8,0-10.2C85.5,7.3,85.5,7.3,85.4,7.2c0.1-0.2,0.1-0.3,0.4-0.3c0.2,0,0.3,0,0.5-0.1l0,0l0,0c-0.2,0-0.5,0-0.7,0
		c-0.1,0-0.2,0-0.2,0.1C85.4,7.1,85.4,7.1,85.4,7.2z"/>
	<path class="st0" d="M89,17.8c0,0.2,0,0.2-0.2,0.2c-1,0-2,0-3,0c-0.2,0-0.3,0-0.3-0.3c0-0.1,0-0.2,0-0.2c0-3.5,0-6.8,0-10.3
		c0-0.1,0-0.2,0-0.2V7c0,3.6,0,7.2,0,10.8c0,0.2,0.1,0.2,0.2,0.2c1,0,2.1,0,3.1,0C89,18.1,89,18,89,17.8c0-0.2,0-0.6,0.1-0.8H89
		C89,17.2,89,17.5,89,17.8z"/>
	<path class="st0" d="M86.6,6.9c0.7,0,1.5,0,2.2,0c0.1,0,0.2,0,0.2-0.1l0,0l0,0c-0.9,0-1.8,0-2.8,0l0,0C86.4,6.9,86.4,6.9,86.6,6.9z
		"/>
	<path class="st0" d="M89,6.9L89,6.9L89,6.9C89,6.8,89,6.8,89,6.9L89,6.9z"/>
	<path class="st0" d="M86.3,6.8L86.3,6.8L86.3,6.8z"/>
	<path class="st0" d="M72.1,31c0,2.9,0,5.7,0,8.6c0,0.3,0,0.2-0.2,0.2c-1.2,0-2.4,0-3.6,0c-0.3,0-0.2,0-0.2-0.3c0-1,0-2,0-3v-0.1
		c0-0.1,0-0.1,0-0.2c0,1.1,0,2.2,0,3.4c0,0.2,0.1,0.2,0.2,0.2c1.3,0,2.5,0,3.8,0c0.2,0,0.2-0.1,0.2-0.2c0-1.2,0-2.4,0-3.5
		c0-1.8,0-3.6,0-5.4l0,0C72.1,30.7,72.1,30.9,72.1,31z"/>
	<path class="st0" d="M72.1,31.1c0,2.8,0,5.7,0,8.5c0,0.2-0.1,0.2-0.2,0.2c-1.3,0-2.4,0-3.7,0c-0.2,0-0.2-0.1-0.2-0.2
		c0-0.9,0-1.8,0-2.7c0-0.2,0-0.3,0-0.5v0.1c0,1,0,2,0,3c0,0.3,0,0.3,0.2,0.3c1.2,0,2.4,0,3.6,0c0.3,0,0.2,0,0.2-0.2
		c0-2.9,0-5.7,0-8.6c0-0.1,0-0.2,0-0.2C72.1,30.8,72.1,31,72.1,31.1z"/>
	<path class="st0" d="M65.2,39.8L65.2,39.8L65.2,39.8z"/>
	<path class="st0" d="M65.2,27c0-0.1,0-0.2,0-0.2C65.2,26.8,65.2,26.9,65.2,27c0,4.2,0,8.4,0,12.6c0,0.1,0,0.2,0,0.2l0,0l0,0l0,0
		c0.1-0.1,0.1-0.2,0.1-0.2C65.3,35.4,65.3,31.2,65.2,27z"/>
	<path class="st0" d="M65.2,39.8L65.2,39.8c0.1-0.1,0-0.2,0-0.2c0-4.2,0-8.4,0-12.6c0-0.1,0-0.2,0-0.2c0,0.1,0,0.2,0,0.2
		C65.2,31.3,65.2,35.5,65.2,39.8z"/>
	<polygon class="st0" points="65.2,39.8 65.2,39.8 65.2,39.8 65.2,39.8 	"/>
	<path class="st0" d="M68,22.6c0-0.1,0-0.2,0-0.2C68,22.4,68,22.5,68,22.6c0,2.8,0,5.5,0,8.3c0-0.1,0-0.2,0-0.2l0,0
		C68,28,68,25.3,68,22.6z"/>
	<path class="st0" d="M68,22.6c0-0.1,0-0.2,0-0.2C68,22.5,68,22.6,68,22.6c0,2.7,0,5.3,0,8l0,0l0,0C68,28,68,25.3,68,22.6z"/>
	<path class="st0" d="M44.5,17.1c1.3,0,2.5,0,3.9,0c0.1,0,0.2,0,0.2,0c-0.1-0.1-0.2-0.1-0.2-0.1C47,17.1,45.7,17.1,44.5,17.1
		c0,0-0.1-0.1-0.2,0C44.3,17.1,44.4,17.1,44.5,17.1z"/>
	<path class="st0" d="M48.4,17.2c-0.1-0.1-0.1,0-0.2,0c-1.3,0-2.5,0-3.9,0c-0.1,0-0.1,0-0.2,0c1.3,0,2.5,0,3.8,0
		C48.2,17.1,48.3,17.1,48.4,17.2z"/>
	<path class="st0" d="M48.2,39.8c-1.3,0-2.5,0-3.9,0c-0.1,0-0.1,0-0.2,0c0.1,0.1,0.1,0.1,0.2,0.1C45.7,39.8,47,39.8,48.2,39.8
		c0.1,0,0.2,0.1,0.2,0l0,0C48.4,39.8,48.3,39.8,48.2,39.8z"/>
	<path class="st0" d="M44.3,39.8c0.1,0,0.1,0,0.2,0c1.3,0,2.5,0,3.9,0c0.1,0,0.2,0,0.2,0h-0.1C47,39.8,45.6,39.8,44.3,39.8z"/>
	<path class="st0" d="M54.9,27.7c-1.2,0-2.4,0-3.5,0c-0.1,0-0.2,0.1-0.2-0.1c-0.1,0.2,0.1,0.2,0.2,0.2c1.3,0,2.5,0,3.9,0l0,0
		C55,27.7,54.9,27.7,54.9,27.7z"/>
	<path class="st0" d="M54.8,27.7c-1.1,0-2.3,0-3.4,0c-0.1,0-0.2,0.1-0.2-0.1c0,0.2,0.2,0.1,0.2,0.1c1.2,0,2.4,0,3.5,0
		c0.1,0,0.2,0,0.2,0C55,27.7,54.9,27.7,54.8,27.7z"/>
	<path class="st0" d="M65.1,39.8c-1.2,0-2.4,0-3.5,0c-0.1,0-0.1,0-0.2,0l0,0c0.1,0.1,0.1,0,0.2,0C62.8,39.8,63.9,39.8,65.1,39.8
		c0,0,0.1,0.1,0.2,0l0,0C65.1,39.8,65.1,39.8,65.1,39.8z"/>
	<path class="st0" d="M61.6,39.8c1.2,0,2.4,0,3.5,0c0.1,0,0.1,0,0.2,0l0,0c-0.1,0-0.2,0-0.2,0C63.9,39.8,62.7,39.8,61.6,39.8
		C61.4,39.8,61.5,39.8,61.6,39.8z"/>
	<path class="st0" d="M65.2,39.8L65.2,39.8L65.2,39.8z"/>
	<polygon class="st0" points="65.2,39.8 65.2,39.8 65.2,39.8 	"/>
	<polygon class="st0" points="65.2,39.8 65.2,39.8 65.2,39.8 	"/>
	<polygon class="st0" points="65.2,39.8 65.2,39.8 65.2,39.8 	"/>
	<path class="st0" d="M85.3,39.8c0.1,0.1,0.1,0,0.2,0c0.8,0,1.7,0,2.4,0c0.1,0,0.2,0,0.2,0C87.1,39.8,86.2,39.8,85.3,39.8z"/>
	<path class="st0" d="M88.1,39.8c-0.9,0-1.8,0-2.8,0C86.2,39.8,87.1,39.8,88.1,39.8z"/>
	<path class="st0" d="M77.6,23.9c0,0.6,0,1.3,0,2c0,0.1,0,0.2,0,0.2l0,0c0,0,0,0,0-0.1C77.6,25.3,77.6,24.7,77.6,23.9
		C77.7,24,77.7,23.9,77.6,23.9z"/>
	<path class="st0" d="M77.6,25.9c0-0.6,0-1.3,0-2c0,0.1,0,0.2,0,0.2C77.6,24.7,77.7,25.2,77.6,25.9z"/>
	<path class="st0" d="M72,22.7c0,0.6,0,1.1,0,1.7c0,0,0,0,0,0.1l0,0l0,0c0,0,0,0.1,0.1,0.1c-0.1-0.1,0-0.2,0-0.2
		C72.1,23.8,72.1,23.3,72,22.7c0-0.1,0.1-0.2,0-0.2l0,0C72.1,22.6,72,22.6,72,22.7z"/>
	<path class="st0" d="M72,24.4C72,24.5,72,24.5,72,24.4C72,24.5,72,24.5,72,24.4z"/>
	<path class="st0" d="M72,24.4C72,24.4,72,24.4,72,24.4c0-0.6,0-1.2,0-1.7c0-0.1,0-0.2,0-0.2c0,0.1,0,0.2,0,0.2
		C72,23.3,72,23.9,72,24.4z"/>
	<path class="st0" d="M61,38.3c0-0.1,0-0.2,0-0.2c0,0.4,0,0.9,0,1.3c0,0.1,0,0.2,0,0.3C61,39.2,61,38.7,61,38.3z"/>
	<path class="st0" d="M61,38.1C61,38.1,61,38,61,38.1L61,38.1c0,0-0.1,0.1-0.1,0.2c0,0.5,0,0.9,0,1.4C61,39.2,61,38.7,61,38.1z"/>
	<path class="st0" d="M32.4,17.1c-0.4-0.1-0.9-0.1-1.3,0C31.6,17.1,32,17.1,32.4,17.1z"/>
	<path class="st0" d="M31.1,17.1c0.4,0,0.9,0,1.3,0C32,17.1,31.6,17.1,31.1,17.1z"/>
	<path class="st0" d="M77.6,21.7L77.6,21.7L77.6,21.7z"/>
	<path class="st0" d="M77.6,21.7c0.1,0.3,0,0.6,0,0.9c0,0.1,0,0.1,0,0.2s0,0.2,0,0.2c0-0.3,0-0.6,0-0.9
		C77.6,21.8,77.7,21.8,77.6,21.7L77.6,21.7L77.6,21.7z"/>
	<path class="st0" d="M77.6,22.6c0-0.3,0-0.6,0-0.9l0,0c0,0.3,0,0.7,0,1C77.6,22.7,77.6,22.6,77.6,22.6z"/>
	<path class="st0" d="M77.6,21.7L77.6,21.7L77.6,21.7z"/>
	<path class="st0" d="M31.2,21.5c0.4,0,0.8,0,1.2,0l0,0C32,21.5,31.6,21.5,31.2,21.5z"/>
	<path class="st0" d="M31.2,21.5c0.4,0,0.8,0,1.2,0C32,21.5,31.6,21.4,31.2,21.5z"/>
	<path class="st0" d="M78,30.3c-0.1,0.3-0.1,0.7,0,1C78,31,78,30.6,78,30.3z"/>
	<path class="st0" d="M78,31.3c0-0.3,0-0.7,0-1C78,30.6,78,31,78,31.3z"/>
	<path class="st0" d="M70.4,22.4c-0.3-0.1-0.6,0-0.9,0h0.1C69.9,22.4,70.2,22.4,70.4,22.4z"/>
	<path class="st0" d="M70.4,22.4c-0.2,0-0.6,0-0.8,0C69.9,22.5,70.2,22.4,70.4,22.4z"/>
	<path class="st0" d="M89,12.9c0.1-0.2,0.1-0.6,0-0.8l0,0C89.1,12.3,89.1,12.6,89,12.9z"/>
	<path class="st0" d="M89,12c0,0.2,0,0.6,0,0.8C89.1,12.6,89.1,12.3,89,12z"/>
	<path class="st0" d="M55.5,39.8c0.2,0.1,0.5,0.1,0.6,0C55.9,39.8,55.7,39.8,55.5,39.8z"/>
	<path class="st0" d="M56.1,39.8c-0.2,0-0.5,0-0.6,0C55.7,39.8,55.9,39.8,56.1,39.8z"/>
	<path class="st0" d="M95.4,31.1c0.1-0.2,0.1-0.5,0-0.6C95.4,30.7,95.4,30.9,95.4,31.1z"/>
	<path class="st0" d="M95.4,30.4c0,0.2,0,0.5,0,0.6C95.4,30.9,95.4,30.7,95.4,30.4z"/>
	<path class="st0" d="M77.6,21.7L77.6,21.7c-0.2-0.1-0.4-0.1-0.6,0C77.2,21.7,77.4,21.6,77.6,21.7z"/>
	<path class="st0" d="M77.6,21.7c-0.2-0.1-0.4,0-0.6,0C77.2,21.7,77.4,21.7,77.6,21.7L77.6,21.7z"/>
	<polygon class="st0" points="77.6,21.7 77.6,21.7 77.6,21.7 	"/>
	<path class="st0" d="M77.6,21.7L77.6,21.7L77.6,21.7z"/>
	<path class="st0" d="M77.6,21.7L77.6,21.7L77.6,21.7z"/>
	<polygon class="st0" points="77.6,21.7 77.6,21.7 77.6,21.7 	"/>
	<path class="st0" d="M58,25.2c0.2,0,0.4,0,0.6,0l0,0C58.4,25.2,58.2,25.2,58,25.2z"/>
	<path class="st0" d="M58,25.2c0.2,0,0.4,0,0.6,0C58.4,25.2,58.2,25.2,58,25.2z"/>
	<path class="st0" d="M86.9,21.6c-0.2-0.1-0.4-0.1-0.6,0C86.5,21.6,86.8,21.6,86.9,21.6z"/>
	<path class="st0" d="M86.4,21.6c0.2,0,0.4,0,0.6,0C86.8,21.6,86.5,21.6,86.4,21.6z"/>
	<path class="st0" d="M71.7,22.5L71.7,22.5c-0.2-0.1-0.4,0-0.6,0l0,0C71.3,22.5,71.4,22.4,71.7,22.5z"/>
	<path class="st0" d="M71.7,22.5c-0.2-0.1-0.4,0-0.6,0C71.3,22.5,71.4,22.5,71.7,22.5z"/>
	<path class="st0" d="M25.2,28.8c0-0.2,0-0.3,0-0.6l0,0C25.1,28.4,25.1,28.6,25.2,28.8z"/>
	<path class="st0" d="M25.2,28.8c0-0.2,0-0.3,0-0.6C25.1,28.4,25.1,28.6,25.2,28.8z"/>
	<path class="st0" d="M32,35.4c-0.2,0-0.2,0-0.4,0l0,0C31.7,35.4,31.9,35.4,32,35.4z"/>
	<path class="st0" d="M32,35.4c-0.2,0-0.2,0-0.4,0C31.7,35.4,31.9,35.4,32,35.4z"/>
	<path class="st0" d="M87.7,21.7c-0.1-0.1-0.2,0-0.4,0c0,0,0,0,0.1,0S87.5,21.6,87.7,21.7z"/>
	<path class="st0" d="M87.7,21.7c-0.1,0-0.2,0-0.3,0C87.5,21.7,87.5,21.7,87.7,21.7z"/>
	<path class="st0" d="M25.2,27.8c0.1-0.1,0-0.2,0-0.3l0,0C25.2,27.7,25.2,27.7,25.2,27.8z"/>
	<path class="st0" d="M25.2,27.8c0-0.1,0-0.2,0-0.3C25.2,27.7,25.2,27.7,25.2,27.8z"/>
	<path class="st0" d="M86,21.6c-0.1,0-0.2,0-0.3,0C85.8,21.6,85.9,21.7,86,21.6z"/>
	<path class="st0" d="M86,21.6c-0.1,0.1-0.2,0-0.3,0C85.8,21.7,85.9,21.7,86,21.6z"/>
	<path class="st0" d="M95.4,30c0-0.1,0-0.2,0-0.3C95.4,29.9,95.3,29.9,95.4,30z"/>
	<path class="st0" d="M95.4,30c-0.1-0.1,0-0.2,0-0.3C95.3,29.9,95.3,29.9,95.4,30z"/>
	<path class="st0" d="M30.9,17.1c-0.1,0-0.2,0-0.3,0C30.6,17.1,30.8,17.2,30.9,17.1z"/>
	<path class="st0" d="M30.9,17.1c-0.1,0.1-0.2,0-0.3,0C30.6,17.2,30.8,17.2,30.9,17.1z"/>
	<path class="st0" d="M59.4,21.6c-0.1-0.1-0.2,0-0.2,0l0,0C59.2,21.6,59.3,21.5,59.4,21.6z"/>
	<path class="st0" d="M59.4,21.6c-0.1,0-0.2,0-0.2,0C59.2,21.6,59.3,21.6,59.4,21.6z"/>
	<path class="st0" d="M57.4,21.5L57.4,21.5c-0.1,0-0.2,0-0.3,0C57.3,21.5,57.4,21.6,57.4,21.5z"/>
	<path class="st0" d="M57.4,21.5c-0.1,0.1-0.2,0-0.3,0C57.3,21.6,57.4,21.6,57.4,21.5z"/>
	<path class="st0" d="M95.3,31.8c0.1-0.1,0-0.2,0-0.3l0,0C95.3,31.6,95.4,31.7,95.3,31.8z"/>
	<path class="st0" d="M95.3,31.8c0-0.1,0-0.2,0-0.3C95.3,31.6,95.3,31.7,95.3,31.8z"/>
	<path class="st0" d="M78,31.6c0,0.1,0,0.2,0,0.3C78,31.8,78.1,31.7,78,31.6z"/>
	<path class="st0" d="M78,31.6c0.1,0.1,0,0.2,0,0.3C78.1,31.8,78.1,31.7,78,31.6z"/>
	<path class="st0" d="M50.8,34.1c-0.1,0.1,0,0.2,0,0.3l0,0C50.9,34.3,50.8,34.2,50.8,34.1z"/>
	<path class="st0" d="M50.8,34.1c0,0.1,0,0.2,0,0.3C50.9,34.3,50.9,34.3,50.8,34.1z"/>
	<path class="st0" d="M50.8,35.2c0,0.1,0,0.2,0,0.3C50.8,35.4,50.9,35.3,50.8,35.2z"/>
	<path class="st0" d="M50.8,35.2c0.1,0.1,0,0.2,0,0.3C50.9,35.4,50.9,35.3,50.8,35.2z"/>
	<path class="st0" d="M56.6,39.8c0.1,0,0.2,0,0.2,0C56.8,39.8,56.7,39.7,56.6,39.8z"/>
	<path class="st0" d="M56.6,39.8c0.1,0,0.2,0,0.2,0C56.8,39.7,56.7,39.7,56.6,39.8z"/>
	<path class="st0" d="M55,39.8c0.1,0.1,0.2,0,0.2,0l0,0C55.2,39.8,55.1,39.8,55,39.8z"/>
	<path class="st0" d="M55,39.8c0.1,0,0.2,0,0.2,0C55.2,39.8,55.1,39.8,55,39.8z"/>
	<path class="st0" d="M32.6,35.4c-0.1,0-0.2,0-0.2,0C32.4,35.4,32.5,35.4,32.6,35.4z"/>
	<path class="st0" d="M32.6,35.4c-0.1,0-0.2,0-0.2,0C32.4,35.4,32.5,35.4,32.6,35.4z"/>
	<path class="st0" d="M31.3,35.4c-0.1-0.1-0.2,0-0.2,0l0,0C31.1,35.4,31.2,35.4,31.3,35.4z"/>
	<path class="st0" d="M31.3,35.4c-0.1,0-0.2,0-0.2,0C31.1,35.4,31.2,35.4,31.3,35.4z"/>
	<path class="st0" d="M33.1,17.2c-0.1-0.1-0.2,0-0.2,0l0,0C32.9,17.2,33,17.1,33.1,17.2z"/>
	<path class="st0" d="M33.1,17.2c-0.1,0-0.2,0-0.2,0C32.9,17.2,33,17.2,33.1,17.2z"/>
	<path class="st0" d="M72.2,30.2c0.1-0.1,0-0.2,0-0.2l0,0C72.2,30,72.2,30.1,72.2,30.2z"/>
	<path class="st0" d="M72.2,30.2c0-0.1,0-0.2,0-0.2C72.2,30,72.2,30.1,72.2,30.2z"/>
	<path class="st0" d="M78.1,29.7c-0.1,0.1,0,0.2,0,0.2l0,0C78.1,29.9,78,29.8,78.1,29.7z"/>
	<path class="st0" d="M78.1,29.7c0,0.1,0,0.2,0,0.2C78.1,29.9,78.1,29.8,78.1,29.7z"/>
	<path class="st0" d="M25.2,29.4c0-0.1,0-0.2,0-0.2C25.2,29.2,25.2,29.3,25.2,29.4z"/>
	<path class="st0" d="M25.2,29.4c-0.1-0.1,0-0.2,0-0.2C25.2,29.2,25.2,29.3,25.2,29.4z"/>
	<path class="st0" d="M56.7,21.6c-0.1,0-0.2,0-0.2,0C56.6,21.6,56.6,21.7,56.7,21.6z"/>
	<path class="st0" d="M56.7,21.6c-0.1,0.1-0.2,0-0.2,0C56.6,21.7,56.6,21.7,56.7,21.6z"/>
	<path class="st0" d="M65.2,26.5c0-0.1,0-0.2,0-0.2C65.2,26.3,65.1,26.4,65.2,26.5z"/>
	<path class="st0" d="M65.2,26.5c0-0.1,0-0.2,0-0.2C65.1,26.3,65.1,26.4,65.2,26.5z"/>
	<path class="st0" d="M76.9,26c0.1,0.1,0.2,0,0.2,0l0,0C77.1,26,77,26,76.9,26z"/>
	<path class="st0" d="M76.9,26c0.1,0,0.2,0,0.2,0C77.1,26,77,26,76.9,26z"/>
	<path class="st0" d="M85.5,21.7c-0.1,0-0.2,0-0.2,0C85.3,21.7,85.4,21.7,85.5,21.7z"/>
	<path class="st0" d="M85.5,21.7c-0.1,0-0.2,0-0.2,0C85.3,21.8,85.4,21.8,85.5,21.7z"/>
	<path class="st0" d="M108.9,27c0-0.1,0-0.2,0.1-0.2c-0.2,0-0.2,0-0.4,0c-3.4,0-6.8,0-10.1,0c-0.4,0-0.4,0-0.4,0.4
		c0,0.9,0,1.8,0,2.8c0,0.5-0.1,0.5,0.5,0.5c3.4,0,6.7,0,10.1,0c0.2,0,0.2,0,0.4,0c-0.1-0.1,0-0.2,0-0.2
		C108.9,29.2,108.9,28.1,108.9,27z"/>
	<path class="st0" d="M108.9,30.4c-0.2,0-0.2,0-0.4,0c-3.4,0-6.7,0-10.1,0c-0.5,0-0.5,0-0.5-0.5c0-0.9,0-1.8,0-2.8
		c0-0.4,0-0.4,0.4-0.4c3.4,0,6.8,0,10.1,0c0.2,0,0.2,0,0.4,0c0,0,0,0,0-0.1l0,0c-0.1,0.1-0.2,0-0.3,0c-3.4,0-6.8,0-10.2,0
		c-0.1,0-0.2,0-0.2,0c-0.2,0-0.2,0.1-0.2,0.2c0,1.1,0,2.2,0,3.2c0,0.2,0.1,0.2,0.2,0.2c0.9,0,1.7,0,2.5,0c2.6,0,5.3,0,7.9,0
		C108.8,30.5,108.8,30.4,108.9,30.4C108.9,30.5,108.9,30.5,108.9,30.4C108.9,30.5,108.9,30.4,108.9,30.4z"/>
	<path class="st0" d="M108.7,30.5c-2.6,0-5.3,0-7.9,0c-0.9,0-1.7,0-2.5,0c-0.2,0-0.2,0-0.2-0.2c0-1.1,0-2.2,0-3.2
		c0-0.2,0.1-0.2,0.2-0.2c0.1,0,0.2,0,0.2,0c3.4,0,6.8,0,10.2,0c0.1,0,0.2,0,0.3,0H109c-3.5,0-7.2,0-10.7,0c-0.2,0-0.2,0.1-0.2,0.2
		c0,1.1,0,2.3,0,3.4c0,0.2,0.1,0.2,0.2,0.2C101.7,30.5,105.2,30.5,108.7,30.5c0.2,0,0.2,0,0.3,0C108.8,30.4,108.8,30.5,108.7,30.5z"
		/>
	<path class="st0" d="M108.9,26.7c-0.1,0.1-0.1,0.2-0.1,0.2c0,1.1,0,2.1,0,3.2c0,0.1,0,0.2,0,0.2l0,0l0,0
		C109,29.2,109,28,108.9,26.7L108.9,26.7L108.9,26.7z"/>
	<path class="st0" d="M108.9,30.4C108.9,30.4,108.9,30.5,108.9,30.4C109,30.5,109,30.5,108.9,30.4L108.9,30.4L108.9,30.4z"/>
	<path class="st0" d="M108.9,26.7L108.9,26.7C109,26.7,109,26.7,108.9,26.7L108.9,26.7L108.9,26.7z"/>
</g>
<g>
</g>
</svg>
