<?xml version="1.0" encoding="utf-8"?>
<!-- Generator: Adobe Illustrator 22.0.1, SVG Export Plug-In . SVG Version: 6.00 Build 0)  -->
<svg version="1.1" id="Layer_1" xmlns="http://www.w3.org/2000/svg" xmlns:xlink="http://www.w3.org/1999/xlink" x="0px" y="0px"
	 viewBox="0 0 130 50" style="enable-background:new 0 0 130 50;" xml:space="preserve">
<style type="text/css">
	.st0{fill:#3765DC;}
</style>
<g>
	<path class="st0" d="M107.8,26.1L107.8,26.1L107.8,26.1z"/>
	<path class="st0" d="M44.5,38.4L44.5,38.4L44.5,38.4L44.5,38.4z"/>
	<path class="st0" d="M125.6,28.8c-0.1-0.7-0.3-1.3-0.6-1.9c-0.8-1.4-2-2.1-3.6-2.4c-2-0.3-3.7,0.3-5.2,1.7c-0.3,0.3-0.4,0.3-0.7,0
		c-1-1.1-2.2-1.7-3.7-1.7c-1.4-0.1-2.6,0.4-3.7,1.4c-0.2,0.1-0.2,0.2-0.3,0.2l0,0l0,0c-0.1,0-0.1-0.1-0.2-0.3
		c-0.3-0.8-1.2-1.3-2.2-1c-0.6,0.2-1.1,0.6-1.3,1.2c-0.1,0.3-0.2,0.7-0.2,1c0,3.5,0,7,0,10.5c0,0.4,0.1,0.9,0.3,1.3
		c0.3,0.7,1.1,1.1,1.8,1.1c0.8,0,1.5-0.5,1.7-1.3c0.1-0.3,0.1-0.6,0.1-0.8c0-2.3,0-4.5,0-6.8c0-0.5,0-1,0.2-1.5c0.3-1,1-1.7,2-1.8
		c1.4-0.1,2.2,0.6,2.6,1.5c0.2,0.5,0.3,0.9,0.3,1.4c0,2.4,0,4.7,0,7.1c0,0.7,0.2,1.4,0.9,1.9c1,0.7,2.4,0.3,2.9-0.9
		c0.1-0.3,0.2-0.7,0.2-1.1c0-2.4,0-4.7,0-7.1c0-0.7,0.2-1.4,0.6-2c0.9-1.2,3.2-1.2,4,0.4c0.3,0.7,0.4,1.4,0.4,2.1c0,2.3,0,4.6,0,6.9
		c0,1,0.6,1.7,1.5,1.9c1,0.2,1.9-0.3,2.2-1.3c0-0.1,0-0.3,0.2-0.4c0-0.1,0-0.2,0-0.2c-0.1-0.1-0.1-0.2-0.1-0.3c0-2.6,0-5.3,0-7.9
		c0-0.1,0-0.2,0.1-0.3c0-0.1,0-0.2,0-0.2C125.5,29.2,125.6,29,125.6,28.8z"/>
	<path class="st0" d="M125.5,38.5c-0.3,1-1.2,1.5-2.2,1.3c-0.9-0.2-1.5-1-1.5-1.9c0-2.3,0-4.6,0-6.9c0-0.7-0.1-1.4-0.4-2.1
		c-0.8-1.6-3-1.6-4-0.4c-0.4,0.6-0.6,1.3-0.6,2c0,2.4,0,4.7,0,7.1c0,0.4-0.1,0.7-0.2,1.1c-0.4,1.1-1.9,1.6-2.9,0.9
		c-0.6-0.5-0.9-1.1-0.9-1.9c0-2.4,0-4.7,0-7.1c0-0.5-0.1-1-0.3-1.4c-0.4-0.9-1.2-1.6-2.6-1.5c-1,0.1-1.7,0.7-2,1.8
		c-0.1,0.5-0.2,1-0.2,1.5c0,2.3,0,4.5,0,6.8c0,0.3,0,0.6-0.1,0.8c-0.3,0.7-0.9,1.2-1.7,1.3c-0.7,0-1.5-0.4-1.8-1.1
		c-0.2-0.4-0.3-0.8-0.3-1.3c0-3.5,0-7,0-10.5c0-0.4,0-0.7,0.2-1c0.2-0.6,0.6-1.1,1.3-1.2c1-0.3,1.9,0.1,2.2,1
		c0.1,0.2,0.1,0.3,0.2,0.3c-0.2-0.7-0.4-1-0.8-1.2c-0.9-0.5-2.4-0.4-3,1.1c-0.1,0.4-0.2,0.7-0.2,1.1c0,3.5,0,7,0,10.6
		c0,0.2,0,0.5,0.1,0.7c0.1,1,0.9,1.7,1.9,1.7c1,0.1,1.8-0.5,2.1-1.5c0.1-0.3,0.1-0.6,0.1-1c0-2.2,0-4.5,0-6.7c0-0.5,0-0.9,0.2-1.4
		c0.3-0.9,1-1.5,1.8-1.6c1.1-0.1,2,0.3,2.4,1.2c0.3,0.5,0.4,1.1,0.4,1.7c0,2.3,0,4.6,0,6.9c0,0.3,0,0.5,0.1,0.8
		c0.2,0.9,0.9,1.6,1.9,1.6c0.9,0,1.7-0.5,2-1.5c0.1-0.3,0.1-0.6,0.1-0.9c0-2.3,0-4.6,0-6.8c0-0.3,0-0.6,0.1-0.9c0.2-1.2,1-2,2.1-2.1
		c1.3-0.1,2.2,0.6,2.5,1.8c0.1,0.4,0.1,0.8,0.1,1.2c0,2.2,0,4.4,0,6.6c0,0.2,0,0.4,0,0.6c0.1,1.1,0.8,1.8,1.9,1.9
		C124.5,40.1,125.3,39.5,125.5,38.5c0.1-0.2,0.1-0.3,0.2-0.4C125.6,38.2,125.6,38.4,125.5,38.5z"/>
	<path class="st0" d="M125.7,29.1c-0.1-1.1-0.5-2-1.1-2.9c-1.3-1.5-3.8-2.2-5.9-1.6c-1.1,0.4-2.1,1-2.9,1.8c-1-1.2-2.3-2-3.9-2.1
		s-3,0.5-4.1,1.6c0.1,0,0.2-0.1,0.3-0.2c1-0.9,2.2-1.4,3.7-1.4c1.5,0.1,2.7,0.6,3.7,1.7c0.3,0.3,0.3,0.3,0.7,0
		c1.5-1.4,3.2-2,5.2-1.7c1.5,0.3,2.8,1,3.6,2.4c0.3,0.6,0.5,1.2,0.6,1.9c0,0.2,0,0.4,0.2,0.4C125.7,29.2,125.7,29.1,125.7,29.1z"/>
	<path class="st0" d="M42,18C42,18.1,42,18.1,42,18c-0.3,0.2-0.6,0.2-0.9,0.5c-0.5,0.4-0.7,1-0.7,1.6c0,1,0,2,0,3
		c0,4.8,0,9.6,0,14.5c0,0.3,0,0.6,0.1,0.9c0.2,0.8,0.9,1.4,1.8,1.4c1,0,1.5-0.4,1.8-1.1c0.1-0.3,0.2-0.4,0.3-0.4l0,0l0,0
		c0.1,0,0.2,0.1,0.4,0.3c0.8,0.8,1.7,1.2,2.8,1.3c2.7,0.2,4.6-1,6-3.2c1.6-2.7,1.5-5.4,0.4-8.2c-0.5-1.2-1.2-2.1-2.2-2.9
		c-1-0.7-2.1-1.1-3.3-1.2c-1.4,0-2.7,0.3-3.9,1.2c-0.1,0.1-0.2,0.2-0.3,0.1s-0.1-0.2-0.1-0.3c0-1.7,0-3.4,0-5c0-0.3,0-0.7-0.1-1
		c-0.2-0.6-0.6-1-1.2-1.2c-0.1,0-0.3,0-0.3-0.2c0,0,0,0-0.1,0C42.5,18.1,42.3,18,42,18z M45.1,29.6c1.1-2,3.8-2,5,0
		c0.5,0.8,0.7,1.7,0.7,2.8c0,1-0.3,2-0.9,2.8c-1.2,1.7-3.5,1.7-4.6-0.1C44.2,33.4,44.1,31.4,45.1,29.6z"/>
	<path class="st0" d="M44.2,38.8c-0.3,0.7-0.9,1.1-1.8,1.1c-0.9,0-1.5-0.6-1.8-1.4c-0.1-0.3-0.1-0.6-0.1-0.9c0-4.8,0-9.6,0-14.5
		c0-1,0-2,0-3c0-0.6,0.2-1.2,0.7-1.6c0.2-0.2,0.6-0.3,0.8-0.4l0,0l0,0l0,0l0,0c-0.2,0-0.5,0.1-0.7,0.2c-0.7,0.5-1,1.2-1,2
		c0,5.8,0,11.6,0,17.4c0,0.2,0,0.5,0.1,0.7c0.2,0.9,0.9,1.6,1.9,1.6c1,0.1,1.7-0.4,2-1.4c0-0.1,0-0.2,0.1-0.3
		C44.4,38.4,44.3,38.5,44.2,38.8z"/>
	<path class="st0" d="M21.5,18.2c-1,0.3-1.3,1.1-1.4,2.1c0,0.1,0,0.2,0,0.3c0,5.6,0,11.3,0,16.9c0,0.3,0,0.7,0.1,1
		c0.3,0.9,1.1,1.5,2,1.4c1-0.1,1.7-0.9,1.8-1.9c0-0.1,0-0.2,0-0.3c0-5.8,0-11.7,0-17.5c0-0.6-0.2-1.2-0.7-1.7
		c-0.2-0.2-0.4-0.3-0.6-0.4c-0.1,0-0.3-0.1-0.3-0.2c0,0,0,0-0.1,0c-0.2,0.1-0.5,0.1-0.7,0c0,0,0,0-0.1,0
		C21.7,18.1,21.6,18.1,21.5,18.2z"/>
	<path class="st0" d="M21.6,18.1c-0.6,0.2-1,0.5-1.3,1.1C20.1,19.6,20,20,20,20.4c0,5.7,0,11.4,0,17.1c0,0.2,0,0.5,0.1,0.7
		c0.1,1,0.9,1.7,1.9,1.7c1,0.1,1.8-0.6,2.1-1.5c0.1-0.3,0.1-0.6,0.1-1c0-5.7,0-11.4,0-17.1c0-0.2,0-0.4,0-0.6
		c-0.1-0.8-0.4-1.4-1.1-1.7c-0.2-0.1-0.3-0.1-0.5-0.2c0,0.2,0.2,0.2,0.3,0.2c0.2,0.1,0.4,0.2,0.6,0.4c0.5,0.4,0.7,1,0.7,1.7
		c0,5.8,0,11.7,0,17.5c0,0.1,0,0.2,0,0.3c-0.1,1-0.8,1.7-1.8,1.9c-0.9,0.1-1.7-0.5-2-1.4c-0.1-0.3-0.1-0.7-0.1-1
		c0-5.6,0-11.3,0-16.9c0-0.1,0-0.2,0-0.3C20.2,19.3,20.5,18.5,21.6,18.1c0,0.1,0.1,0,0.1-0.1C21.7,18.1,21.6,18,21.6,18.1z"/>
	<path class="st0" d="M125.7,29.8c0,2.6,0,5.2,0,7.9c0,0.1,0,0.2,0,0.3c0-2.8,0-5.6,0-8.4C125.7,29.6,125.7,29.7,125.7,29.8z"/>
	<path class="st0" d="M125.7,29.7c0,2.6,0,5.3,0,7.9c0,0.1,0,0.2,0.1,0.3c-0.1-0.1,0-0.2,0-0.3C125.7,35,125.7,32.4,125.7,29.7
		c0-0.1,0-0.2,0.1-0.3C125.7,29.6,125.7,29.7,125.7,29.7z"/>
	<path class="st0" d="M42,18c0.2-0.1,0.5,0,0.7-0.1C42.5,18,42.3,18,42,18L42,18z"/>
	<path class="st0" d="M42,18L42,18L42,18L42,18z"/>
	<path class="st0" d="M42,18L42,18c0.2,0,0.5,0.1,0.7-0.1C42.5,18.1,42.3,18,42,18z"/>
	<path class="st0" d="M42,18L42,18L42,18L42,18L42,18z"/>
	<path class="st0" d="M22.4,18c-0.2,0-0.5,0-0.7,0C22,18,22.2,18,22.4,18z"/>
	<path class="st0" d="M22.4,18c-0.2,0-0.4,0-0.6,0C22,18.1,22.2,18.1,22.4,18z"/>
	<path class="st0" d="M18.7,26.2c-0.2-1-0.9-1.6-1.9-1.6c-0.9-0.1-1.7,0.4-2,1.4c0,0.1,0,0.2-0.1,0.3c-0.7-0.8-1.1-1.2-2-1.5
		c-2.1-0.8-4.6-0.1-6.2,1.6c-1.4,1.5-2.1,3.4-2.2,5.4c-0.1,2.1,0.3,4.1,1.5,5.9c2.1,3.2,7.2,3.2,9,0.5c0,0.4,0,0.8,0,1.2
		c0,1.5-0.9,2.6-2.3,3c-1.2,0.3-2.4,0.1-3.6-0.3c-0.7-0.2-1.4-0.6-2.1-0.7c-0.8-0.2-1.5,0.1-1.9,1c-0.4,0.7-0.3,1.4,0.3,1.9
		C5.6,44.7,6,45,6.5,45.2c2.3,1,4.7,1.3,7.1,0.7c1.6-0.4,3-1.1,4-2.5c1-1.3,1.3-2.9,1.3-4.5c0-4,0-7.9,0-11.9
		C18.8,26.7,18.8,26.4,18.7,26.2z M14.1,34.9c-0.6,1.1-1.5,1.6-2.7,1.5c-1.1-0.1-1.9-0.7-2.5-1.7c-0.4-0.8-0.5-1.6-0.5-2.4
		c0-1,0.2-2,0.8-2.9c1.2-1.7,3.6-1.8,4.7,0.1C15,31.2,15,33.1,14.1,34.9z"/>
	<path class="st0" d="M90.3,27.1c-1.7,2.2-2.1,4.7-1.5,7.3c0.8,3.4,3.6,5.7,7.1,5.7c0.2,0,0.4,0,0.6,0c1.9-0.2,3.5-0.9,4.7-2.4
		c2.4-2.9,2.6-7.1,0.5-10.2C98.9,23.5,93.2,23.3,90.3,27.1z M98.2,35.2c-1.2,1.7-3.7,1.7-4.8-0.1c-1-1.6-1-4.1,0-5.6
		c1.2-1.8,3.7-1.8,4.9,0.1c0.5,0.8,0.7,1.6,0.8,2.9C99,33.2,98.8,34.2,98.2,35.2z"/>
	<path class="st0" d="M57.6,26.6c-2.4,2.5-2.9,6.4-1.3,9.6c1.3,2.6,3.5,3.9,6.4,4c0.3,0,0.5,0,0.7,0c1.9-0.2,3.5-0.9,4.8-2.4
		c2.5-3,2.6-7.5,0.2-10.5C65.6,23.7,60.6,23.4,57.6,26.6z M65.2,35c-1.2,1.9-3.8,1.9-5,0c-1-1.7-0.9-4.1,0.2-5.7
		c1.2-1.6,3.5-1.6,4.6,0c0.7,0.9,0.9,1.9,0.9,3C65.9,33.3,65.7,34.2,65.2,35z"/>
	<path class="st0" d="M28,25.9c-2.1,1.6-3,3.9-3.1,6.5c0,0.6,0.1,1.1,0.2,1.7c0.6,3.5,3.3,6.1,6.9,6.2c2.4,0.1,4.3-0.8,5.8-2.6
		c2.3-2.9,2.4-7.3,0.1-10.3C35.5,24.1,31.1,23.4,28,25.9z M34.7,35.1c-1.3,1.9-4,1.7-5.1-0.4C29.2,34,29,33.2,29,32.3
		c0-1.1,0.2-2,0.8-2.9c1.2-1.7,3.6-1.7,4.8,0C35.7,31,35.8,33.6,34.7,35.1z"/>
	<path class="st0" d="M86.6,35.7c-0.6,0.2-1.1,0.4-1.7,0.6c-1.2,0.3-2.3,0-3.1-1c-1-1.2-1.2-2.6-1-4.1c0.4-2.5,2.4-3.7,4.8-2.8
		c0.4,0.1,0.7,0.3,1.1,0.4c0.7,0.2,1.2,0.1,1.7-0.5c0.3-0.3,0.4-0.7,0.5-1.2c0.1-0.9-0.4-1.5-1.2-2c-0.9-0.5-1.8-0.7-2.8-0.8
		c-2.3-0.3-4.3,0.3-5.9,1.9c-2.3,2.3-2.9,5.1-2.1,8.3c0.9,3.4,3.6,5.5,6.9,5.5c1,0,1.9-0.2,2.7-0.5c0.7-0.2,1.4-0.5,1.9-1.1
		c0.6-0.6,0.7-1.6,0.2-2.2C88.2,35.7,87.5,35.4,86.6,35.7z"/>
	<path class="st0" d="M73.3,35.7c-1.2,0-2.2,1-2.2,2.2s1,2.2,2.2,2.2s2.2-1,2.2-2.2C75.6,36.8,74.5,35.7,73.3,35.7z"/>
</g>
<g>
</g>
</svg>
