<?xml version="1.0" encoding="utf-8"?>
<!-- Generator: Adobe Illustrator 22.0.1, SVG Export Plug-In . SVG Version: 6.00 Build 0)  -->
<svg version="1.1" id="Layer_1" xmlns="http://www.w3.org/2000/svg" xmlns:xlink="http://www.w3.org/1999/xlink" x="0px" y="0px"
	 viewBox="0 0 130 50" style="enable-background:new 0 0 130 50;" xml:space="preserve">
<style type="text/css">
	.st0{fill:#33348E;}
	.st1{fill:#FFF22D;}
</style>
<g>
	<path class="st0" d="M52.8,5.8l24.4,0c3.8,0,7,3.2,7,7v24.4c0,3.8-3.2,7-7,7l-24.4,0c-3.8,0-7-3.2-7-7l0-24.4
		C45.8,8.9,49,5.8,52.8,5.8L52.8,5.8z"/>
	<path class="st1" d="M78.8,23.3H76l-1.1,2.2h2L78.8,23.3L78.8,23.3z M80.7,26.9h-2.7v5.9c0,1.8-1.2,2.3-2.1,2.3
		c-0.8,0-1.8-0.3-1.8-1.9v-6.3h-2.7l0,6.7c0,2.6,1.5,3.7,3.5,3.7c1.4,0,2.5-0.6,3.1-1.7h0V37h2.6L80.7,26.9L80.7,26.9L80.7,26.9z
		 M69.2,29.5c0-2.5-2.6-3-4.1-3c-2.1,0-4.3,0.4-4.6,3.5h2.6c0.1-0.6,0.3-1.4,1.7-1.4c0.7,0,1.8,0.1,1.8,1.2c0,0.6-0.5,0.7-1,0.8
		l-2.4,0.4c-1.7,0.2-3,1.3-3,3.2c0,2.1,1.6,3,3.1,3c1.9,0,2.7-0.8,3.3-1.5c0.1,0.6,0.1,0.7,0.3,1.2l2.3,0c0-1.1,0-1.9,0-2L69.2,29.5
		L69.2,29.5L69.2,29.5z M57.7,23.3H55v3.5h-1.4v1.9h1.4v6.2c0,1.3,0.4,2.2,2.8,2.2h0.4c0.4,0,0.9,0,1.3,0v-2c-0.2,0-0.4,0-0.6,0
		c-1.1,0-1.1-0.2-1.1-0.8l0-5.5h1.7v-1.9h-1.7V23.3L57.7,23.3z M52.3,23.3h-2.9l0,13.7h2.9L52.3,23.3z"/>
	<path class="st0" d="M66.6,33.4v-1.3c-0.3,0.2-0.7,0.4-1.9,0.5c-1,0.2-1.9,0.4-1.9,1.5c0,0.9,0.7,1.2,1.3,1.2
		C65.4,35.4,66.6,34.6,66.6,33.4L66.6,33.4z"/>
</g>
</svg>
