<?xml version="1.0" encoding="utf-8"?>
<!-- Generator: Adobe Illustrator 22.0.1, SVG Export Plug-In . SVG Version: 6.00 Build 0)  -->
<svg version="1.1" id="Layer_1" xmlns="http://www.w3.org/2000/svg" xmlns:xlink="http://www.w3.org/1999/xlink" x="0px" y="0px"
	 viewBox="0 0 130 50" style="enable-background:new 0 0 130 50;" xml:space="preserve">
<style type="text/css">
	.st0{fill:#33348E;}
	.st1{fill:#FFF22D;}
</style>
<g>
	<path class="st0" d="M50.5,2.2h29c4.5,0,8.3,3.8,8.3,8.3v29c0,4.5-3.8,8.3-8.3,8.3h-29c-4.5,0-8.3-3.8-8.3-8.3v-29
		C42.2,5.9,46,2.2,50.5,2.2L50.5,2.2z"/>
	<path class="st1" d="M81.4,23h-3.3l-1.3,2.6h2.4L81.4,23L81.4,23z M83.7,27.3h-3.2v7c0,2.1-1.4,2.7-2.5,2.7c-1,0-2.1-0.4-2.1-2.3
		v-7.5h-3.2v8c0,3.1,1.8,4.4,4.2,4.4c1.7,0,3-0.7,3.7-2l0,0v1.7h3.1L83.7,27.3L83.7,27.3L83.7,27.3z M70,30.4c0-3-3.1-3.6-4.9-3.6
		c-2.5,0-5.1,0.5-5.5,4.2h3.1c0.1-0.7,0.4-1.7,2-1.7c0.8,0,2.1,0.1,2.1,1.4c0,0.7-0.6,0.8-1.2,1l-2.9,0.5c-2,0.2-3.6,1.5-3.6,3.8
		c0,2.5,1.9,3.6,3.7,3.6c2.3,0,3.2-1,3.9-1.8c0.1,0.7,0.1,0.8,0.4,1.4H70c0-1.3,0-2.3,0-2.4L70,30.4L70,30.4L70,30.4z M56.3,23h-3.2
		v4.2h-1.7v2.3h1.7v7.4c0,1.5,0.5,2.6,3.3,2.6h0.5c0.5,0,1.1,0,1.5,0V37c-0.2,0-0.5,0-0.7,0c-1.3,0-1.3-0.2-1.3-1v-6.5h2v-2.3h-2V23
		H56.3z M49.9,23h-3.4v16.3h3.4V23z"/>
	<path class="st0" d="M66.9,35v-1.5c-0.4,0.2-0.8,0.5-2.3,0.6c-1.2,0.2-2.3,0.5-2.3,1.8c0,1.1,0.8,1.4,1.5,1.4
		C65.5,37.4,66.9,36.4,66.9,35L66.9,35z"/>
</g>
<g>
</g>
</svg>
