<?xml version="1.0" encoding="utf-8"?>
<!-- Generator: Adobe Illustrator 22.0.1, SVG Export Plug-In . SVG Version: 6.00 Build 0)  -->
<svg version="1.1" id="Layer_1" xmlns="http://www.w3.org/2000/svg" xmlns:xlink="http://www.w3.org/1999/xlink" x="0px" y="0px"
	 viewBox="0 0 925.5 140.9" style="enable-background:new 0 0 925.5 140.9;" xml:space="preserve">
<style type="text/css">
	.st0{fill:#FFFFFF;}
	.st1{fill:#0194BE;}
</style>
<g>
	<g>
		<path class="st0" d="M399.6,94.7h-10.5V51.6c0-4.2-1.5-6.8-4.5-7.8c-1.1-0.4-4.5-0.6-10-0.6c-2.4,0-4.4,0.8-5.8,2.6
			c-1,1.1-1.5,3.2-1.5,6v42.9h-10.5V51.8c0-4.2-1.3-6.9-3.9-7.9c-1.3-0.5-4.6-0.8-9.7-0.8c-5.5,0-8.3,2.8-8.3,8.5v43.1h-10.5V49.1
			c0-10.9,5.1-16.3,15.5-16.3h9.7c3.1,0,5.6,0.5,7.4,1.4c1.8,0.9,3.6,2.6,5.2,5.1c2.9-4.3,7.3-6.4,12.8-6.4h9.5
			c4.7,0,8.4,1.4,11.1,4.3c2.7,2.9,4.1,6.9,4.1,12L399.6,94.7L399.6,94.7z"/>
		<path class="st0" d="M460.2,79.3c0,5.4-1.7,9.6-5.2,12.4c-2.5,2-6.2,3.1-11.1,3.1h-18.4c-5.6,0-9.8-1.4-12.6-4.1
			c-2.8-2.7-4.2-6.5-4.2-11.4V48.4c0-5.4,1.7-9.6,5.3-12.5c2.6-2.1,6.4-3.2,11.5-3.2h18.4c5.1,0,8.8,1.1,11.3,3.1
			c3.4,2.9,5.1,7.1,5.1,12.6L460.2,79.3L460.2,79.3z M449.7,76.4V51.3c0-2.8-0.8-5-2.5-6.4c-1.4-1.1-3.4-1.7-6.3-1.7h-12.7
			c-2.9,0-5.1,0.6-6.5,1.7c-1.7,1.4-2.6,3.6-2.6,6.4v24.9c0,2.7,0.9,4.8,2.6,6.2c1.4,1.1,3.2,1.6,5.7,1.6h14.2
			c2.4,0,4.2-0.5,5.5-1.6C448.9,81.1,449.7,79,449.7,76.4z"/>
		<path class="st0" d="M521.5,78.1c0,11-5.4,16.5-16.2,16.5h-18.7c-4.8,0-8.8-1.4-12.2-4c-3.3-2.6-5-7-5-12.9V10.8h10.5v21.9h25.5
			c5,0,8.9,1.5,11.8,4.5s4.4,6.9,4.4,11.9L521.5,78.1L521.5,78.1z M510.9,75.5V51.9c0-5.7-2.9-8.5-8.8-8.5h-19.7
			c-1.7,0-2.6,0.8-2.6,2.5v30.3c0,5.3,3.1,7.9,9.4,7.9h13.1c3.2,0,5.6-0.8,7.1-2.3C510.4,80.5,510.9,78.5,510.9,75.5z"/>
		<path class="st0" d="M542.8,16.2c0,1.9-0.7,3.6-2.1,5c-1.4,1.4-3,2.1-5,2.1c-1.9,0-3.6-0.7-4.9-2c-1.4-1.4-2-3-2-4.9
			c0-2,0.7-3.7,2-5.1c1.3-1.4,2.9-2.1,5-2.1c2,0,3.6,0.7,5,2C542.1,12.6,542.8,14.3,542.8,16.2z"/>
		<rect x="530.7" y="32.7" class="st0" width="10.5" height="62"/>
		<path class="st0" d="M601.6,79.3c0,4.5-1.4,8.2-4.4,11.1s-6.6,4.3-11.3,4.3h-25.3v22.1h-10.5V49.2c0-11,5.2-16.5,15.7-16.5h19
			c11.1,0,16.7,5.4,16.7,16.1V79.3L601.6,79.3z M591.1,76.2V50.8c0-5.1-2.9-7.7-8.5-7.7h-13.1c-5.9,0-8.8,2.8-8.8,8.5v29.8
			c0,1.7,1,2.6,2.9,2.6h19.6C588.5,84.1,591.1,81.4,591.1,76.2z"/>
		<path class="st0" d="M621.4,94.7h-10.5V10.9h10.5V94.7z"/>
		<path class="st0" d="M682.2,79.1c0,10.4-5.6,15.6-16.7,15.6h-18.2c-11.1,0-16.7-5.2-16.7-15.6V32.7h10.5V76c0,2.6,0.8,4.6,2.3,6.2
			c1.2,1.2,3.6,1.9,7.3,1.9h11.5c6.3,0,9.5-2.6,9.5-7.9V32.7h10.5V79.1z"/>
		<path class="st0" d="M737,43.1h-28c-2.6,0-4.5,0.5-5.7,1.3c-1.7,1.1-2.6,2.7-2.6,4.8v2.5c0,4.3,2.9,6.5,8.5,6.5h13.8
			c4.1,0,7.3,1.4,10,4.1c2.6,2.7,3.9,6.1,3.9,10.1v7.8c0,3.9-1.3,7.3-3.9,10.4c-1.6,1.8-3.2,3-4.9,3.6c-1.4,0.4-3.5,0.6-6.2,0.6
			h-31.7V84.1h28.9c2.9,0,4.9-0.8,5.9-2.5c0.8-1.1,1.1-3.3,1.1-6.4c0-4.3-2.3-6.4-6.9-6.4H706c-4.5,0-8.2-1.2-11-3.6
			c-3.2-2.6-4.8-6-4.8-10.3v-8.3c0-4.6,1.9-8.4,5.6-11.3c2.2-1.7,5.7-2.6,10.3-2.6h30.8L737,43.1L737,43.1z"/>
	</g>
	<g>
		<g>
			<path class="st1" d="M255.4,131.7h-6c-33.6,0-60.9-27.3-60.9-60.9s27.3-60.9,60.9-60.9c29.7,0,53.9,24.2,53.9,53.9
				c0,27.6-20.9,50.5-47.8,53.6V131.7z M249.4,21.9c-26.9,0-48.8,21.9-48.8,48.8c0,24.9,18.7,45.5,42.8,48.5v-13.7h6
				c23,0,41.8-18.7,41.8-41.8S272.4,21.9,249.4,21.9z"/>
		</g>
		<path class="st1" d="M279.5,58.1c-2.6-1.1-12-1.7-22.7-1.8c-0.2-10.7-0.8-20.1-1.8-22.7c0,0,0,0,0-0.1c-0.3-0.5-1.6-0.6-2.9-0.6
			c-1.7,0-3.5,0-5.2,0c-1.4,0-2.8,0.1-2.9,0.6c-1.1,2.6-1.7,12-1.8,22.7C231.5,56.4,222,57,219.5,58c0,0,0,0-0.1,0
			c-0.5,0.3-0.6,1.6-0.6,2.9c0,1.7,0,3.5,0,5.2c0,1.4,0.1,2.8,0.6,2.9c2.6,1.1,12,1.7,22.7,1.8c0.2,10.7,0.8,20.1,1.8,22.7
			c0,0,0,0,0,0.1c0.3,0.5,1.6,0.6,2.9,0.6c1.7,0,3.5,0,5.2,0c1.4,0,2.8-0.1,2.9-0.6c1.1-2.6,1.7-12,1.8-22.7
			c10.7-0.2,20.1-0.8,22.7-1.8c0,0,0,0,0.1,0c0.5-0.3,0.6-1.6,0.6-2.9c0-1.7,0-3.5,0-5.2C280.1,59.7,280.1,58.3,279.5,58.1z"/>
	</g>
</g>
</svg>
