<?xml version="1.0" encoding="utf-8"?>
<!-- Generator: Adobe Illustrator 21.0.0, SVG Export Plug-In . SVG Version: 6.00 Build 0)  -->
<svg version="1.1" id="Layer_1" xmlns="http://www.w3.org/2000/svg" xmlns:xlink="http://www.w3.org/1999/xlink" x="0px" y="0px"
	 viewBox="0 0 224 50" style="enable-background:new 0 0 224 50;" xml:space="preserve">
<style type="text/css">
	.st0{fill:#FFFFFF;}
	.st1{fill:#5392BA;}
</style>
<g>
	<g>
		<path class="st0" d="M86.2,34.9h-4.3V17.3c0-1.7-0.6-2.8-1.8-3.2c-0.5-0.2-1.8-0.3-4.1-0.3c-1,0-1.8,0.4-2.4,1.1
			c-0.4,0.5-0.6,1.3-0.6,2.5v17.5h-4.3V17.4c0-1.7-0.5-2.8-1.6-3.2c-0.5-0.2-1.9-0.3-4-0.3c-2.3,0-3.4,1.1-3.4,3.4v17.6h-4.3V16.3
			c0-4.4,2.1-6.7,6.3-6.7h3.9c1.3,0,2.3,0.2,3,0.6c0.7,0.4,1.4,1.1,2.1,2.1c1.2-1.8,2.9-2.6,5.2-2.6H80c1.9,0,3.4,0.6,4.5,1.8
			c1.1,1.2,1.7,2.8,1.7,4.9L86.2,34.9L86.2,34.9z"/>
		<path class="st0" d="M111,28.6c0,2.2-0.7,3.9-2.1,5.1c-1,0.8-2.5,1.3-4.5,1.3h-7.5c-2.3,0-4-0.6-5.2-1.7c-1.1-1.1-1.7-2.7-1.7-4.6
			V16c0-2.2,0.7-3.9,2.2-5.1c1-0.9,2.6-1.3,4.7-1.3h7.5c2.1,0,3.6,0.4,4.6,1.3c1.4,1.2,2.1,2.9,2.1,5.2C111,16,111,28.6,111,28.6z
			 M106.7,27.4V17.2c0-1.1-0.3-2-1-2.6c-0.5-0.5-1.4-0.7-2.5-0.7h-5.2c-1.2,0-2.1,0.2-2.6,0.7c-0.7,0.6-1.1,1.5-1.1,2.6v10.2
			c0,1.1,0.4,2,1.1,2.5c0.5,0.4,1.3,0.7,2.3,0.7h5.8c1,0,1.7-0.2,2.2-0.7C106.3,29.3,106.7,28.5,106.7,27.4z"/>
		<path class="st0" d="M136,28.1c0,4.5-2.2,6.8-6.6,6.8h-7.6c-2,0-3.6-0.5-5-1.6c-1.4-1.1-2-2.9-2-5.3V0.7h4.3v8.9h10.4
			c2,0,3.6,0.6,4.8,1.8c1.2,1.2,1.8,2.8,1.8,4.8L136,28.1L136,28.1z M131.7,27.1v-9.6c0-2.3-1.2-3.5-3.6-3.5h-8
			c-0.7,0-1.1,0.3-1.1,1v12.4c0,2.2,1.3,3.2,3.8,3.2h5.3c1.3,0,2.3-0.3,2.9-1C131.4,29.1,131.7,28.3,131.7,27.1z"/>
		<path class="st0" d="M144.7,2.9c0,0.8-0.3,1.4-0.9,2c-0.6,0.6-1.2,0.9-2,0.9s-1.4-0.3-2-0.8s-0.8-1.2-0.8-2c0-0.8,0.3-1.5,0.8-2.1
			c0.5-0.6,1.2-0.9,2-0.9c0.8,0,1.5,0.3,2,0.8C144.4,1.4,144.7,2.1,144.7,2.9z"/>
		<rect x="139.7" y="9.6" class="st0" width="4.3" height="25.3"/>
		<path class="st0" d="M168.7,28.6c0,1.9-0.6,3.4-1.8,4.5c-1.2,1.2-2.7,1.8-4.6,1.8H152v9h-4.3V16.3c0-4.5,2.1-6.7,6.4-6.7h7.8
			c4.5,0,6.8,2.2,6.8,6.6L168.7,28.6L168.7,28.6z M164.4,27.3V17c0-2.1-1.2-3.1-3.5-3.1h-5.3c-2.4,0-3.6,1.1-3.6,3.4v12.2
			c0,0.7,0.4,1.1,1.2,1.1h8C163.3,30.6,164.4,29.5,164.4,27.3z"/>
		<path class="st0" d="M176.8,34.9h-4.3V0.7h4.3V34.9z"/>
		<path class="st0" d="M201.5,28.5c0,4.2-2.3,6.4-6.8,6.4h-7.4c-4.5,0-6.8-2.1-6.8-6.4V9.6h4.3v17.7c0,1,0.3,1.9,1,2.5
			c0.5,0.5,1.5,0.8,3,0.8h4.7c2.6,0,3.9-1.1,3.9-3.2V9.6h4.3L201.5,28.5L201.5,28.5z"/>
		<path class="st0" d="M224,13.8h-11.4c-1,0-1.8,0.2-2.3,0.5c-0.7,0.5-1.1,1.1-1.1,1.9v1c0,1.8,1.2,2.6,3.5,2.6h5.7
			c1.6,0,3,0.6,4.1,1.7c1.1,1.1,1.6,2.5,1.6,4.1v3.2c0,1.6-0.5,3-1.6,4.2c-0.6,0.7-1.3,1.2-2,1.5c-0.6,0.2-1.4,0.3-2.5,0.3h-12.9
			v-4.3h11.8c1.2,0,2-0.3,2.4-1c0.3-0.5,0.5-1.3,0.5-2.6c0-1.8-0.9-2.6-2.8-2.6h-5.4c-1.8,0-3.3-0.5-4.5-1.5c-1.3-1-2-2.4-2-4.2
			v-3.4c0-1.9,0.8-3.4,2.3-4.6c0.9-0.7,2.3-1.1,4.2-1.1H224L224,13.8L224,13.8z"/>
	</g>
	<g>
		<g>
			<path class="st1" d="M27.4,50h-2.5C11.2,50,0,38.8,0,25.1S11.2,0.3,24.9,0.3c12.1,0,22,9.9,22,22c0,11.3-8.6,20.6-19.5,21.8
				L27.4,50L27.4,50z M24.9,5.2C13.9,5.2,5,14.1,5,25.1c0,10.2,7.6,18.6,17.5,19.8v-5.6h2.5c9.4,0,17.1-7.6,17.1-17.1
				C42,12.9,34.3,5.2,24.9,5.2z"/>
		</g>
		<path class="st1" d="M37.2,20c-1.1-0.4-4.9-0.7-9.3-0.8c-0.1-4.4-0.3-8.2-0.8-9.3c0,0,0,0,0,0c-0.1-0.2-0.6-0.2-1.2-0.2
			c-0.7,0-1.4,0-2.1,0c-0.6,0-1.1,0-1.2,0.2c-0.4,1.1-0.7,4.9-0.8,9.3c-4.4,0.1-8.2,0.3-9.3,0.8c0,0,0,0,0,0
			c-0.2,0.1-0.2,0.6-0.2,1.2c0,0.7,0,1.4,0,2.1c0,0.6,0,1.1,0.2,1.2c1.1,0.4,4.9,0.7,9.3,0.8c0.1,4.4,0.3,8.2,0.8,9.3c0,0,0,0,0,0
			c0.1,0.2,0.6,0.2,1.2,0.2c0.7,0,1.4,0,2.1,0c0.6,0,1.1,0,1.2-0.3c0.4-1.1,0.7-4.9,0.8-9.3c4.4-0.1,8.2-0.3,9.3-0.8c0,0,0,0,0,0
			c0.2-0.1,0.2-0.6,0.2-1.2c0-0.7,0-1.4,0-2.1C37.5,20.6,37.4,20.1,37.2,20z"/>
	</g>
</g>
</svg>
