<?xml version="1.0" encoding="utf-8"?>
<!-- Generator: Adobe Illustrator 22.0.1, SVG Export Plug-In . SVG Version: 6.00 Build 0)  -->
<svg version="1.1" id="Layer_1" xmlns="http://www.w3.org/2000/svg" xmlns:xlink="http://www.w3.org/1999/xlink" x="0px" y="0px"
	 viewBox="0 0 130 50" style="enable-background:new 0 0 130 50;" xml:space="preserve">
<style type="text/css">
	.st0{fill:url(#SVGID_1_);}
	.st1{fill:#FFFFFF;}
</style>
<g>
	
		<linearGradient id="SVGID_1_" gradientUnits="userSpaceOnUse" x1="50.2129" y1="12.8488" x2="82.7573" y2="45.3932" gradientTransform="matrix(1 0 0 -1 0 51.4646)">
		<stop  offset="0" style="stop-color:#00CDFF"/>
		<stop  offset="5.700000e-02" style="stop-color:#28A4FF"/>
		<stop  offset="0.119" style="stop-color:#4C7FFF"/>
		<stop  offset="0.184" style="stop-color:#6A60FF"/>
		<stop  offset="0.252" style="stop-color:#8248FF"/>
		<stop  offset="0.324" style="stop-color:#9237FF"/>
		<stop  offset="0.402" style="stop-color:#9C2DFF"/>
		<stop  offset="0.5" style="stop-color:#9F2AFF"/>
		<stop  offset="0.613" style="stop-color:#A12AFC"/>
		<stop  offset="0.703" style="stop-color:#A72AF2"/>
		<stop  offset="0.786" style="stop-color:#B229E1"/>
		<stop  offset="0.864" style="stop-color:#C129C9"/>
		<stop  offset="0.938" style="stop-color:#D528AB"/>
		<stop  offset="1" style="stop-color:#E9278B"/>
	</linearGradient>
	<path class="st0" d="M43.6,30.4c6.1,9.2,18.8,22.3,33.2,16.1C93,39.5,87.8,15.6,83,7.2c-3.2-5.6-6.8-7.5-12.8-2.4
		c-6.7,5.7-13,6.1-18.9,5.6C34.7,8.9,36,18.9,43.6,30.4L43.6,30.4z"/>
	<path class="st1" d="M70.2,20.1c1.1,0,2.1-0.9,2.1-2.1c0-1.1-0.9-2.1-2.1-2.1c-1.1,0-2.1,0.9-2.1,2.1
		C68.2,19.2,69.1,20.1,70.2,20.1z M70.2,21.6c-1.2,0-2.1,2.8-2.1,6.2s0.9,6.2,2.1,6.2c1.2,0,2.1-2.8,2.1-6.2
		C72.3,24.4,71.4,21.6,70.2,21.6z M60.9,21.6c-3.5,0-5.8,2.7-5.8,6.2c0,3.4,2.3,6.2,5.8,6.2c3.5,0,5.7-2.7,5.7-6.2
		S64.3,21.6,60.9,21.6L60.9,21.6z M60.9,31.1c-1.6,0-2.5-1.6-2.5-3.3c0-1.7,0.9-3.2,2.5-3.2c1.6,0,2.5,1.6,2.5,3.2
		C63.3,29.4,62.4,31.1,60.9,31.1z"/>
</g>
<g>
</g>
</svg>
