<?xml version="1.0" encoding="utf-8"?>
<!-- Generator: Adobe Illustrator 22.0.1, SVG Export Plug-In . SVG Version: 6.00 Build 0)  -->
<svg version="1.1" id="Layer_1" xmlns="http://www.w3.org/2000/svg" xmlns:xlink="http://www.w3.org/1999/xlink" x="0px" y="0px"
	 viewBox="0 0 130 50" style="enable-background:new 0 0 130 50;" xml:space="preserve">
<style type="text/css">
	.st0{fill:#892BFD;}
	.st1{fill:#8B2BF8;}
	.st2{fill:#902AF0;}
	.st3{fill:#832AFD;}
	.st4{fill:#9529E5;}
	.st5{fill:#8E2AF4;}
	.st6{fill:#9329EA;}
	.st7{fill:#922AEC;}
	.st8{fill:#8A2AFB;}
	.st9{fill:#9F28D3;}
	.st10{fill:#9C29D8;}
	.st11{fill:#A328CC;}
	.st12{fill:#7E2AFD;}
	.st13{fill:#9A29DD;}
	.st14{fill:#6F45FE;}
	.st15{fill:#8A2AFA;}
	.st16{fill:#6950FE;}
	.st17{fill:#645CFE;}
	.st18{fill:#6C4AFE;}
	.st19{fill:#8A2BFA;}
	.st20{fill:#9829E0;}
	.st21{fill:#AA28BD;}
	.st22{fill:#6655FE;}
	.st23{fill:#A528C8;}
	.st24{fill:#7B30FD;}
	.st25{fill:#5B76FE;}
	.st26{fill:#743DFE;}
	.st27{fill:#A827C4;}
	.st28{fill:#B127B1;}
	.st29{fill:#AF27B6;}
	.st30{fill:#5A7DFE;}
	.st31{fill:#7240FE;}
	.st32{fill:#7835FD;}
	.st33{fill:#B427AC;}
	.st34{fill:#B827A7;}
	.st35{fill:#5D6FFE;}
	.st36{fill:#5E6CFE;}
	.st37{fill:#5A84FE;}
	.st38{fill:#BB27A0;}
	.st39{fill:#5C99FE;}
	.st40{fill:#5FA5FE;}
	.st41{fill:#5F69FE;}
	.st42{fill:#BD279C;}
	.st43{fill:#733FFE;}
	.st44{fill:#C32794;}
	.st45{fill:#7639FD;}
	.st46{fill:#C02799;}
	.st47{fill:#61ACFE;}
	.st48{fill:#AC27BA;}
	.st49{fill:#64B5FE;}
	.st50{fill:#5A8CFE;}
	.st51{fill:#5A90FE;}
	.st52{fill:#5D9EFE;}
	.st53{fill:#C8278A;}
	.st54{fill:#C5278F;}
	.st55{fill:#67BAFE;}
	.st56{fill:#69BFFE;}
	.st57{fill:#6CC4FE;}
	.st58{fill:#A31DC5;}
	.st59{fill:#6163FE;}
	.st60{fill:#AE1FB4;}
	.st61{fill:#FEFEFE;}
	.st62{fill:#862AFD;}
	.st63{fill:#841DFD;}
	.st64{fill:#8113FD;}
	.st65{fill:#7C16FD;}
	.st66{fill:#8324FD;}
	.st67{fill:#9A17D3;}
	.st68{fill:#5A52FE;}
	.st69{fill:#5366FE;}
	.st70{fill:#763AFD;}
	.st71{fill:#5A8AFE;}
	.st72{fill:#5B92FE;}
</style>
<g id="WDLxYt.tif">
	<g>
		<path class="st0" d="M77.9,10.2c0.7,0.5,1.4,1.2,2,1.8c0.8,0.9,1.6,1.8,2.2,2.9c-0.2,0.4-0.4,0.7-0.8,1c-0.3,0.2-0.5,0.5-0.8,0.8
			c-0.5,0.5-1,1.1-1.6,1.5c-0.4,0.3-0.7,0.6-1,1c-0.3,0.5-0.8,0.9-1.2,1.3c-0.2,0.2-0.4,0.4-0.6,0.6c-0.4,0.5-0.9,0.8-1.3,1.3
			c-0.1,0.2-0.4,0.3-0.5,0.5c-0.5,0.6-1,1.1-1.6,1.6c-0.2,0.1-0.2,0.3-0.1,0.4c0,0.2,0.2,0.4,0,0.6c-0.2-0.1-0.2-0.3-0.2-0.4
			c-0.1-0.6-0.3-1.1-0.7-1.5c-0.5-0.7-1-0.7-1.5,0c-0.4,0.6-0.6,1.3-0.8,2.1c-0.1,0.5-0.2,1-0.2,1.5c0,0.1,0,0.3-0.2,0.3
			c-0.1-0.2,0-0.4,0-0.6c0.1,0.4-0.1,0.6-0.3,0.9c-0.2,0.2-0.4,0.3-0.6,0.5c-0.1,0.1-0.2,0.2-0.3-0.1c0,0,0,0,0-0.1c0,0,0,0.1,0,0.1
			c0.1,0.4,0.1,0.8,0.1,1.2c0,0.1,0,0.2-0.1,0.2c-0.1,0.1-0.1,0-0.2-0.1c-0.1-0.5-0.1-1.1,0-1.6c0-0.1,0.1-0.2,0.1-0.3
			c0,0-0.1,0,0,0c0,0,0,0,0,0c0,0.1,0,0.1,0,0.2c-0.2,0-0.2-0.2-0.2-0.3c-0.2-1.1-0.7-2.1-1.5-3c-0.3-0.3-0.7-0.6-1.1-0.8
			c-0.1-0.1-0.3-0.1-0.3-0.3c0.1-0.1,0.1-0.1,0.2-0.1c0.1,0,0.1,0.1,0.2,0c0.5-0.4,1-0.9,1.5-1.4c0.7-0.7,1.2-1.4,1.9-2
			c0.1-0.1,0.3-0.2,0.4-0.3c0.1-0.1,0.2,0,0.2,0.1c-0.1-0.3,0-0.5,0.1-0.8c0-0.1,0.1-0.3,0.3-0.1c0.1,0.2-0.1,0.3-0.1,0.5
			c-0.2,0.8,0.2,1.5,0.8,2c0.6,0.4,1.6,0.3,2.1-0.2c0.7-0.6,0.8-1.5,0.4-2.2c-0.4-0.8-1.2-1.1-2-0.9c-0.1,0-0.3,0.1-0.4,0
			c0-0.2,0.2-0.2,0.4-0.3c0.2,0,0.5,0.1,0.7,0c-0.1,0-0.3,0-0.4,0c-0.2-0.1,0-0.3,0.1-0.3c0.5-0.2,0.6-0.6,1-0.9
			c0.6-0.5,1.1-1,1.5-1.5c0.4-0.4,0.9-0.7,1.2-1.2c0.1-0.2,0.3-0.3,0.4-0.4c0.2-0.2,0.4-0.4,0.6-0.6c0.3-0.3,0.6-0.6,0.9-0.9
			c0.1-0.1,0.2-0.1,0.2-0.2C77,10.9,77.5,10.6,77.9,10.2z"/>
		<path class="st0" d="M57.3,40.3c-1.3-0.8-2.6-1.7-3.8-2.7c-0.8-0.6-1.6-1.3-2.2-2.1c-0.2-0.1-0.2-0.3,0-0.4
			c0.4-0.3,0.7-0.8,1.1-1.1c0.6-0.4,0.9-1.1,1.5-1.5c0.6-0.5,1.1-1.2,1.8-1.7c0.3-0.2,0.4-0.6,0.7-0.8c0.2-0.2,0.4-0.3,0.5-0.5
			c0.2-0.2,0.3-0.2,0.4,0.1c0.2,0.8,0.5,1.5,0.9,2.2c0.9,1.3,2.1,2,3.7,2.2c0.5,0,0.9,0,1.3,0c0.1,0,0.2,0,0.3,0
			c0.1,0.2-0.1,0.2-0.2,0.2c-0.4,0.1-0.8,0-1.2,0c0.1,0,0.2,0,0.3,0c0.1,0,0.2-0.1,0.3,0.1c0,0.1,0,0.2-0.1,0.3
			c-0.4,0.4-0.7,0.9-1.1,1.2c-0.3,0.3-0.6,0.7-1,0.9c-0.4,0.3-0.7,0.6-1,0.9c-0.1,0.1-0.2,0.2-0.3,0.4c-0.1,0.2-0.2,0.3-0.3,0.4
			c-0.7,0.4-1,1.1-1.7,1.5c-0.1,0.1,0,0.1,0,0.1C57.3,40.2,57.3,40.2,57.3,40.3z"/>
		<path class="st1" d="M50.1,34.3c-0.3-0.3-0.6-0.7-0.9-1.1c-0.1-0.3,0.1-0.6,0.4-0.8c0.7-0.5,1.3-1.1,1.9-1.7
			c0.3-0.3,0.5-0.6,0.7-0.9c0.2-0.3,0.5-0.4,0.7-0.7c0.4-0.4,0.7-0.8,1.2-1c0,0,0,0,0.1,0c0.3-0.7,1.1-1,1.5-1.6
			c0.2-0.3,0.5-0.5,0.8-0.8c0.5-0.5,1-0.9,1.4-1.4c0.3-0.3,0.7-0.7,1.1-1c0.3-0.2,0.5-0.5,0.7-0.8c0.5-0.4,0.8-0.9,1.3-1.3
			c0.4-0.4,0.8-0.8,1.2-1.2c0.5-0.6,1-1.2,1.6-1.7c0.6-0.5,1-1.1,1.6-1.6c0.4-0.4,0.9-0.8,1.2-1.2c0.4-0.5,0.8-0.9,1.3-1.2
			c0.5-0.4,0.8-1,1.4-1.4c0.1,0,0.1-0.1,0.2-0.1c0.6-0.8,1.3-1.3,2-2c0.5-0.4,0.9-1,1.4-1.4c0.6-0.5,1-1.1,1.6-1.6
			c0.1,0,0.2,0,0.3,0c0.3,0.1,0.6,0.3,0.9,0.5c0.1,0.1,0.1,0.2,0,0.3c-0.2,0.2-0.3,0.6-0.6,0.7c-0.3,0.2-0.5,0.5-0.8,0.8
			c-0.5,0.5-0.9,1-1.4,1.4c-0.4,0.3-0.7,0.7-1,1c-0.5,0.4-0.8,0.9-1.3,1.3c-0.2,0.2-0.4,0.5-0.6,0.7c-0.6,0.6-1.2,1.2-1.8,1.7
			c-0.3,0.2-0.4,0.5-0.7,0.8c-0.5,0.6-1.1,1-1.7,1.6c-0.4,0.4-0.6,0.8-1,1.1c-0.1,0.1-0.2,0.3-0.4,0.4c-0.1,0-0.2,0.1-0.2,0.2
			c-0.7,0.8-1.5,1.5-2.2,2.2c0,0.1,0.1,0,0.1,0c0.1,0,0.1,0,0.2,0.1c0,0.2-0.2,0.1-0.3,0.1c-1.6,0.2-2.8,1-3.6,2.4
			c-0.2,0.4-0.4,0.8-0.5,1.2c-0.1,0.2-0.1,0.5-0.3,0.6c0-0.1-0.1-0.1-0.2-0.1c-0.4,0.4-0.8,0.7-1.2,1.2c-0.2,0.2-0.4,0.4-0.6,0.6
			c-0.2,0.2-0.4,0.4-0.6,0.6c-0.1,0.2-0.2,0.3-0.4,0.4c-0.7,0.5-1.3,1.2-1.9,1.9c-0.1,0.1-0.3,0.3-0.4,0.4c-0.7,0.6-1.1,1.3-1.8,1.8
			C49.9,34.1,50.2,34.2,50.1,34.3z"/>
		<path class="st2" d="M48.3,32.1c-0.3-0.4-0.6-0.7-0.8-1.1c0-0.1-0.1-0.1,0-0.2c0.5-0.2,0.7-0.5,1-0.9c0.9-1,1.8-1.8,2.7-2.7
			c0.7-0.7,1.4-1.4,2.1-2.1c1-1,1.9-1.9,2.9-2.9c0.7-0.7,1.4-1.4,2.1-2.2c0.7-0.6,1.3-1.3,2-1.9c0.6-0.7,1.3-1.3,1.9-2
			c1.2-1.2,2.4-2.5,3.7-3.7c0.9-0.8,1.7-1.7,2.6-2.5c0.5-0.5,1-1,1.5-1.5c0.5-0.6,1.1-1.1,1.6-1.6c0.1-0.2,0.3-0.2,0.5-0.1
			c0.3,0.1,0.6,0.2,0.9,0.4c0,0.3-0.2,0.5-0.4,0.7c-0.4,0.4-0.9,0.8-1.3,1.2c-0.4,0.5-0.9,0.9-1.3,1.4c-0.9,0.9-1.8,1.7-2.6,2.6
			c-0.6,0.7-1.3,1.3-2,2c-0.5,0.5-1,1-1.5,1.5c-0.8,0.8-1.7,1.5-2.4,2.4c-0.5,0.6-1.2,1.2-1.8,1.7c-0.7,0.7-1.3,1.3-1.9,2
			c-0.2,0.2-0.4,0.4-0.6,0.6c-0.6,0.5-1,1.2-1.7,1.6c-0.3,0.2-0.5,0.5-0.7,0.8c-1,0.9-1.9,1.9-2.8,2.8c-0.5,0.4-0.9,0.9-1.3,1.3
			c-0.6,0.6-1.2,1.1-1.7,1.7C48.7,31.6,48.4,31.8,48.3,32.1z"/>
		<path class="st3" d="M72.7,25.4C72.7,25.4,72.7,25.4,72.7,25.4c-0.3-0.9,0.2-1.3,0.8-1.7c0.3-0.3,0.5-0.7,0.8-0.9
			c0.5-0.3,0.8-0.8,1.2-1.2c0.3-0.3,0.6-0.5,0.8-0.9c0.1-0.2,0.4-0.4,0.6-0.5c0.6-0.5,1-1.3,1.7-1.8c0.5-0.4,1.1-0.9,1.5-1.4
			c0.3-0.4,0.6-0.7,1-1c0.4-0.3,0.7-0.7,1-1.1c0.6,0.8,1.1,1.7,1.5,2.7c-0.9,0.9-1.8,1.7-2.6,2.6c-1.8,1.9-3.7,3.7-5.5,5.5
			c-0.6,0.6-1.3,1.2-1.9,1.9c-0.1,0.1-0.2,0.2-0.3,0.2c-0.2,0.1-0.3,0.1-0.4-0.1c0,0,0-0.1,0-0.1c0-0.2,0-0.4-0.1-0.7
			c0,0-0.1-0.1-0.1-0.1C72.7,26.4,72.5,25.9,72.7,25.4z"/>
		<path class="st3" d="M57.3,40.3c0-0.2-0.2-0.1-0.1-0.2c0.3-0.4,0.7-0.8,1-1.2c0.2-0.3,0.4-0.4,0.7-0.6c0.3-0.2,0.4-0.6,0.7-0.9
			c0.2-0.2,0.4-0.5,0.7-0.6c0.3-0.1,0.4-0.4,0.6-0.6c0.3-0.3,0.7-0.5,0.9-0.9c0.2-0.3,0.5-0.5,0.7-0.8c0-0.1,0.1-0.1,0.1-0.2
			c0-0.1-0.1-0.1-0.2-0.1c-0.2,0-0.3,0-0.6-0.1c0.5,0,1,0,1.4-0.1c0.1,0,0.2,0,0.3-0.1c0.1-0.2,0.3-0.2,0.5-0.2
			c1.5-0.5,2.5-1.5,3.1-2.9c0.1-0.2,0.1-0.3,0.3-0.4c0.1,0.1,0.1,0.2,0.1,0.3c0.2-0.1,0.3-0.2,0.4-0.4c0.2-0.3,0.4-0.5,0.7-0.7
			c0.2-0.1,0.2-0.3,0.2-0.5c0-0.5,0-1.1,0-1.6c0-0.1,0-0.2,0.1-0.3c0.1-0.1,0.1-0.1,0.2,0c0.1,0.8,0,1.6,0,2.4c0,0.3,0,0.6,0,0.8
			c0.1,0.2,0,0.4,0.2,0.6c0.1,0.1,0.1,0.3,0.1,0.4c0,0.3-0.2,0.5-0.4,0.6c-1.7,1.7-3.4,3.4-5.1,5.1c-1.3,1.3-2.7,2.7-4,4
			c-0.1,0.1-0.2,0.2-0.4,0.3C58.8,41.2,58,40.8,57.3,40.3z"/>
		<path class="st4" d="M69.5,5.8c0.4,0,0.7,0.2,1.1,0.3c-0.5,0.4-0.9,0.9-1.4,1.3c-0.7,0.7-1.5,1.4-2.2,2.1
			c-0.6,0.6-1.1,1.2-1.7,1.7c-0.7,0.6-1.3,1.3-2,1.9c-0.5,0.4-0.9,0.9-1.4,1.4c-0.8,0.8-1.6,1.6-2.4,2.4c-0.6,0.6-1.2,1.1-1.7,1.8
			c-0.2,0.2-0.4,0.3-0.6,0.5c-0.9,0.9-1.8,1.8-2.7,2.7c-0.8,0.8-1.5,1.6-2.4,2.4c-0.9,0.8-1.6,1.7-2.5,2.4c-0.4,0.4-0.8,0.8-1.2,1.2
			c-0.6,0.6-1.2,1.1-1.8,1.7c-0.2-0.3-0.4-0.6-0.5-0.9c0-0.1,0.1-0.2,0.1-0.2c0.5-0.5,1-1,1.6-1.5c0.3-0.3,0.7-0.7,1-1
			c0.2-0.3,0.5-0.4,0.7-0.7c1-1,2-2,3-3c0.8-0.9,1.7-1.8,2.6-2.6c0.7-0.7,1.3-1.4,2-2c0.8-0.7,1.5-1.5,2.2-2.3
			c0.9-0.9,1.8-1.8,2.7-2.7c0.6-0.5,1.1-1.1,1.6-1.6c0.5-0.5,1-1,1.6-1.5C66.3,8.8,67.2,8,68,7.1c0.4-0.4,0.9-0.8,1.3-1.3
			C69.4,5.8,69.5,5.8,69.5,5.8z"/>
		<path class="st5" d="M74.3,7.8c-0.3,0.4-0.7,0.7-1,1.1c-0.2,0.2-0.5,0.4-0.7,0.7c-0.1,0.1-0.2,0.2-0.3,0.3
			c-0.3,0.5-0.9,0.8-1.2,1.3c-0.3,0.3-0.6,0.6-0.9,0.9c-0.4,0.4-0.6,1-1.2,1.2c-0.2,0.1-0.2,0.3-0.3,0.4c-0.6,0.5-1.1,1-1.6,1.6
			c-0.4,0.4-0.8,0.7-1,1.1c-0.2,0.2-0.4,0.3-0.6,0.5c-0.4,0.4-0.7,0.9-1.2,1.2c-0.7,0.5-1.3,1.3-1.9,2c-0.4,0.4-0.9,0.6-1.2,1.2
			c0,0.1-0.2,0.2-0.3,0.2c-0.2,0.1-0.4,0.3-0.5,0.5c-0.1,0.3-0.4,0.4-0.6,0.6c-0.3,0.3-0.5,0.7-0.9,0.9c0,0-0.1,0.1-0.1,0.1
			c-0.3,0.5-0.9,0.8-1.3,1.3c-0.3,0.4-0.7,0.7-1.1,1c-0.2,0.2-0.5,0.4-0.6,0.6c-0.3,0.5-0.7,0.7-1.1,1.1c-0.1,0.1-0.2,0.2-0.3,0.4
			c-0.1,0.2-0.2,0.3-0.4,0.3c-0.2,0-0.2,0.3-0.4,0.4c-0.4,0.3-0.8,0.7-1.2,1.1c-0.3,0.3-0.6,0.5-0.8,0.9c-0.2,0.4-0.5,0.6-0.8,0.8
			c-0.4,0.4-0.8,0.8-1.3,1.1c-0.2,0.1-0.3,0.4-0.4,0.7c-0.2-0.2-0.4-0.5-0.6-0.8c0.1-0.3,0.3-0.4,0.5-0.6c0.5-0.4,1-0.9,1.4-1.4
			c0.7-0.7,1.4-1.3,2.1-2.1c0.4-0.4,0.9-0.9,1.3-1.3c0.4-0.5,0.9-0.9,1.3-1.3c0.8-0.8,1.6-1.6,2.4-2.4c0.4-0.4,0.7-0.8,1.1-1.1
			c0.4-0.4,0.8-0.8,1.2-1.1c0.8-0.8,1.6-1.6,2.4-2.4c1-1,2.1-2.1,3.1-3.1c1-1,2.1-2.1,3.1-3.1c0.8-0.8,1.5-1.6,2.3-2.4
			C71.4,9.6,72,9,72.6,8.4c0.3-0.3,0.6-0.7,1-0.9c0.1,0,0.2,0.1,0.4,0.1c0.1,0,0.1,0.1,0.2,0.1C74.2,7.7,74.3,7.7,74.3,7.8z"/>
		<path class="st6" d="M46.8,29.8c0.1-0.3,0.3-0.4,0.5-0.6c0.8-0.8,1.6-1.5,2.4-2.3c0.4-0.5,0.9-0.9,1.4-1.4
			c0.5-0.4,0.9-0.9,1.3-1.3c0.7-0.6,1.3-1.4,2-2.1c0.7-0.6,1.3-1.2,1.9-1.9c0.4-0.4,0.8-0.8,1.3-1.2c0.2-0.1,0.3-0.3,0.4-0.4
			c0.7-0.8,1.6-1.6,2.3-2.3c0.7-0.7,1.3-1.4,2-2c0.6-0.5,1.1-1.1,1.6-1.6c0.7-0.7,1.4-1.3,2-2.1c0.3-0.4,0.7-0.7,1-1.1
			c0.8-0.8,1.6-1.5,2.4-2.3c0.3-0.3,0.7-0.6,0.9-1c0.1-0.1,0.2,0,0.3-0.1c0.2,0.1,0.4,0.1,0.6,0.2c-0.2,0.5-0.6,0.8-1,1.1
			c-0.9,0.9-1.9,1.9-2.8,2.8c-1.2,1.2-2.4,2.5-3.7,3.6c-1,0.9-1.9,1.9-2.9,2.9c-1.3,1.3-2.6,2.7-4,4c-1.9,1.9-3.8,3.8-5.7,5.7
			c-1.2,1.2-2.5,2.4-3.7,3.7c-0.1,0.1-0.1,0.3-0.3,0.4C47.1,30.3,46.9,30.1,46.8,29.8z"/>
		<path class="st7" d="M47.2,30.5c0-0.2,0.2-0.4,0.3-0.5c1.2-1.2,2.4-2.4,3.6-3.6c1.4-1.4,2.9-2.9,4.3-4.3c1.3-1.3,2.6-2.6,3.9-3.9
			c0.6-0.6,1.2-1.3,1.9-2c1.4-1.3,2.7-2.7,4.1-4c0.9-0.9,1.9-1.9,2.8-2.8c0.9-0.9,1.8-1.8,2.6-2.6c0.2-0.1,0.2-0.4,0.4-0.5
			c0.3,0.1,0.6,0.2,0.9,0.3c-0.2,0-0.3,0.1-0.5,0.2c-0.6,0.7-1.3,1.3-1.9,1.9c-0.7,0.7-1.4,1.4-2.1,2.1c-0.8,0.8-1.6,1.5-2.4,2.4
			c-0.1,0.1-0.3,0.3-0.4,0.4c-1.3,1.3-2.5,2.5-3.8,3.8c-0.6,0.6-1.3,1.2-1.8,1.8c-0.1,0.1-0.3,0.2-0.4,0.4c-1.3,1.3-2.6,2.6-3.9,3.9
			c-1.1,1-2.2,2.1-3.2,3.2c-0.9,1-1.9,1.9-2.8,2.8c-0.3,0.3-0.6,0.7-0.9,1c-0.2,0.2-0.4,0.2-0.5,0.3C47.3,30.9,47.3,30.7,47.2,30.5z
			"/>
		<path class="st8" d="M69.3,18.6c-0.3,0.2-0.2,0.5-0.3,0.8c0,0.1,0,0.2,0,0.3c0-0.3-0.1-0.3-0.3-0.1c-0.5,0.5-1.1,0.9-1.5,1.5
			c-0.2,0.3-0.6,0.6-0.9,0.9c-0.2,0.3-0.5,0.5-0.8,0.7C65.4,23,65,23,65,23.3c0,0-0.2,0-0.2-0.1c0-0.1-0.1,0-0.2-0.1
			c0-0.3-0.3-0.3-0.5-0.5c-0.1-0.1-0.2,0.2-0.3,0.2c-0.1,0.1-0.3,0-0.4,0c0,0-0.1,0-0.1,0c-0.3-0.2-0.3-0.4,0-0.6
			c0.3-0.2,0.5-0.4,0.9-0.4c0.1,0,0.2,0,0.3-0.1c0,0,0-0.1,0,0c0,0,0,0,0,0c-0.2,0.1-0.3,0.1-0.4,0c-0.1-0.1,0-0.2,0.1-0.3
			c0.3-0.4,0.9-0.7,1.2-1.2c0.1-0.2,0.3-0.3,0.4-0.4c0.2-0.1,0.3,0,0.2,0.2c0.1-0.1,0.1-0.2,0.1-0.3c0-0.3,0.1-0.4,0.3-0.2
			c0.1,0,0.1,0.1,0.2,0c0.1-0.1,0-0.1-0.1-0.1c-0.1,0-0.2-0.1-0.1-0.2c0-0.1,0.1-0.2,0.2-0.2c0.1,0,0.3,0,0.3-0.2
			c0-0.1,0.1-0.1,0.2-0.1c0.3,0,0.5-0.1,0.6-0.4c0-0.1,0.1-0.3,0.3-0.3c0.2,0.1,0.2,0,0.3-0.2c0.1-0.4,0.3-0.5,0.7-0.5
			c0-0.2-0.2-0.4,0-0.5c0.2-0.1,0.2,0.1,0.4,0.1c0-0.1-0.3-0.2-0.1-0.4c0.1-0.2,0.2-0.4,0.4-0.5c0.2-0.1,0.4,0.1,0.6,0.1
			c0-0.2-0.4-0.1-0.2-0.4c0.1-0.2,0.4-0.4,0.6-0.4c0.4,0.1,0.5,0,0.5-0.4c0-0.3,0.1-0.4,0.3-0.3c0.2,0,0.3-0.2,0.3-0.3
			c0.1-0.3,0.3-0.6,0.5-0.9c0.1-0.1,0.1-0.2,0.2-0.3c0.4-0.2,0.6-0.6,0.9-0.9c0.4-0.4,0.7-0.9,1.1-1.2c0.2-0.2,0.4-0.3,0.5-0.6
			c0.1-0.2,0.2-0.3,0.4-0.4c0.4-0.3,0.7-0.6,0.9-1c0,0,0.1,0,0.1,0c0.3,0.2,0.6,0.5,0.9,0.7c0,0,0,0.1,0,0.1c-0.4,0-0.5,0.4-0.8,0.6
			c-0.3,0.1-0.2,0.4-0.2,0.6c-0.1,0.2-0.4,0.3-0.6,0.4c-0.2,0.1-0.6,0.1-0.8,0.4c-0.1,0.1-0.2,0.1-0.3,0.2c0.2,0,0.3,0,0.3,0.2
			c0,0.1-0.1,0.2-0.2,0.2c-0.2,0.1-0.5,0.2-0.5,0.6c0,0.1-0.1,0.2-0.2,0.1c-0.1,0-0.2-0.1-0.2,0c0,0.1,0,0.2,0.1,0.2
			c0.1,0.1,0.2,0.1,0.3,0c0.1-0.2,0.4-0.3,0.4-0.6c0-0.1,0.1-0.1,0.2-0.1c0.3,0,0.3-0.2,0.4-0.4c0.1-0.2,0.1-0.5,0.4-0.3
			c0.1-0.2,0.3-0.3,0.4-0.4c0.1-0.1,0.3-0.2,0.2-0.4c0.3-0.1,0.3-0.3,0.6-0.5c0.1,0,0.1-0.1,0-0.1c-0.1-0.3,0-0.4,0.3-0.5
			c0.1,0,0.2-0.1,0.3-0.1c0.1,0.1,0.3,0.2,0.4,0.4c-0.1,0.2-0.3,0.5-0.5,0.6c-0.3,0.1-0.4,0.4-0.6,0.6c-0.3,0.3-0.6,0.7-0.9,0.9
			c-0.1,0.1-0.1,0.2-0.2,0.3c-0.2,0.2-0.4,0.4-0.7,0.6c-0.5,0.4-0.9,0.9-1.4,1.4c-0.6,0.5-1,1.1-1.6,1.6c-0.2,0.1-0.4,0.3-0.6,0.6
			c-0.1,0.2-0.2,0.4-0.5,0.5c-0.1,0-0.2,0.1-0.2,0.3c-0.1,0.1-0.2,0-0.2,0.1c-0.1,0.1-0.3,0.1-0.4,0.2c0,0-0.1,0-0.1,0
			c-0.2-0.2-0.1-0.4,0-0.5c0.3-0.2,0.2-0.2-0.1-0.3c0,0-0.1,0-0.1-0.1c0,0-0.1-0.1-0.1,0c-0.1,0.1,0,0.1,0,0.2c0.1,0.1,0,0.1,0,0.2
			c-0.1,0.1-0.1,0.2,0,0.3c0.1,0.2,0,0.2-0.2,0.3c-0.2,0-0.2-0.1-0.2-0.2c0-0.1,0-0.1,0-0.2c-0.2,0.2-0.2,0.6,0,1
			C69.4,18.5,69.4,18.6,69.3,18.6z"/>
		<path class="st9" d="M45.4,26.8c-0.1-0.3-0.3-0.7-0.4-1.1c0.1,0,0.2,0.1,0.3-0.1c0.1-0.1,0.3-0.3,0.4-0.4c2.2-2.2,4.5-4.5,6.7-6.7
			c1.2-1.2,2.4-2.4,3.6-3.7c0.9-0.9,1.8-1.8,2.7-2.6c1.2-1.3,2.5-2.5,3.8-3.8c1-1,2-2,3-3c0.1-0.1,0.1-0.1,0.1-0.2
			c0.5,0,1,0,1.6,0.1c0,0,0,0,0,0c-0.1,0.1-0.2,0.1-0.3,0c0,0-0.1-0.1,0,0c0,0.4-0.3,0.5-0.5,0.7c-0.8,0.8-1.5,1.5-2.3,2.3
			c-0.6,0.7-1.3,1.3-2,1.9c-1.4,1.4-2.9,2.8-4.3,4.3c-1,1-2.1,2.1-3.1,3.1c-0.8,0.9-1.7,1.7-2.5,2.6c-1.3,1.3-2.6,2.6-3.9,3.8
			c-0.7,0.7-1.4,1.4-2.1,2.1C45.8,26.5,45.6,26.7,45.4,26.8z"/>
		<path class="st10" d="M45.4,26.8c1.5-1.3,2.8-2.8,4.2-4.1c0.6-0.6,1.2-1.2,1.8-1.8c0.6-0.5,1.1-1.1,1.6-1.6
			c0.8-0.8,1.6-1.6,2.4-2.4c0.6-0.6,1.2-1.2,1.8-1.8c1.3-1.4,2.7-2.7,4-4.1c0.8-0.8,1.7-1.6,2.5-2.5c0.7-0.7,1.4-1.3,2-2.1
			C66,6.2,66.2,6,66.5,5.7c0.1-0.1,0.2-0.2,0.2-0.3c0.1-0.1,0.3,0,0.4-0.1c0,0,0,0,0,0c0.3,0,0.5,0,0.8,0.1
			c-0.2,0.3-0.5,0.5-0.8,0.8c-0.6,0.7-1.3,1.3-1.9,2c-0.8,0.8-1.5,1.6-2.4,2.4c-0.9,0.9-1.8,1.7-2.6,2.6c-0.8,0.8-1.6,1.6-2.4,2.4
			c-0.3,0.4-0.7,0.7-1.1,1c-0.7,0.7-1.3,1.4-1.9,2c-0.8,0.7-1.5,1.4-2.2,2.2c-0.7,0.7-1.4,1.4-2.1,2.1c-0.9,0.9-1.8,1.9-2.8,2.8
			c-0.4,0.4-0.8,0.8-1.2,1.2c-0.3,0.3-0.6,0.5-0.8,0.8C45.6,27.4,45.5,27.1,45.4,26.8z"/>
		<path class="st11" d="M65.5,5.2c0,0.1,0.2,0,0.2,0.1c-0.2,0.1-0.3,0.3-0.4,0.4c-0.6,0.5-1.1,1.1-1.7,1.6C62.8,8.2,62,9,61.2,9.9
			c-1.5,1.6-3.1,3.1-4.6,4.6c-2.3,2.3-4.6,4.6-6.9,6.9c-1.4,1.4-2.7,2.7-4.1,4.1c-0.1,0.1-0.3,0.2-0.4,0.3c-0.2,0.2-0.2,0-0.3,0
			c-0.1-0.2-0.1-0.5-0.2-0.7c0.4-0.4,0.8-0.8,1.2-1.2c0.6-0.6,1.3-1.3,1.9-1.9c0.7-0.7,1.3-1.4,2-2c1.2-1.2,2.3-2.3,3.4-3.5
			c0.2-0.2,0.4-0.4,0.6-0.5c1.5-1.4,2.9-2.9,4.3-4.3c0.9-0.8,1.7-1.7,2.6-2.5c1.2-1.2,2.5-2.4,3.6-3.7c0,0,0.1-0.1,0.1-0.1
			c0.1,0,0.2,0,0.3,0c0.1,0,0.1,0,0.2,0C65.2,5.2,65.3,5.2,65.5,5.2C65.5,5.2,65.5,5.2,65.5,5.2z"/>
		<path class="st5" d="M73.6,7.5c0,0.1-0.1,0.2-0.1,0.2c-0.8,0.7-1.5,1.5-2.2,2.2c-0.5,0.5-1,1-1.5,1.5c-0.9,1-1.8,1.8-2.7,2.7
			c-0.3,0.4-0.7,0.8-1.1,1.1c-0.3,0.2-0.5,0.5-0.7,0.8c-0.7,0.7-1.3,1.3-2,2c-0.7,0.7-1.4,1.5-2.2,2.1c-0.3,0.3-0.6,0.6-0.8,0.8
			c-0.5,0.5-1.1,1-1.6,1.5c-0.3,0.4-0.8,0.7-1.1,1.1c-0.1,0.1-0.2,0.1-0.2,0.2c-0.6,0.6-1.1,1.1-1.7,1.7c-0.5,0.4-0.9,0.9-1.4,1.4
			c-0.5,0.4-0.9,0.9-1.3,1.4c-0.6,0.6-1.2,1.2-1.8,1.7c-0.3,0.3-0.5,0.6-0.9,0.9c-0.6,0.5-1.1,1.1-1.7,1.6c-0.1-0.1-0.2-0.2-0.3-0.4
			c0-0.1-0.1-0.2,0-0.3c0.5-0.3,0.8-0.8,1.2-1.2c0.6-0.6,1.3-1.2,1.9-1.9c0.5-0.6,1.2-1.1,1.7-1.7c0.3-0.4,0.8-0.7,1.1-1.1
			c0.7-0.8,1.5-1.4,2.2-2.2c0.4-0.5,0.9-0.9,1.4-1.3c0.6-0.6,1.1-1.2,1.7-1.7c0.9-0.9,1.8-1.8,2.7-2.7c0.6-0.6,1.3-1.2,1.9-1.8
			c0.6-0.7,1.3-1.3,1.9-1.9c0.8-0.8,1.6-1.6,2.4-2.4c0.9-0.8,1.7-1.6,2.5-2.5c0.4-0.4,0.8-0.8,1.3-1.2c0.3-0.3,0.6-0.6,0.8-0.9
			c0.2,0,0.3,0.1,0.5,0.2C73.5,7.4,73.6,7.4,73.6,7.5z"/>
		<path class="st12" d="M73,27.7c0.1,0.2,0.2,0.2,0.3,0.1c0.5-0.5,1.1-1.1,1.6-1.6c0.1-0.1,0.3-0.3,0.4-0.4c1.7-1.7,3.5-3.5,5.2-5.2
			c1-1,1.9-1.9,2.9-2.9c0.1-0.1,0.1,0,0.2,0c0.2,0.4,0.4,0.8,0.5,1.2c0.1,0.2,0,0.3-0.1,0.4c-0.6,0.6-1.2,1.2-1.8,1.8
			c-0.6,0.6-1.1,1.1-1.7,1.7c-0.4,0.3-0.7,0.7-1,1c-0.8,0.8-1.6,1.6-2.4,2.4c-0.9,0.9-1.9,1.9-2.8,2.8c0,0,0,0,0,0
			c-0.4,0.5-1,0.7-1.2,1.4c-0.2-0.3-0.2-0.6-0.1-0.8c0.1-0.5,0-1,0.1-1.5C72.9,27.9,72.9,27.8,73,27.7z"/>
		<path class="st13" d="M45.7,27.7c0-0.1,0-0.2,0.1-0.2c0.4-0.3,0.7-0.7,1-1c0.4-0.3,0.6-0.7,1-1c0.7-0.6,1.2-1.2,1.8-1.8
			c0.9-0.9,1.9-1.8,2.7-2.7c0.3-0.3,0.5-0.7,0.9-0.9c0.2-0.1,0.3-0.4,0.5-0.5c0.5-0.5,1-0.9,1.5-1.4c0.5-0.5,0.9-1,1.4-1.5
			c0.8-0.7,1.4-1.5,2.2-2.2c0.6-0.6,1.2-1.2,1.8-1.8c0.9-0.8,1.8-1.7,2.6-2.6c0.8-0.8,1.6-1.5,2.3-2.3C66.3,7,67,6.2,67.7,5.5
			c0,0,0.1,0,0.1-0.1c0.3,0,0.5,0.1,0.8,0.1C68.5,5.9,68.2,6,68,6.3c-1.7,1.8-3.5,3.5-5.3,5.3c-2.2,2.2-4.4,4.4-6.6,6.6
			c-1.8,1.8-3.6,3.6-5.4,5.4c-1.4,1.4-2.8,2.8-4.2,4.2c-0.2,0.2-0.3,0.3-0.5,0.5c0,0-0.1,0-0.1,0C45.8,28,45.8,27.9,45.7,27.7z"/>
		<path class="st14" d="M85.1,22.2c0,0.1,0,0.2,0.1,0.3c0.1,0.2,0,0.4,0.1,0.6c0,0,0,0.1-0.1,0.1c-0.4,0.1-0.6,0.4-0.8,0.7
			c-0.3,0.4-0.7,0.7-1.1,1.1c-0.5,0.5-1,1-1.5,1.5c-0.4,0.3-0.7,0.7-1,1.1c-0.7,0.7-1.4,1.4-2.1,2.1c-0.8,0.8-1.6,1.6-2.4,2.4
			c-0.5,0.5-1,1-1.5,1.5c-0.6,0.6-1.2,1.3-1.9,1.9c-0.7,0.7-1.4,1.4-2.1,2.1c-0.6,0.6-1.3,1.3-1.9,1.9c-0.6,0.6-1.2,1.3-1.9,1.9
			c-0.7,0.6-1.2,1.4-1.9,1.9c-0.2,0.1-0.2,0.4-0.5,0.3c-0.3-0.1-0.5-0.2-0.8-0.3c0.4-0.1,0.7-0.5,0.9-0.8c0.7-0.8,1.5-1.5,2.2-2.2
			c0.9-0.9,1.8-1.8,2.7-2.7c1.1-1.1,2.2-2.2,3.4-3.3c0.9-0.8,1.7-1.7,2.5-2.6c0.9-0.9,1.8-1.8,2.7-2.7c0.7-0.7,1.3-1.4,2-2
			c0.8-0.8,1.6-1.6,2.4-2.4c0.7-0.7,1.3-1.3,2-2c0.2-0.2,0.3-0.4,0.6-0.3C85,22.3,85.1,22.2,85.1,22.2z"/>
		<path class="st15" d="M76.3,9c-0.2,0.4-0.4,0.7-0.8,0.9c-0.2,0.1-0.4,0.3-0.5,0.5c-0.1,0.3-0.4,0.5-0.7,0.7
			c-0.2,0.2-0.3,0.4-0.5,0.6c-0.2,0.1-0.4,0.2-0.4,0.5c-0.5,0.4-1,0.8-1.4,1.3c-0.3,0.3-0.7,0.6-1,1c-0.5,0.6-1.2,0.9-1.7,1.5
			c-0.4,0.5-0.9,1.1-1.5,1.5c-0.2,0.2-0.4,0.4-0.4,0.8c0,0.1-0.1,0.2-0.2,0.1c-0.2-0.3-0.3-0.1-0.4,0c-0.3,0.3-0.7,0.5-0.9,0.9
			c-0.3,0.5-0.9,0.7-1.2,1.3c-0.1,0.2-0.5,0.4-0.7,0.6c-0.3,0.2-0.3,0.3,0,0.6c-0.4,0-0.6,0.1-0.9,0.4c-0.1,0.1-0.2,0.1-0.2,0.3
			c0,0.2-0.2,0.3-0.4,0.3c-0.4,0-0.8,0-1.2-0.1c0.2-0.3,0.5-0.5,0.7-0.8c0.4-0.4,0.7-0.8,1.2-1.1c0.1-0.1,0.1-0.3,0.3-0.4
			c0.9-0.6,1.5-1.6,2.3-2.3c0.5-0.4,0.9-0.8,1.3-1.3c0.2-0.2,0.2-0.4,0.4-0.6c0.6-0.4,1.1-0.9,1.6-1.4c0.3-0.3,0.5-0.6,0.8-0.9
			c0.4-0.3,0.7-0.7,1-1c0.4-0.4,0.8-0.6,1.1-1.1c0.1-0.2,0.3-0.3,0.4-0.4c0.5-0.4,0.9-0.9,1.3-1.4c0.3-0.3,0.6-0.7,1-0.9
			c0.3-0.2,0.5-0.5,0.5-0.9C75.8,8.5,76.1,8.8,76.3,9z"/>
		<path class="st16" d="M65.6,44c-0.1-0.1-0.3,0-0.4-0.1c0.2-0.4,0.6-0.7,1-1.1c1.6-1.6,3.1-3.1,4.7-4.7c1.3-1.3,2.6-2.6,3.9-3.9
			c1.2-1.2,2.4-2.4,3.7-3.6c1.5-1.5,3.1-3,4.6-4.6c0.6-0.6,1.3-1.3,1.9-1.9c0.1-0.1,0.3-0.3,0.5-0.1c0.1,0.2,0.1,0.4,0.1,0.6
			c0,0.1,0,0.2,0,0.3c-0.3-0.1-0.4,0.2-0.6,0.3c-1.9,1.9-3.8,3.8-5.7,5.7c-1.2,1.2-2.3,2.3-3.5,3.5c-1.1,1.1-2.2,2.3-3.4,3.4
			c-1.7,1.7-3.5,3.5-5.2,5.2c-0.3,0.3-0.7,0.6-1,1C66.1,44,65.8,44.1,65.6,44z"/>
		<path class="st17" d="M66.7,44.3c-0.1,0-0.1,0-0.2-0.1c0-0.1,0.1-0.3,0.2-0.4c1.2-1.2,2.4-2.5,3.7-3.7c0.4-0.3,0.7-0.7,1-1.1
			c0.8-0.8,1.6-1.6,2.4-2.4c0.8-0.9,1.7-1.7,2.5-2.5c1.2-1.2,2.4-2.5,3.7-3.6c0.3-0.3,0.6-0.6,0.9-0.9c0.6-0.7,1.3-1.3,2-2
			c0.7-0.7,1.4-1.3,2.1-2.1c0.1-0.1,0.3-0.4,0.5-0.2c0,0.2,0,0.5,0,0.7c0,0.2-0.2,0.3-0.3,0.4c-2.2,2.2-4.5,4.5-6.7,6.7
			c-2.8,2.8-5.6,5.6-8.4,8.4c-0.8,0.8-1.5,1.5-2.3,2.3c-0.1,0.1-0.2,0.4-0.4,0.5c-0.1,0-0.3,0-0.4,0l0,0
			C66.9,44.3,66.8,44.2,66.7,44.3z"/>
		<path class="st12" d="M59.6,41.6c0.1-0.1,0.2-0.2,0.3-0.3c1-1,1.9-1.9,2.9-2.9c1.1-1.1,2.3-2.3,3.4-3.4c1-1,1.9-1.9,2.9-2.9
			c0.2-0.2,0.4-0.4,0.4-0.6c0.1,0.1,0.1,0.2,0.1,0.3c0,0.2,0.1,0.4,0.2,0.6c0.1,0.1,0.1,0.3,0.2,0.4c0.1,0.2,0,0.4-0.2,0.5
			c-0.4,0.3-0.7,0.7-1,1c-2.3,2.3-4.5,4.5-6.8,6.8c-0.3,0.3-0.6,0.5-0.8,0.9c0,0.1-0.1,0.1-0.2,0C60.4,42.1,60,41.9,59.6,41.6z"/>
		<path class="st18" d="M85.4,23.9c-0.2-0.1-0.3,0-0.5,0.1c-0.9,0.9-1.8,1.8-2.7,2.8C81.1,27.9,80,29,78.9,30
			C78,31,77,31.9,76.1,32.9c-1.2,1.2-2.4,2.4-3.6,3.6c-1.4,1.4-2.8,2.8-4.1,4.1c-0.7,0.7-1.4,1.4-2.2,2.2c-0.3,0.3-0.6,0.7-1,1
			c0,0-0.1,0-0.1,0c-0.1-0.1-0.2-0.1-0.4-0.1c-0.1,0-0.2,0-0.3-0.1c0.1,0,0.2,0,0.3-0.1c0.8-0.9,1.7-1.8,2.6-2.6
			c0.7-0.7,1.4-1.4,2.1-2.2c0.6-0.6,1.3-1.2,1.9-1.8c0.6-0.6,1.1-1.2,1.7-1.7c0.6-0.5,1.1-1.1,1.6-1.6c0.7-0.7,1.3-1.4,2-2
			c0.7-0.7,1.4-1.4,2.1-2.1c0.4-0.4,0.9-0.8,1.3-1.3c0.4-0.5,0.9-0.9,1.4-1.4c0.6-0.7,1.3-1.4,2-2c0.4-0.4,0.8-0.7,1.2-1.2
			c0.2-0.2,0.4-0.5,0.8-0.6c-0.1-0.1-0.1-0.4,0-0.6C85.3,23,85.4,23.4,85.4,23.9z"/>
		<path class="st19" d="M50.1,34.3c-0.1-0.2,0-0.4,0.2-0.5c0.4-0.3,0.8-0.7,1.1-1.2c0.1-0.2,0.4-0.3,0.6-0.6
			c0.6-0.6,1.2-1.2,1.8-1.8c0.1-0.2,0.3-0.2,0.5-0.3c0.3-0.2,0.4-0.5,0.6-0.7c0.7-0.6,1.3-1.3,2-2c0.1-0.1,0.3-0.3,0.4,0
			c0,0.1,0,0.1,0,0.2c-0.1,0.6-0.1,1.3,0,1.9c0.1,0.1,0.1,0.3,0,0.4c-0.1,0,0-0.3-0.2-0.1c-0.4,0.4-0.9,0.8-1.2,1.3
			c-0.2,0.3-0.6,0.4-0.8,0.7c-0.5,0.6-1.1,1-1.6,1.6c-0.1,0.1-0.3,0.2-0.3,0.5c0,0,0,0.1-0.1,0.1c-0.7,0.3-1.1,1.1-1.7,1.5
			c-0.2,0.1,0.1,0.2,0,0.3c-0.1-0.1-0.3-0.2-0.3-0.3c-0.1-0.1-0.1-0.2-0.3-0.3C50.4,34.7,50.2,34.5,50.1,34.3z"/>
		<path class="st20" d="M45.9,28.2C46,28.2,46,28.2,45.9,28.2c0.2,0.1,0.3,0,0.4-0.1c0.6-0.6,1.3-1.3,1.9-1.9
			c0.6-0.6,1.1-1.1,1.7-1.7c1.1-1.1,2.2-2.1,3.2-3.2c1.1-1,2.1-2.1,3.1-3.2c1.4-1.4,2.8-2.8,4.2-4.2c1.7-1.7,3.3-3.4,5-5
			c1-1,2-2,3-3c0.3-0.3,0.5-0.1,0.8,0c-0.1,0.2-0.2,0.4-0.4,0.5c-0.4,0.3-0.7,0.8-1.1,1.1c-0.5,0.4-0.8,0.9-1.3,1.3
			c-0.4,0.3-0.7,0.8-1.1,1.1c-0.4,0.4-0.8,0.8-1.2,1.2c-0.4,0.4-0.8,0.8-1.2,1.2c-0.3,0.4-0.7,0.7-1.1,1.1c-0.3,0.3-0.6,0.5-0.8,0.8
			c-0.5,0.6-1.2,1.1-1.7,1.7c-0.4,0.5-0.9,0.8-1.3,1.2c-0.4,0.4-0.8,0.8-1.2,1.2c-0.5,0.5-1,1-1.5,1.5c-0.8,0.8-1.7,1.6-2.4,2.4
			c-0.6,0.7-1.3,1.4-2,1.9c-0.3,0.2-0.5,0.5-0.7,0.8c-0.8,0.8-1.7,1.6-2.5,2.4c-0.5,0.5-1,1-1.5,1.5C46.1,28.7,46,28.4,45.9,28.2z"
			/>
		<path class="st21" d="M44.5,23.7c0-0.2,0-0.3,0-0.5c0.2-0.3,0.4-0.4,0.6-0.7c1.1-1.1,2.2-2.2,3.4-3.3c0.9-0.8,1.7-1.7,2.5-2.6
			c1-0.9,1.9-1.9,2.8-2.9c0.3-0.3,0.6-0.6,0.9-0.9c0.7-0.7,1.4-1.4,2.1-2.1c1-1,2-2,3-3c0.8-0.8,1.6-1.5,2.3-2.3
			c-0.1-0.1-0.1,0-0.2-0.1c-0.1,0-0.2,0-0.3,0c0,0-0.1,0-0.1-0.1c0.5-0.1,1.1-0.2,1.6-0.1c0.1,0.2,0,0.3-0.2,0.5
			c-1.1,1.1-2.2,2.2-3.2,3.2c-0.8,0.8-1.6,1.5-2.3,2.4c-0.3,0.3-0.6,0.6-0.9,0.9c-0.7,0.6-1.3,1.3-2,2c-1.2,1.2-2.4,2.4-3.6,3.6
			c-2,2-4,4.1-6.1,6.1c0,0-0.1,0.1-0.1,0.1C44.6,23.9,44.6,23.7,44.5,23.7z"/>
		<path class="st22" d="M85.4,25.4c-0.4,0.1-0.6,0.4-0.8,0.7c-0.3,0.3-0.7,0.6-1,1c-0.4,0.4-0.8,0.8-1.2,1.2
			c-0.3,0.3-0.5,0.6-0.9,0.9c-0.5,0.3-0.8,0.8-1.2,1.2c-0.3,0.3-0.7,0.6-1,0.9c-0.8,0.8-1.5,1.6-2.3,2.4c-0.7,0.7-1.4,1.4-2.2,2.1
			c-0.8,0.8-1.6,1.7-2.5,2.5c-0.5,0.5-1,0.9-1.4,1.4c-0.9,0.9-1.8,1.8-2.7,2.7c-0.5,0.5-0.9,1-1.5,1.5c-0.1,0.1-0.2,0.3-0.3,0.4
			c-0.3,0-0.6-0.1-0.9-0.2c0.2,0,0.4-0.1,0.6-0.2c1.7-1.7,3.3-3.3,5-5c1.2-1.2,2.3-2.3,3.5-3.5c0.8-0.8,1.6-1.6,2.4-2.4
			c2.7-2.7,5.4-5.4,8.1-8.1c0.1-0.1,0.1-0.1,0.2-0.2c0.1,0.1,0,0.2,0.1,0.2c0.1,0.1,0,0.2,0.1,0.3C85.5,25.2,85.5,25.3,85.4,25.4z"
			/>
		<path class="st23" d="M64.6,5.2c-0.1,0.3-0.4,0.5-0.6,0.7c-0.8,0.8-1.7,1.6-2.5,2.5c-0.8,0.9-1.7,1.7-2.6,2.6
			c-1.2,1.2-2.5,2.4-3.7,3.7c-0.6,0.6-1.2,1.1-1.8,1.8c-0.9,0.9-1.8,1.8-2.6,2.7c-0.8,0.8-1.6,1.6-2.4,2.5c-0.7,0.7-1.4,1.4-2.1,2.1
			c-0.5,0.5-0.9,1.1-1.5,1.4c0-0.1-0.1-0.2-0.1-0.4c0-0.3,0.1-0.5,0.3-0.7c0.5-0.4,0.8-0.8,1.3-1.2c0.4-0.3,0.7-0.7,1-1c1-1,2-2,3-3
			c1-0.9,1.9-1.9,2.9-2.8c0.4-0.4,0.8-0.9,1.2-1.3c0.4-0.4,0.9-0.8,1.3-1.2c1-1,2-2,3-3.1c0.6-0.7,1.4-1.3,2-1.9
			c0.9-0.9,1.8-1.8,2.7-2.7c0.2-0.2,0.3-0.5,0.6-0.6C64.2,5.2,64.4,5.1,64.6,5.2z"/>
		<path class="st24" d="M73,27.7c0,0.8,0,1.7-0.1,2.6c0-0.5,0.5-0.6,0.7-0.9c0.7-0.7,1.4-1.4,2.1-2.1c0.5-0.5,1-1,1.5-1.5
			c0.7-0.7,1.4-1.4,2.1-2.1c0.5-0.6,1.1-1.1,1.7-1.7c0.5-0.5,1-1,1.5-1.5c0.5-0.4,0.9-1,1.4-1.4c0.1-0.1,0.2-0.2,0.2-0.3
			c0.2,0.3,0.3,0.7,0.4,1c0,0.1,0.1,0.3-0.2,0.3c-0.1,0-0.2,0.1-0.2,0.2c-0.8,0.8-1.6,1.5-2.3,2.4c-0.5,0.6-1.2,1.1-1.7,1.7
			c-0.6,0.7-1.3,1.3-2,2c-0.9,0.9-1.8,1.8-2.8,2.7c-0.7,0.7-1.4,1.3-2,2c-0.1,0.1-0.1,0.1-0.2,0.2c-0.2,0.2-0.3,0.2-0.4-0.2
			c0.2-1.3,0.1-2.6,0.1-3.8c0-0.2,0-0.3,0.1-0.4c0,0,0.1,0.1,0.1,0.1C73.1,27.2,72.9,27.4,73,27.7L73,27.7z"/>
		<path class="st25" d="M85.5,25.1c0.1,0.5,0.1,1.1,0.1,1.6c0,1.1,0,2.1-0.2,3.2c-0.1-0.1-0.2-0.1-0.3,0.1c-1.5,1.5-3,3-4.4,4.5
			c-0.1,0.1-0.2,0.2-0.3,0.3c-1.3,1.3-2.5,2.5-3.8,3.8c-1.6,1.6-3.3,3.3-4.9,4.9c-0.4,0.4-0.7,0.7-1.1,1c-0.1,0.1-0.1,0.2-0.2,0.3
			c-0.1,0-0.2,0-0.4,0c0,0,0,0-0.1,0c-0.1-0.1-0.3,0.1-0.4-0.1c-0.1-0.2,0.1-0.3,0.3-0.4c3.9-3.9,7.8-7.8,11.7-11.7
			c1.1-1.1,2.3-2.3,3.4-3.4c0.1-0.1,0.2-0.3,0.4-0.3c0.1-0.3,0-0.7,0-1c0-0.1,0-0.2,0-0.4c0-0.3,0-0.6,0-1c0.1-0.4,0-0.8,0.1-1.2
			C85.5,25.1,85.5,25.1,85.5,25.1z"/>
		<path class="st26" d="M63.2,43.2c-0.1,0-0.2,0-0.3-0.1c-0.1,0-0.1-0.1-0.1-0.2c0.3-0.5,0.7-0.8,1.1-1.1c0.1-0.1,0.2-0.2,0.3-0.3
			c1-1.1,2.1-2.1,3.1-3.1c0.3-0.2,0.5-0.5,0.7-0.8c0.6-0.6,1.2-1.2,1.8-1.8c0.7-0.7,1.4-1.5,2.2-2.2c0.9-0.9,1.7-1.7,2.6-2.6
			c1.2-1.2,2.5-2.5,3.7-3.7c1-0.9,1.9-1.9,2.8-2.9c1-1,2.1-2,3.1-3.1c0.1-0.2,0.3-0.4,0.6-0.2c0.1,0.1,0.1,0.3,0.1,0.4
			c-0.5,0.5-1,1.1-1.6,1.6c-0.9,0.8-1.7,1.7-2.6,2.6c-1.2,1.2-2.4,2.4-3.5,3.5c-0.7,0.7-1.4,1.4-2.1,2.2c-0.7,0.7-1.4,1.4-2.2,2.1
			c-0.6,0.7-1.3,1.3-1.9,2c-0.6,0.6-1.1,1.2-1.7,1.7c-0.5,0.5-0.9,1-1.4,1.5c-1,0.9-1.8,1.9-2.8,2.8c-0.6,0.5-1.1,1-1.6,1.6
			C63.4,43.2,63.3,43.3,63.2,43.2z"/>
		<path class="st27" d="M63.9,5.2c-0.4,0.6-1,1.1-1.6,1.7c-1,1-2,2.1-3.1,3.1c-0.7,0.6-1.3,1.3-1.9,1.9c-0.8,0.8-1.6,1.6-2.4,2.4
			c-0.9,0.9-1.9,1.9-2.8,2.8c-1.1,1.1-2.2,2.2-3.3,3.3c-0.7,0.7-1.4,1.3-2,2c-0.3,0.4-0.8,0.6-1.1,1.1c0,0.1-0.1,0.1-0.2,0.2
			c-0.4,0.3-0.7,0.6-0.8,1c-0.1-0.3-0.1-0.7-0.2-1c0.1,0,0.1,0.1,0.1,0.3c0.1-0.2,0.3-0.3,0.4-0.4c1.1-1.1,2.2-2.3,3.4-3.4
			c2-2,4-4,5.9-5.9c0.8-0.8,1.6-1.6,2.4-2.4c0.9-0.9,1.8-1.9,2.8-2.8c1.1-1.1,2.2-2.2,3.3-3.3c0.1-0.1,0.2-0.3,0.3-0.4
			c0.2-0.1,0.4,0,0.6-0.1C63.8,5.2,63.9,5.2,63.9,5.2z"/>
		<path class="st28" d="M44.4,22.3c-0.1-0.4-0.1-0.8,0-1.2c0.1,0,0,0.1,0.1,0.1c0.2-0.5,0.7-0.8,1-1.1c0.8-0.8,1.5-1.6,2.3-2.3
			c2.2-2.2,4.5-4.5,6.7-6.7c1-1,2.1-2.1,3.1-3.1c0.7-0.7,1.4-1.4,2.1-2.1c-0.1,0-0.1,0-0.2-0.1c0.4-0.2,0.9-0.2,1.4-0.3
			c0,0,0,0.1,0,0.1c-0.4,0.6-0.9,1-1.4,1.5c-0.6,0.6-1.1,1.1-1.7,1.7c-1.1,1-2.1,2.1-3.2,3.2c-0.8,0.8-1.6,1.5-2.4,2.3
			c-0.5,0.6-1.1,1-1.6,1.6c-0.5,0.5-1,1-1.5,1.5c-0.5,0.6-1.1,1.1-1.7,1.7c-0.7,0.7-1.4,1.3-2.1,2.1c-0.1,0.1-0.2,0.2-0.3,0.4
			c-0.3,0.3-0.6,0.4-0.7,0.9C44.6,22.3,44.5,22.3,44.4,22.3z"/>
		<path class="st29" d="M44.4,22.3c0.1-0.5,0.5-0.7,0.8-1c0.7-0.8,1.5-1.4,2.1-2.2c0.2-0.2,0.5-0.4,0.7-0.7c0.8-0.8,1.6-1.7,2.4-2.5
			c0.5-0.5,0.9-0.9,1.4-1.4c0.5-0.4,0.9-0.9,1.3-1.3c0.1-0.1,0.3-0.3,0.5-0.4c1-1,2-2,3-3c0.6-0.6,1.3-1.2,1.9-1.9
			c0.7-0.8,1.5-1.5,2.2-2.3c0.1-0.1,0.2-0.1,0.2-0.2c0.2-0.1,0.3-0.1,0.5-0.1c0,0,0.1,0,0.1,0.1c0.1,0.2,0,0.2-0.1,0.3
			c-0.6,0.7-1.3,1.3-1.9,1.9c-1,1-2,1.9-2.9,3c-0.8,0.8-1.6,1.6-2.4,2.4c-1.1,1.1-2.2,2.2-3.4,3.4c-1.2,1.3-2.5,2.5-3.8,3.7
			c-0.8,0.8-1.5,1.5-2.3,2.3c-0.1,0.1-0.1,0.3-0.2,0.4c0,0-0.1,0-0.1,0C44.4,22.7,44.4,22.5,44.4,22.3z"/>
		<path class="st30" d="M70.4,44.7c-0.2-0.1,0-0.2,0-0.3c0.5-0.5,0.9-0.9,1.4-1.4c1.5-1.4,2.9-2.9,4.4-4.4c1.3-1.2,2.5-2.5,3.7-3.8
			c1.7-1.7,3.4-3.4,5-5c0.1-0.1,0.2-0.2,0.3-0.3c0.1,0.1,0,0.2,0.1,0.2c0,0.2-0.1,0.4-0.1,0.6c-0.7,0.6-1.4,1.3-2,1.9c-1,1-2,2-3,3
			c-0.5,0.5-0.9,0.9-1.4,1.4c-1.5,1.4-2.9,2.9-4.3,4.3c-1.1,1.1-2.2,2.2-3.3,3.3c-0.1,0.1-0.2,0.2,0,0.3c0.1,0.1,0.1,0.1-0.1,0.1
			c-0.3,0-0.5,0-0.8,0C70.5,44.8,70.4,44.8,70.4,44.7z"/>
		<path class="st31" d="M85.1,22.2c-0.1,0,0.1,0.3-0.2,0.2c-0.1,0-0.2,0.1-0.3,0.2c-0.8,0.8-1.6,1.7-2.4,2.5c-0.7,0.7-1.3,1.4-2.1,2
			c-0.4,0.3-0.7,0.7-1.1,1.1c-1,1.1-2.1,2.1-3.1,3.1c-0.8,0.8-1.6,1.6-2.3,2.4c-0.7,0.7-1.5,1.4-2.2,2.1c-0.9,0.9-1.8,1.7-2.6,2.6
			c-0.8,0.8-1.5,1.6-2.3,2.3c-0.9,0.8-1.7,1.7-2.6,2.6c-0.1,0.1-0.3,0.1-0.4,0.1c-0.1,0-0.1,0-0.2-0.1c0.9-1.1,2-2,3-3
			c0.7-0.8,1.5-1.5,2.3-2.3c1.2-1.2,2.4-2.4,3.6-3.6c1.3-1.3,2.6-2.6,3.9-3.9c1.2-1.3,2.5-2.5,3.8-3.8c0.8-0.8,1.6-1.6,2.4-2.4
			c0.7-0.8,1.5-1.5,2.2-2.3c0.1-0.2,0.3-0.3,0.5-0.2C85.1,22,85.1,22.1,85.1,22.2z"/>
		<path class="st32" d="M72.7,31.2c0.1,0.2,0.1,0.1,0.2,0c0.4-0.3,0.7-0.7,1.1-1c1.2-1.2,2.3-2.3,3.5-3.5c1.2-1.2,2.3-2.3,3.5-3.5
			c1-1,2-2,3.1-3.1c0.1-0.1,0.2-0.3,0.4-0.1c0,0,0,0,0,0c0-0.1,0-0.1,0-0.2c0.1,0.2,0.2,0.5,0.2,0.7c0,0.1-0.1,0.1-0.1,0.2
			c-1,1-2,1.9-2.9,2.9c-0.3,0.4-0.7,0.6-1,1c-0.9,0.9-1.8,1.8-2.7,2.7c-1.1,1-2.1,2.1-3.2,3.1c-0.6,0.6-1.2,1.2-1.8,1.7
			c-0.1,0.1-0.3,0.4-0.4,0.3c-0.2-0.1-0.1-0.3,0-0.5c0-0.2,0.1-0.3,0.1-0.5C72.6,31.4,72.6,31.3,72.7,31.2z"/>
		<path class="st33" d="M59.6,5.7c0.1,0,0.2,0,0.4,0c0,0.1-0.1,0.1-0.1,0.1c-0.9,1-1.9,1.9-2.8,2.8c-0.6,0.6-1.2,1.2-1.8,1.8
			c-1.7,1.7-3.3,3.3-5,5c-1.3,1.3-2.6,2.6-3.9,3.9c-0.5,0.5-1,1-1.6,1.6c-0.1,0.1-0.3,0.3-0.3,0.5c0-0.1,0-0.2,0-0.3
			c0-0.3-0.1-0.6,0.1-0.8c0.2-0.1,0.3-0.2,0.4-0.3c1.5-1.6,3.1-3.1,4.7-4.7c1.6-1.6,3.1-3.1,4.7-4.7c1.5-1.5,3.1-3.1,4.6-4.7
			c0.1-0.1,0.2-0.1,0.3-0.2C59.3,5.7,59.4,5.7,59.6,5.7z"/>
		<path class="st24" d="M60.8,42.2c1-1.2,2.2-2.3,3.3-3.4c0.7-0.8,1.5-1.5,2.3-2.2c0.9-0.9,1.7-1.8,2.6-2.6c0.2-0.2,0.4-0.5,0.8-0.7
			c0.2-0.1,0-0.2,0.1-0.3c0.3,0.1,0.3,0.4,0.4,0.6c0.2,0.3,0,0.4-0.2,0.6c-1.9,1.8-3.7,3.7-5.6,5.5c-0.7,0.8-1.5,1.5-2.3,2.2
			c-0.1,0.1-0.3,0.3-0.4,0.5c0,0.1-0.2,0.1-0.3,0.1C61.3,42.5,61.1,42.4,60.8,42.2z"/>
		<path class="st34" d="M59.1,5.8c-3,3.1-6,6.1-9.1,9.1c-1.7,1.7-3.5,3.5-5.2,5.2c-0.1,0.1-0.1,0.3-0.3,0.1c0-0.3,0-0.7,0.1-1
			c0.1,0,0,0.2,0.2,0.1c1.8-1.8,3.6-3.6,5.4-5.4c0.6-0.6,1.3-1.3,1.9-1.9c1.3-1.4,2.7-2.7,4.1-4.1c0.5-0.5,1-1,1.5-1.5
			c0.1-0.1,0.3-0.2,0.4-0.3C58.4,5.9,58.8,5.9,59.1,5.8z"/>
		<path class="st35" d="M85.4,28.8c-0.2,0-0.2,0.1-0.3,0.2C80,34.1,74.9,39.2,69.8,44.3c-0.2,0.2-0.2,0.2,0.2,0.4
			c-0.2,0.1-0.5,0.1-0.7,0c-0.1,0-0.3,0-0.4-0.1c0.2-0.1,0.1-0.3,0.3-0.5c0.4-0.5,0.9-0.9,1.4-1.3c1-1,1.9-2,2.9-2.9
			c0.4-0.4,0.9-0.8,1.2-1.2c0.7-0.7,1.4-1.4,2.1-2.1c0.7-0.7,1.4-1.4,2.1-2.1c0.4-0.4,0.8-0.7,1.1-1.2c0.2-0.3,0.5-0.5,0.7-0.8
			c0.9-0.9,1.8-1.8,2.7-2.7c0.5-0.6,1.1-1.1,1.6-1.6c0.1-0.1,0.2-0.3,0.4-0.1C85.5,28.4,85.5,28.6,85.4,28.8z"/>
		<path class="st20" d="M69.3,5.9c-0.5-0.2-0.7,0.1-1,0.4c-0.7,0.8-1.5,1.5-2.2,2.3c-0.5,0.5-1.1,1-1.6,1.6
			c-1.5,1.5-3.1,3.1-4.6,4.6c-0.8,0.8-1.6,1.6-2.4,2.3c-1.1,1.1-2.2,2.3-3.3,3.4c-1.1,1.1-2.1,2.1-3.2,3.2c-0.6,0.6-1.2,1.2-1.8,1.8
			c-1,0.9-1.9,1.9-2.8,2.8c-0.1,0.1-0.3,0.2-0.3-0.1c0-0.2,0.2-0.2,0.3-0.3c0.4-0.4,0.8-0.8,1.2-1.2c2.4-2.4,4.9-4.9,7.3-7.3
			c1.7-1.7,3.3-3.3,5-5c1.5-1.5,2.9-2.9,4.4-4.4c0.7-0.7,1.4-1.4,2.1-2.1c0.7-0.7,1.3-1.4,2-2c0.1-0.1,0.2-0.1,0.3-0.2
			c0.3,0,0.6,0.1,0.9,0.2C69.5,5.8,69.4,5.9,69.3,5.9z"/>
		<path class="st36" d="M85.4,28.1c-0.4,0.2-0.6,0.6-1,0.9c-0.6,0.5-1.1,1.2-1.8,1.8c-0.6,0.5-1.1,1.1-1.7,1.7
			c-0.6,0.6-1.2,1.3-1.9,1.9c-0.8,0.7-1.5,1.4-2.2,2.2c-0.7,0.7-1.4,1.3-2,2c-0.4,0.4-0.8,0.8-1.2,1.2c-0.5,0.5-1.1,1-1.5,1.5
			c-0.3,0.4-0.7,0.7-1.1,1c-0.3,0.3-0.6,0.6-0.9,1c-0.3,0.3-0.7,0.6-1,0.9c-0.1,0.1-0.3,0.1-0.1,0.3c0,0-0.1,0-0.2,0.1
			c-0.2,0-0.3,0-0.5-0.1c0-0.2,0.1-0.3,0.2-0.4c0.7-0.7,1.4-1.4,2.1-2.1c1-1,2-1.9,2.9-2.9c1.1-1.1,2.2-2.2,3.3-3.3
			c0.9-0.9,1.7-1.8,2.6-2.6c0.8-0.8,1.6-1.6,2.4-2.4c0.6-0.6,1.1-1.2,1.7-1.7c0.5-0.5,1-1,1.5-1.5c0.1-0.1,0.3-0.3,0.3,0.1
			C85.5,27.9,85.5,28,85.4,28.1z"/>
		<path class="st37" d="M71.5,44.8C71.5,44.8,71.4,44.7,71.5,44.8c-0.2-0.1-0.4,0-0.4-0.2c0-0.1,0.1-0.2,0.2-0.3
			c0.7-0.7,1.5-1.5,2.2-2.2c1-1,2.1-2,3.1-3c0.9-0.9,1.8-1.8,2.7-2.7c1.3-1.3,2.7-2.6,3.9-3.9c0.6-0.6,1.2-1.1,1.8-1.7
			c0.1-0.1,0.2-0.2,0.4-0.2c-0.1,0.4-0.1,0.9-0.2,1.3c-0.1,0-0.1,0-0.2-0.1c0-0.2-0.1-0.3-0.2-0.1c-0.6,0.8-1.4,1.4-2.1,2.1
			c-0.9,0.9-1.9,1.8-2.8,2.8c-0.8,0.8-1.6,1.5-2.3,2.3c-1.1,1.2-2.3,2.3-3.5,3.5c-0.6,0.6-1.1,1.1-1.6,1.7c-0.2,0.2-0.4,0.3-0.5,0.5
			c-0.1,0.1-0.1,0.2,0.1,0.2c0.1,0,0.2,0,0.2,0.1C71.9,44.9,71.7,44.8,71.5,44.8z"/>
		<path class="st32" d="M61.6,42.6c0,0,0.1,0,0.1,0c0.7-1,1.6-1.7,2.5-2.6c1.9-2,3.9-3.9,5.8-5.8c0.2-0.2,0.3-0.3,0.1-0.6
			c0.3,0,0.4,0.3,0.6,0.5c0.1,0.2,0.3,0.1,0.5,0.2c-0.8,0.3-1.3,1.1-1.9,1.7c-0.6,0.6-1.2,1.2-1.8,1.8c-1.5,1.5-3,3-4.5,4.5
			c-0.2,0.2-0.3,0.3-0.5,0.5c-0.1,0-0.1,0-0.2,0C62,42.8,61.8,42.7,61.6,42.6z"/>
		<path class="st38" d="M58.1,6.2c-0.5,0.6-1,1.1-1.5,1.6c-1.3,1.3-2.6,2.6-3.9,3.9c-2.2,2.2-4.3,4.3-6.5,6.5
			c-0.4,0.4-0.8,0.8-1.3,1.3c-0.1,0.1-0.1,0.2-0.2,0.3c0-0.2,0-0.3,0-0.4c0-0.2,0-0.4,0.1-0.6c0.3-0.4,0.7-0.7,1-1
			c1.1-1,2.1-2.1,3.2-3.2c0.8-0.8,1.5-1.5,2.3-2.3c1.3-1.2,2.5-2.5,3.8-3.7c0.5-0.5,0.9-0.9,1.4-1.4c0.1-0.1,0.3-0.2,0.2-0.5
			C57.1,6.5,57.5,6.2,58.1,6.2z"/>
		<path class="st39" d="M73.9,44.6c-0.2,0-0.4,0.1-0.6,0.1c-0.1,0-0.2,0-0.2-0.1c0-0.1,0-0.2,0.1-0.2c0.4-0.3,0.6-0.7,1-1
			c0.8-0.7,1.5-1.6,2.3-2.3c0.8-0.7,1.6-1.5,2.4-2.3c0.6-0.6,1.1-1.2,1.7-1.7c1-1,1.9-2,3-3c0.4-0.3,0.7-0.7,1-1
			c0.1-0.1,0.2-0.2,0.3-0.2c0.1,0,0.1,0.1,0.1,0.1c-0.1,0.1,0,0.2,0,0.2c0,0.1,0.1,0,0,0c0,0,0,0,0,0c0-0.1,0-0.2,0-0.2
			c0.1-0.2-0.1-0.4,0.1-0.5c0,0,0.1,0,0.1,0c-0.1,0.4-0.1,0.8-0.3,1.2c-0.7,0.5-1.2,1.2-1.8,1.8c-1,0.9-1.9,1.9-2.9,2.8
			c-1.1,1.1-2.1,2.1-3.2,3.2c-0.6,0.6-1.1,1.1-1.7,1.7C74.7,43.7,74.3,44.1,73.9,44.6z"/>
		<path class="st40" d="M84.6,34.1c-0.1,0.4-0.2,0.8-0.3,1.1c-1.3,1.2-2.6,2.5-3.8,3.8c-1.1,1.1-2.2,2.2-3.3,3.3
			c-0.5,0.5-1,1-1.5,1.4c-0.1,0.1-0.2,0.3-0.2,0.4c-0.4,0.1-0.8,0.3-1.3,0.3c0-0.1,0.1-0.2,0.2-0.2c1.7-1.7,3.4-3.4,5.1-5.1
			c0.9-0.9,1.7-1.8,2.6-2.6c0.7-0.7,1.4-1.4,2-2.1C84.3,34.3,84.4,34.2,84.6,34.1z"/>
		<path class="st41" d="M85.4,27.7c0-0.2-0.1-0.1-0.2,0c-0.3,0.2-0.5,0.5-0.8,0.8c-0.6,0.6-1.3,1.2-1.9,1.8
			c-0.5,0.6-1.2,1.1-1.7,1.7c-0.4,0.5-0.9,0.8-1.3,1.3c-1,1-2,2.1-3,3.1c-0.7,0.7-1.4,1.3-2.1,2c-1,1-1.9,2-2.9,2.9
			c-1.1,1.1-2.1,2.1-3.2,3.2c0,0,0,0.1-0.1,0.1c-0.5,0-0.9-0.1-1.4-0.2c0.2,0,0.3,0,0.5,0c0.1,0,0.3,0,0.4,0c0.1,0,0.2,0,0.3-0.1
			c1-1,2-2,3-3c1.1-1.1,2.2-2.1,3.2-3.2c0.8-0.8,1.6-1.5,2.4-2.3c0.6-0.6,1.2-1.2,1.8-1.8c0.6-0.6,1.3-1.2,1.9-1.8
			c0.6-0.6,1.2-1.1,1.8-1.8c0.3-0.4,0.7-0.7,1-1c0.5-0.4,0.9-0.9,1.3-1.3c0.2-0.2,0.5-0.4,0.7-0.7c0.1-0.1,0.2,0,0.2,0.1
			C85.5,27.5,85.5,27.6,85.4,27.7C85.5,27.7,85.5,27.7,85.4,27.7z"/>
		<path class="st42" d="M56.6,6.7c0.1,0,0.3,0,0.1,0.2c-0.1,0.1-0.2,0.2-0.3,0.4c-1.4,1.4-2.9,2.9-4.3,4.3c-0.5,0.5-1,1-1.5,1.5
			c-1.5,1.5-3,2.9-4.4,4.4c-0.5,0.5-1,0.9-1.4,1.4c0,0,0-0.1-0.1-0.1c0-0.2,0.1-0.3,0.1-0.4c0-0.1,0.1-0.1,0.1-0.2
			c0.1-0.2,0.2-0.4,0.4-0.6c0.7-0.7,1.4-1.3,2.1-2c0.5-0.5,1.1-1,1.6-1.6c0.9-0.9,1.9-1.9,2.8-2.8c0.6-0.5,1.1-1.1,1.7-1.6
			c0.4-0.4,0.7-0.7,1.1-1.1c0.5-0.5,1-1,1.5-1.5C56.2,6.8,56.4,6.8,56.6,6.7z"/>
		<path class="st43" d="M85,21.9c-0.2,0-0.4,0.1-0.5,0.3c-1.1,1.1-2.1,2.1-3.2,3.2c-2.4,2.4-4.8,4.8-7.1,7.1
			c-1.9,1.9-3.8,3.8-5.8,5.8c-1.2,1.2-2.5,2.5-3.7,3.7c-0.4,0.4-0.9,0.7-1.2,1.2c0,0-0.1,0-0.2,0c-0.1,0-0.1,0-0.2-0.1
			c0.2,0,0.3-0.3,0.4-0.4c0.8-0.8,1.6-1.5,2.3-2.3c0.7-0.7,1.4-1.4,2-2.1c0.8-0.8,1.6-1.6,2.4-2.4c0.9-0.9,1.7-1.8,2.7-2.6
			c0.3-0.3,0.6-0.7,1-1c0.8-0.7,1.5-1.5,2.2-2.2c0.8-0.7,1.5-1.5,2.3-2.2c1.1-1.1,2.2-2.2,3.3-3.3c0.7-0.7,1.3-1.3,2-2
			c0.3-0.3,0.5-0.6,0.8-0.8c0.1-0.1,0.2-0.2,0.3-0.2c0.1,0,0.1,0,0.1,0.1C85,21.8,85,21.9,85,21.9z"/>
		<path class="st44" d="M45.4,17c0.1-0.4,0.3-0.7,0.5-1c0.3-0.2,0.6-0.5,0.9-0.8c1-0.9,1.9-1.9,2.8-2.9c1.2-1.2,2.4-2.4,3.6-3.6
			c0.1-0.1,0.3-0.2,0.3-0.5c0.5-0.3,0.9-0.6,1.4-0.8c0.1,0,0.1-0.1,0.2,0c0.1,0.1,0,0.2,0,0.2c-0.2,0.3-0.5,0.6-0.8,0.9
			c-1,0.9-1.9,2-2.9,2.9c-1.1,1.1-2.1,2.2-3.2,3.2c-0.8,0.8-1.6,1.7-2.5,2.5c-0.1,0.1-0.1,0.2-0.2,0.1C45.3,17.2,45.4,17.1,45.4,17z
			"/>
		<path class="st45" d="M72.7,31.5c0.1,0.3-0.2,0.6-0.1,0.9c0.2,0,0.2-0.1,0.3-0.2c0.9-0.9,1.8-1.8,2.8-2.7c0.5-0.5,1-1.1,1.6-1.6
			c0.8-0.7,1.5-1.5,2.3-2.3c0.7-0.6,1.3-1.3,2-1.9c0.7-0.7,1.4-1.4,2.1-2.1c0.4-0.4,0.8-0.8,1.2-1.1c0,0.1,0.1,0.1,0.1,0.2
			c0,0.1,0,0.2,0,0.3c-1.3,1.2-2.6,2.5-3.9,3.8c-0.5,0.5-0.9,0.9-1.4,1.4c-0.8,0.8-1.6,1.6-2.3,2.4c-0.5,0.5-0.9,0.9-1.3,1.4
			c-0.6,0.6-1.2,1.2-1.8,1.8c-0.6,0.6-1.2,1.1-1.7,1.7c-0.1,0.1-0.2,0.2-0.3,0.1c0-0.1,0-0.1,0-0.2c0.1-0.1,0.2-0.3,0.2-0.4
			c0.1-0.4,0.2-0.7,0.3-1.1C72.5,31.7,72.5,31.5,72.7,31.5z"/>
		<path class="st46" d="M45.4,17c0,0.1,0,0.1,0,0.2c0.8-0.6,1.4-1.4,2.1-2.1c0.7-0.6,1.3-1.3,2-2c0.8-0.8,1.5-1.6,2.3-2.3
			c0.8-0.8,1.5-1.6,2.4-2.4c0.3-0.3,0.5-0.5,0.8-0.9c0.1-0.2,0-0.1-0.1-0.2c0.4-0.2,0.8-0.4,1.2-0.6c-0.2,0.4-0.5,0.7-0.8,0.9
			c-0.5,0.4-0.9,0.9-1.4,1.4c-0.5,0.5-1,0.9-1.4,1.4c-0.5,0.5-1,1-1.5,1.6c-0.4,0.4-0.7,1-1.3,1.3c-0.3,0.2-0.4,0.5-0.6,0.7
			c-0.4,0.4-0.8,0.8-1.2,1.2c-0.4,0.3-0.7,0.7-1,1.1c-0.4,0.4-0.8,0.8-1.3,1.2c-0.2,0.2-0.3,0.4-0.4,0.5C45,18.1,45,18,45,18
			C45.1,17.6,45.2,17.3,45.4,17z"/>
		<path class="st47" d="M75.4,44.3c-0.2-0.1-0.1-0.2,0-0.3c0.5-0.4,0.8-0.9,1.3-1.2c0.2-0.1,0.3-0.3,0.4-0.5
			c1.4-1.4,2.8-2.8,4.2-4.2c0.8-0.8,1.6-1.6,2.4-2.5c0.1-0.2,0.3-0.3,0.5-0.3c-0.1,0.3-0.2,0.7-0.4,1c-0.5,0.3-0.8,0.8-1.2,1.2
			c-0.7,0.7-1.3,1.3-2,2c-0.5,0.5-1,1-1.5,1.6c-0.9,0.9-1.7,1.8-2.6,2.7c-0.2,0.1-0.2,0.4-0.4,0.5C75.9,44.2,75.7,44.2,75.4,44.3z"
			/>
		<path class="st48" d="M44.5,22.9C44.5,22.9,44.5,22.9,44.5,22.9c0.2-0.2,0.4-0.3,0.5-0.5c0.8-0.8,1.6-1.6,2.3-2.4
			c0.6-0.6,1.2-1.3,1.9-1.8c0.6-0.5,1.1-1.2,1.7-1.7c0.6-0.6,1.2-1.2,1.8-1.8c0.6-0.6,1.3-1.2,1.9-1.9c0.6-0.6,1.2-1.2,1.8-1.8
			c0.7-0.7,1.4-1.5,2.2-2.2c0.5-0.4,0.8-0.9,1.3-1.3c0.4-0.3,0.7-0.7,1.1-1c0.4-0.3,0.7-0.7,1-1.1c0,0,0-0.1,0.1-0.1
			c0.1,0,0.2,0,0.4,0c-0.1,0.3-0.3,0.5-0.5,0.7c-0.7,0.7-1.3,1.4-2,2c-0.7,0.6-1.2,1.3-1.9,1.9c-0.5,0.4-0.9,0.9-1.4,1.4
			c-0.7,0.6-1.3,1.4-2,2c-0.5,0.5-1,1-1.5,1.5c-0.8,0.7-1.5,1.5-2.3,2.3c-0.6,0.5-1.1,1.1-1.6,1.6c-0.8,0.8-1.6,1.6-2.4,2.4
			c-0.5,0.5-0.9,1-1.5,1.5c-0.2,0.2-0.4,0.4-0.7,0.6C44.4,23.1,44.5,23,44.5,22.9z"/>
		<path class="st49" d="M76.1,44.1c0.5-0.8,1.3-1.4,1.9-2.1c0.3-0.4,0.7-0.7,1.1-1.1c0.4-0.4,0.7-0.7,1.1-1.1c0.5-0.5,1-1,1.5-1.5
			c0.6-0.6,1.2-1.1,1.7-1.8c0.1-0.1,0.3-0.2,0.5-0.3c-0.2,0.5-0.4,0.9-0.6,1.4c-0.2,0.1-0.3,0.1-0.4,0.3c-0.5,0.5-1,1.1-1.5,1.6
			c-0.8,0.8-1.6,1.6-2.4,2.4c-0.5,0.5-0.9,1-1.4,1.4c-0.1,0.1-0.1,0.2-0.2,0.3C77,43.8,76.5,44,76.1,44.1z"/>
		<path class="st50" d="M72.2,44.7c-0.1,0-0.1,0-0.2,0c-0.1-0.2,0.1-0.3,0.2-0.4c0.7-0.7,1.4-1.4,2.1-2.1c1.3-1.3,2.6-2.6,3.9-3.9
			c0.6-0.6,1.2-1.3,1.9-1.9c0.8-0.8,1.6-1.6,2.4-2.4c0.7-0.7,1.4-1.4,2.1-2.1c0.1-0.1,0.3-0.3,0.5-0.3c0,0.1,0,0.1,0.1,0.1
			c0,0.1-0.1,0.3-0.1,0.4c-0.2-0.1-0.3,0-0.3,0.1c-0.7,0.7-1.4,1.4-2.1,2.1c-1.8,1.8-3.5,3.5-5.3,5.3c-1.7,1.7-3.3,3.3-5,4.9
			C72.3,44.7,72.3,44.7,72.2,44.7C72.2,44.7,72.2,44.7,72.2,44.7z"/>
		<path class="st51" d="M72.3,44.6c0.3-0.3,0.6-0.6,0.9-0.9c1.2-1.2,2.5-2.4,3.7-3.6c1.3-1.3,2.6-2.6,3.8-3.9c1.3-1.3,2.7-2.7,4-4
			c0.1-0.1,0.2-0.2,0.3,0c-0.1,0.1,0,0.3-0.1,0.4c0,0,0,0-0.1,0c-0.2,0-0.3,0.1-0.3,0.2c-0.5,0.5-1,1-1.5,1.5
			c-1.1,1.1-2.2,2.2-3.3,3.3c-0.9,0.9-1.7,1.7-2.6,2.6c-1.5,1.5-3,3-4.5,4.5c0,0-0.1,0-0.1,0.1C72.6,44.7,72.4,44.7,72.3,44.6z"/>
		<path class="st52" d="M84.6,34.1c-1.1,1-2.1,2.1-3.2,3.2c-1.3,1.3-2.6,2.6-3.9,3.9c-1,1-1.9,1.9-2.9,2.9c-0.1,0.1-0.3,0.3-0.4,0.4
			c-0.1,0-0.2,0.1-0.3,0.1c0-0.3,0.3-0.4,0.5-0.6c0.5-0.6,1.1-1.1,1.7-1.7c0.8-0.8,1.6-1.6,2.4-2.4c0.4-0.4,0.8-0.8,1.2-1.2
			c0.7-0.7,1.3-1.3,2-2c1-1,1.9-1.9,2.9-2.9c0.1-0.1,0.1-0.1,0.2-0.1C84.7,33.9,84.7,34,84.6,34.1z"/>
		<path class="st53" d="M46.5,14.9c0.9-1.4,2-2.6,3.2-3.8c0.9-0.9,2-1.7,3-2.5c0,0,0.1,0,0.1,0c0.1,0,0.1,0,0.1,0.1
			c0,0.1-0.2,0.2-0.2,0.3c-1.9,1.9-3.8,3.8-5.6,5.6c-0.1,0.1-0.2,0.3-0.4,0.3C46.5,15.1,46.4,15.1,46.5,14.9z"/>
		<path class="st54" d="M46.5,14.9C46.5,15,46.5,15.1,46.5,14.9c0.2,0,0.3-0.1,0.4-0.2c1.9-1.9,3.9-3.9,5.8-5.8
			c0.1-0.1,0.2-0.1,0.1-0.3c0.2-0.2,0.4-0.3,0.6-0.4c0.1,0,0.2,0,0.1,0.1c-0.1,0.1-0.2,0.3-0.3,0.4c-0.8,0.8-1.6,1.5-2.3,2.3
			c-1.4,1.4-2.8,2.9-4.2,4.3c-0.2,0.2-0.5,0.5-0.7,0.7c-0.1,0.1-0.1,0.2-0.2,0C46,15.6,46.3,15.3,46.5,14.9z"/>
		<path class="st55" d="M77.4,43.6c-0.1-0.2,0.1-0.3,0.1-0.4c0.8-0.8,1.5-1.5,2.3-2.3c1-1,2.1-2.1,3.1-3.1c0.1-0.1,0.2-0.3,0.4-0.1
			c0,0.1-0.1,0.1-0.1,0.2c-0.6,0.8-1.4,1.5-2.1,2.2c-0.9,0.9-1.8,1.9-2.8,2.8c-0.1,0.1-0.2,0.2-0.3,0.2c-0.2,0.1,0,0.1,0,0.2
			C77.9,43.4,77.6,43.5,77.4,43.6z"/>
		<path class="st56" d="M78.1,43.2c-0.1-0.1-0.1-0.1,0-0.3c0.6-0.6,1.3-1.2,1.9-1.9c0.7-0.7,1.3-1.3,2-2c0.3-0.3,0.6-0.6,0.9-0.8
			c0.2-0.1,0.1-0.4,0.4-0.4c-0.3,0.5-0.5,1-0.9,1.5c-0.6,0.3-0.9,0.8-1.3,1.2c-0.7,0.8-1.6,1.5-2.2,2.3C78.6,43,78.3,43.1,78.1,43.2
			z"/>
		<path class="st57" d="M78.8,42.8c0.1-0.3,0.4-0.6,0.7-0.8c0.8-0.7,1.5-1.5,2.2-2.2c0.2-0.2,0.3-0.4,0.7-0.4
			c-0.7,1-1.5,1.9-2.4,2.7C79.6,42.3,79.2,42.6,78.8,42.8z"/>
		<path class="st0" d="M77.5,9.8c-0.2,0.1-0.4,0.3-0.7,0.4c0.1,0.2,0.5,0.4-0.1,0.5c0,0-0.1,0-0.1,0.1c0.1,0.4-0.2,0.2-0.4,0.3
			c0,0,0-0.1,0-0.1c-0.2-0.3-0.1-0.5,0.2-0.7c0.2-0.1,0.3-0.2,0.4-0.4c0-0.1,0.1-0.2,0.3-0.1c0.1,0.1,0.2,0.1,0.2,0
			C77.4,9.7,77.4,9.7,77.5,9.8z"/>
		<path class="st51" d="M73,44.6c0.1,0,0.2,0,0.2,0.1c-1.3,0.2-2.7,0.2-4,0c0.2,0,0.5,0,0.7,0c0.1,0,0.3,0,0.4,0
			c0.3,0.2,0.7,0,1.1,0.1c0.2,0,0.5,0.1,0.7-0.1h0c0.2-0.1,0.5,0,0.7-0.1C73,44.6,73,44.6,73,44.6z"/>
		<path class="st31" d="M84.7,21c0-0.1,0-0.2,0-0.3c0.1,0.3,0.2,0.7,0.3,1c0,0-0.1,0-0.1-0.1c0-0.1,0-0.3-0.1-0.4
			C84.7,21.2,84.7,21.1,84.7,21z"/>
		<path class="st58" d="M63.9,5.2c-0.1,0-0.1,0-0.1-0.1c0.4,0,0.8,0,1.1,0c-0.1,0.1-0.2,0.1-0.3,0.1C64.4,5.2,64.1,5.2,63.9,5.2z"/>
		<path class="st43" d="M62.3,42.9c0.1,0,0.1,0,0.2,0c0.2,0,0.3,0,0.4,0.1c0,0,0,0.1,0.1,0.1C62.7,43.1,62.5,43,62.3,42.9z"/>
		<path class="st5" d="M73.6,7.5c-0.1,0-0.1-0.1-0.1-0.2c0.2,0.1,0.4,0.1,0.5,0.3C73.9,7.5,73.7,7.5,73.6,7.5z"/>
		<path class="st5" d="M74.3,7.8c0-0.1-0.1-0.1-0.1-0.2c0.1,0.1,0.3,0.1,0.3,0.2C74.4,7.8,74.4,7.9,74.3,7.8z"/>
		<path class="st59" d="M85.5,25.1C85.5,25.1,85.5,25.1,85.5,25.1C85.5,25.2,85.5,25.2,85.5,25.1c-0.1,0-0.1-0.1-0.1-0.2
			c0-0.1,0-0.2,0-0.3C85.5,24.7,85.5,24.9,85.5,25.1z"/>
		<path class="st60" d="M61.5,5.5c-0.2,0-0.4,0-0.6,0c0,0,0-0.1,0-0.1c0,0,0,0,0,0C61.2,5.4,61.3,5.4,61.5,5.5
			C61.6,5.4,61.6,5.5,61.5,5.5z"/>
		<path class="st22" d="M66.7,44.3c0.1-0.1,0.3-0.2,0.4,0.1C66.9,44.3,66.8,44.3,66.7,44.3z"/>
		<path class="st21" d="M61.5,5.4c-0.2,0-0.3,0-0.5,0C61.2,5.4,61.4,5.4,61.5,5.4C61.5,5.3,61.6,5.4,61.5,5.4
			C61.6,5.4,61.6,5.4,61.5,5.4z"/>
		<path class="st9" d="M65.5,5.2c-0.1,0-0.3,0-0.4,0C65.2,5.2,65.3,5.1,65.5,5.2z"/>
		<path class="st1" d="M50.7,34.9c0.1,0,0.2,0.1,0.3,0.3C50.8,35.1,50.7,35,50.7,34.9z"/>
		<path class="st16" d="M64.6,43.7c0.1,0,0.3,0,0.4,0.1C64.9,43.8,64.8,43.8,64.6,43.7z"/>
		<path class="st38" d="M45,18c0,0.1,0,0.2,0,0.2c0,0-0.1,0.1-0.1,0.1C44.9,18.2,45,18.1,45,18z"/>
		<path class="st61" d="M69.3,18.6c0-0.1,0.1-0.2,0.1-0.2c0.1-0.3,0.4-0.5,0.7-0.6c0,0,0,0,0.1,0c1-0.3,1.8-0.1,2.3,0.6
			c0.5,0.7,0.5,1.7-0.1,2.4c-0.6,0.7-1.6,0.9-2.4,0.4c-0.8-0.5-1.1-1.4-0.8-2.3C69.2,18.8,69.2,18.7,69.3,18.6z"/>
		<path class="st62" d="M67.4,30.6c0.1-0.4,0.2-0.8,0.3-1.2c0.2,0,0.1-0.1,0.1-0.2c0-0.5,0-1,0-1.5c0.1,0.1,0,0.2,0.1,0.3
			c0.4-0.5,1.2-0.7,1.2-1.5c0,0.2,0,0.5,0,0.7c0,0,0,0,0,0c0,0-0.1,0-0.1,0c-0.1,0.1-0.1,0.2-0.1,0.3c0,0.5,0,1,0,1.5
			c0,0.4-0.1,0.7-0.4,1c-0.3,0.2-0.4,0.6-0.7,0.8c-0.1,0.1-0.2,0.2-0.4,0.2C67.3,30.9,67.5,30.8,67.4,30.6z"/>
		<path class="st61" d="M57.1,29.7c0-0.1,0-0.2-0.1-0.4c-0.1-0.7-0.1-1.3,0.1-2c0,0,0-0.1,0-0.1c0.2-0.7,0.4-1.4,0.9-2.1
			c0.9-1.3,2.1-2.1,3.7-2.3c0.1,0,0.2,0,0.2-0.1c0.5-0.1,1-0.1,1.5,0.1c0.4,0.1,0.8,0,1.1,0.4c1.6,0.7,2.5,2,3,3.6
			c0.2,0.8,0.2,1.6,0.2,2.4c-0.1,1.2-0.7,2.4-1.5,3.3c-0.7,0.8-1.6,1.2-2.6,1.5c-1.1,0.2-2.1,0.2-3.1-0.2c-1.7-0.7-2.7-2-3.2-3.7
			C57.2,30,57.2,29.8,57.1,29.7z"/>
		<path class="st8" d="M64.5,23.2c-0.4-0.1-0.8-0.2-1.1-0.4c0.1,0,0.3-0.1,0.4,0C64.2,22.7,64.4,22.9,64.5,23.2
			c0.1-0.1,0.2-0.1,0.2,0C64.7,23.2,64.6,23.2,64.5,23.2z"/>
		<path class="st63" d="M70.6,17.6c0.1-0.1,0.1-0.1,0.2-0.1c0.2,0,0.4,0,0.6,0c0,0,0,0,0,0.1C71.1,17.6,70.8,17.6,70.6,17.6z"/>
		<path class="st64" d="M67.6,27.6c0-0.1,0-0.2,0-0.3C67.7,27.4,67.7,27.5,67.6,27.6C67.6,27.6,67.6,27.6,67.6,27.6z"/>
		<path class="st8" d="M63.4,22.9c-0.5-0.1-1-0.1-1.5-0.1c-0.1,0-0.3,0-0.4,0c0,0,0,0,0,0c0,0,0,0,0.1,0c0.4,0,0.8,0,1.2,0
			c0.1,0,0.2,0,0.3-0.2c0.2-0.4,0.5-0.7,1.1-0.7c-0.5-0.3-0.3-0.4,0-0.6c0.4-0.4,0.9-0.6,1.2-1.1c0-0.1,0.1-0.2,0.2-0.2
			c0.3-0.1,0.4-0.5,0.7-0.7c0.4-0.4,0.8-0.7,1.2-1.1c0.1,0.2-0.1,0.4,0.2,0.4c0-0.4,0.1-0.8,0.5-1.1c0.5-0.5,1-1,1.5-1.5
			c0.4-0.4,0.6-0.9,1.2-1c0,0,0.1,0,0.1-0.1c0.6-1,1.5-1.7,2.3-2.5c0.1-0.1,0.2-0.1,0.3-0.1c-0.1,0.2-0.4,0.3-0.4,0.6
			c0,0-0.1,0.1-0.1,0.1c-0.7,0.1-0.8,0.7-1.1,1.2c-0.1,0.2-0.1,0.3-0.3,0.5c-0.1,0.1-0.1,0.1-0.2,0.1c-0.2-0.1-0.3,0-0.2,0.2
			c0.1,0.2-0.1,0.4-0.2,0.5c-0.1,0.2-0.3,0.1-0.4,0c-0.1-0.1-0.6,0.3-0.6,0.4c0,0.1,0.1,0.1,0.2,0.1c0.1,0,0.2,0,0.2,0.2
			c0,0.1-0.2,0.3-0.3,0.2c-0.4-0.3-0.5-0.1-0.6,0.2c0,0.1-0.2,0.1-0.2,0.2c0,0.1,0.2,0,0.2,0.1c0.1,0.1,0.1,0.1,0.1,0.2
			c0,0.1-0.1,0.2-0.2,0.2c-0.1,0-0.1-0.1-0.1-0.1c0-0.1-0.1-0.2-0.2-0.1c-0.1,0.1-0.1,0.2,0,0.2c0.1,0.1,0.2,0.2,0.1,0.3
			c-0.1,0.1-0.2,0-0.3,0c-0.1,0-0.4,0.2-0.4,0.4c0,0.3,0,0.3-0.4,0.3c-0.2,0-0.2,0.2-0.2,0.3c0,0.2,0,0.3-0.2,0.3
			c-0.2,0-0.2,0.2-0.2,0.3c-0.1-0.1-0.1-0.4-0.3-0.2c-0.2,0.1,0,0.2,0.1,0.4c-0.2-0.1-0.3-0.3-0.5-0.1c0,0.1-0.1,0.1-0.1,0.2
			c0,0.1,0.1,0.1,0.2,0.1c0.1,0,0.2-0.1,0.2,0.1c0,0.1-0.1,0.2-0.2,0.3c-0.1,0.1-0.2,0.1-0.2-0.1c0-0.1-0.1-0.1-0.2-0.1
			c-0.1,0-0.1,0.1,0,0.2c0,0.1-0.2,0.5-0.3,0.5c0,0-0.1,0-0.1,0c0-0.1,0-0.1,0.1-0.1c0.1,0,0.1-0.1,0.1-0.2c-0.1-0.1-0.1,0-0.2,0
			c-0.1,0.1-0.3,0.2-0.4,0.3c-0.2,0.3-0.4,0.6-0.8,0.8c-0.2,0.1-0.2,0.4-0.5,0.5c-0.1,0,0,0.1,0,0.2c0.1,0.1,0.2,0.1,0.3,0
			c0.1-0.1,0.1-0.2,0.2-0.2c-0.1,0.3-0.2,0.5-0.5,0.5c-0.4,0-0.6,0.3-0.9,0.5C63,22.6,63.3,22.7,63.4,22.9z"/>
		<path class="st65" d="M73,27.7c-0.1-0.2,0-0.5-0.1-0.8C73.1,27.2,73,27.4,73,27.7z"/>
		<path class="st0" d="M69,27.3C69,27.3,69,27.3,69,27.3c0.1,0.9,0,1.8,0.1,2.6c0,0.4,0.1,0.8,0.1,1.3c-0.3-0.1,0-0.4-0.2-0.6
			c-0.1-0.3,0-0.6-0.1-0.9C69,28.9,69,28.1,69,27.3z"/>
		<path class="st66" d="M69,29.7c0.1,0.3,0,0.6,0.1,0.9C68.9,30.3,69,30,69,29.7z"/>
		<path class="st5" d="M73.4,8.4c-0.1,0.2-0.2,0.3-0.4,0.4C73.2,8.7,73.2,8.4,73.4,8.4z"/>
		<path class="st0" d="M74.7,12.7c0.1,0.1,0.2,0.3-0.1,0.3c-0.1,0-0.2,0.1-0.2,0.2c0,0.2-0.1,0.3-0.3,0.3c-0.1,0-0.3,0-0.4-0.2
			c0-0.2,0.1-0.3,0.1-0.5c0-0.1,0.1,0,0.2,0c0,0.1,0,0.2,0.2,0.1c0.1,0,0.1-0.1,0-0.2c0-0.1,0-0.1,0-0.2c0-0.1,0-0.1,0.1-0.1
			c0.2,0.1,0.3-0.2,0.5-0.2c0.1,0,0.1-0.1,0-0.1c0,0-0.1-0.1-0.2,0c0,0.1-0.1,0.1-0.2,0.1c-0.1-0.1,0-0.2,0-0.2
			c0.3-0.1,0.4-0.5,0.8-0.4c0.2,0.1,0-0.2,0.1-0.3c0.2,0.1,0.5,0.1,0.6-0.1c0-0.1,0.1-0.1,0.2-0.1c0,0.1,0.1,0.1,0.1,0.2
			c0,0.1-0.1,0.1-0.1,0.2c-0.2,0.2-0.5,0.3-0.6,0.6c0,0-0.1,0.1-0.1,0.1c-0.3-0.1-0.3-0.1-0.3,0.3c0,0.2-0.2,0.3-0.4,0.4
			C74.9,12.8,74.8,12.6,74.7,12.7z"/>
		<path class="st0" d="M70.1,17.8c-0.3,0.2-0.5,0.4-0.7,0.6c-0.3-0.1-0.3-0.3-0.2-0.6c0.1-0.2-0.1-0.4,0.1-0.5
			c0.1,0,0.1-0.1,0.2-0.1c0.1,0,0,0.1,0,0.2c0,0.1,0,0.2,0,0.2c0,0.1,0,0.1,0.1,0.1c0.1,0,0.2,0,0.1-0.1c-0.2-0.2,0-0.4,0.1-0.5
			c0-0.1-0.2,0.1-0.2-0.1c0-0.1,0.1-0.2,0.2-0.2c0.1-0.1,0.2-0.1,0.2,0.1c0,0.1,0.2,0.1,0.3,0.1c0.1,0,0.2,0,0.2,0.2
			c0,0.1,0,0.2-0.2,0.2C70,17.3,70,17.5,70.1,17.8z"/>
		<path class="st0" d="M67.4,19.2c0.3,0,0.5,0,0.5-0.3c0-0.1,0.2-0.2,0.3-0.1c0.2,0.1,0.4,0,0.5-0.1c0.1-0.1,0.2-0.2,0.3-0.1
			c0.1,0.1-0.1,0.2-0.1,0.2c-0.1,0.1-0.2,0.2-0.3,0.4c-0.1,0.2-0.3,0.3-0.4-0.1c-0.1,0.5-0.4,0.9-0.7,1.3c-0.2-0.1,0-0.2-0.1-0.2
			c0-0.1,0-0.3-0.3-0.2C67,20,67,19.9,66.9,19.8c0,0,0-0.1,0-0.1c0.1,0,0.1-0.1,0.3-0.1c0.1,0,0.2,0.3,0.3,0.1
			C67.6,19.6,67.7,19.4,67.4,19.2z"/>
		<path class="st0" d="M73.6,13.5c-0.1,0.1,0,0.2,0,0.3c0,0.1,0,0.3-0.2,0.2c-0.2-0.1-0.3,0.1-0.4,0.1c-0.1,0-0.1,0.1,0,0.1
			c0.5,0.2-0.1,0.3,0,0.5c0,0.1-0.1,0.1-0.2,0c-0.1,0-0.2-0.1-0.1-0.2c0-0.1,0.1-0.1,0-0.2c-0.1,0-0.1,0-0.2,0.1
			c-0.1,0.1-0.1,0.1-0.2,0c0,0-0.1-0.1,0-0.1c0-0.1,0.1-0.1,0.2-0.1c0.2,0,0.2-0.1,0.3-0.3c0.1-0.2,0.1-0.4,0.4-0.3
			c0.2,0,0-0.1,0.1-0.2c0-0.2,0.2-0.2,0.3-0.2C73.6,13.3,73.6,13.4,73.6,13.5z"/>
		<path class="st0" d="M72.2,14.9c0,0.2-0.1,0.2-0.2,0.3c-0.2,0-0.5,0-0.6,0.4c0,0.1-0.2,0.1-0.3,0.1c-0.1-0.1,0-0.2,0-0.2
			c0.2-0.3,0.5-0.4,0.7-0.7c0.1-0.1,0.1,0,0.2,0C72.2,14.7,72.3,14.8,72.2,14.9z"/>
		<path class="st0" d="M65.8,20.8c0-0.1,0.1-0.2,0.2-0.2c0.1-0.1,0.2-0.1,0.2,0c0.2,0.1,0.3,0.3,0.4,0.5c0.1,0.1,0,0.2-0.1,0.3
			c-0.1,0.1-0.2,0.1-0.3-0.1C66,21.2,65.8,21.1,65.8,20.8z"/>
		<path class="st0" d="M64.8,21.9c0.1,0.2,0.3,0.3,0.4,0.5c0,0,0,0,0,0c-0.3,0-0.3,0.3-0.5,0.3c-0.2,0.1-0.3-0.1-0.2-0.2
			c0-0.1,0-0.2,0-0.3C64.5,21.9,64.7,22,64.8,21.9z"/>
		<path class="st0" d="M64.6,23.2c-0.3-0.1-0.5-0.3-0.8-0.3c0-0.1,0.1-0.2,0.2-0.3c0.1-0.1,0.2-0.1,0.2,0c0,0.1,0.1,0.2,0.2,0.2
			C64.8,22.8,64.7,23,64.6,23.2z"/>
		<path class="st0" d="M69,17.9c-0.1,0.1-0.1,0.3-0.2,0.3c-0.1,0-0.2-0.1-0.2-0.2c0-0.2,0.1-0.3,0.3-0.3C68.9,17.7,69,17.8,69,17.9z
			"/>
		<path class="st0" d="M67.1,20.5c0,0.2-0.2,0.3-0.3,0.4c0,0-0.1,0-0.1,0c0-0.1-0.1-0.2,0.1-0.2c0.1,0,0.2-0.1,0.1-0.2
			c0-0.1-0.1-0.2,0.1-0.2C67.1,20.2,67.1,20.4,67.1,20.5z"/>
		<path class="st0" d="M70.8,16.2c-0.2,0.1-0.1,0.3-0.3,0.4c0,0-0.1-0.1-0.1-0.1c0.1-0.1,0-0.4,0.2-0.5C70.7,16,70.8,16.1,70.8,16.2
			z"/>
		<path class="st0" d="M71.4,16.3c-0.2,0.1-0.4,0.1-0.4,0.3c0,0.1-0.1,0.1-0.1,0.1c-0.1,0-0.1-0.1,0-0.2
			C71,16.2,71.1,16.2,71.4,16.3z"/>
		<path class="st0" d="M65.2,21.4c0.1,0,0.1,0.1,0.1,0.1c-0.1,0.1-0.1,0.3-0.2,0.3c-0.1,0-0.1,0-0.1-0.1
			C65,21.6,65.2,21.5,65.2,21.4z"/>
		<path class="st0" d="M70.9,15.8c0-0.1,0.1-0.1,0.1-0.1c0.1,0,0.2,0.1,0.2,0.2c0,0.1-0.1,0.1-0.2,0.1C71,15.9,70.9,15.9,70.9,15.8z
			"/>
		<path class="st0" d="M71.6,15.7c0.1,0,0.1,0.1,0.1,0.1c0,0.1,0,0.1-0.1,0.1c-0.1,0-0.2-0.1-0.1-0.2C71.4,15.8,71.5,15.7,71.6,15.7
			z"/>
		<path class="st0" d="M72.2,15.5c-0.1,0.1-0.2,0.2-0.3,0.1c0,0,0-0.1,0-0.1C72,15.3,72.1,15.4,72.2,15.5z"/>
		<path class="st0" d="M65.7,21.8c0,0.1-0.1,0.1-0.1,0.1c-0.1,0-0.1,0-0.2-0.1c0-0.1,0.1-0.1,0.1-0.1C65.6,21.7,65.7,21.7,65.7,21.8
			z"/>
		<path class="st0" d="M66.6,20.4C66.6,20.4,66.5,20.4,66.6,20.4c-0.1,0.1-0.2,0-0.2,0C66.4,20.3,66.4,20.3,66.6,20.4
			C66.5,20.3,66.6,20.3,66.6,20.4z"/>
		<path class="st0" d="M72.4,15.1C72.5,15.1,72.5,15.1,72.4,15.1c0.1,0.1,0,0.2,0,0.2C72.4,15.2,72.4,15.2,72.4,15.1
			C72.3,15.1,72.4,15.1,72.4,15.1z"/>
		<path class="st0" d="M65.8,21.4c0,0,0.1,0.1,0.1,0.1c0,0.1,0,0.1-0.1,0.1C65.7,21.5,65.7,21.5,65.8,21.4
			C65.7,21.4,65.7,21.4,65.8,21.4z"/>
		<path class="st67" d="M67.1,5.4c-0.1,0.1-0.3,0-0.4,0.1c0,0-0.1,0,0-0.1C66.8,5.3,66.9,5.4,67.1,5.4z"/>
		<path class="st59" d="M85.5,27.3c-0.1-0.1-0.1-0.1-0.2,0c-0.3,0.3-0.6,0.5-0.9,0.8c-0.5,0.5-0.9,1-1.5,1.5
			c-0.5,0.4-0.8,0.8-1.2,1.3c-0.4,0.4-0.9,0.8-1.3,1.3c-0.3,0.3-0.6,0.6-0.9,0.9c-0.4,0.4-0.8,0.8-1.2,1.2c-0.4,0.4-0.8,0.8-1.2,1.1
			c-0.5,0.5-1,1.1-1.6,1.6c-0.4,0.3-0.8,0.7-1.1,1.1c-0.5,0.6-1,1-1.5,1.5c-0.8,0.7-1.5,1.5-2.3,2.3c-0.5,0.5-1.1,1-1.5,1.6
			c-0.2,0.3-0.6,0.5-0.9,0.9c-0.1,0.2-0.4,0.1-0.7,0c-0.1-0.1,0-0.2,0.1-0.3c0.3-0.3,0.6-0.6,0.8-0.8c2.5-2.5,4.9-4.9,7.4-7.4
			c0.7-0.7,1.4-1.5,2.2-2.2c1.6-1.5,3.1-3.1,4.6-4.6c0.9-0.9,1.7-1.7,2.6-2.6c0.1-0.1,0.1-0.1,0.2-0.2c0.1,0,0,0.1,0.1,0.1
			C85.5,26.7,85.5,27,85.5,27.3z"/>
		<path class="st68" d="M85.5,26.3c-0.1,0-0.1-0.1-0.1-0.1c0-0.3,0-0.6,0-0.9c0-0.1,0-0.1,0-0.2c0,0,0,0,0.1,0
			C85.5,25.5,85.5,25.9,85.5,26.3z"/>
		<path class="st3" d="M69.4,32c0.1,0.2,0.2,0.4,0.2,0.6C69.4,32.4,69.4,32.2,69.4,32z"/>
		<path class="st1" d="M57.1,27.3c-0.1,0.7-0.1,1.3-0.1,2C56.9,29.2,57,29,57,28.8c0-0.4,0-0.7,0-1.1C57,27.6,57,27.4,57.1,27.3z"/>
		<path class="st29" d="M61.5,5.4C61.5,5.4,61.5,5.4,61.5,5.4c0.1-0.1,0.2-0.1,0.4-0.1c0,0,0,0,0,0.1C61.8,5.5,61.7,5.6,61.5,5.4
			C61.5,5.5,61.5,5.5,61.5,5.4C61.5,5.5,61.5,5.5,61.5,5.4z"/>
		<path class="st69" d="M85.4,27.7C85.5,27.7,85.5,27.7,85.4,27.7c0.1,0.4,0.1,0.7,0.1,1.1c0,0,0,0,0,0c-0.1,0,0,0-0.1-0.1
			c0-0.2,0-0.4,0-0.6C85.4,28,85.4,27.8,85.4,27.7z"/>
		<path class="st70" d="M70.7,34.1c0.6,0.1,1-0.2,1.3-0.6c0.3,0,0.4-0.4,0.6-0.6c0.5-0.4,0.9-0.8,1.3-1.2c0.3-0.3,0.6-0.5,0.8-0.8
			c0.8-0.8,1.6-1.5,2.3-2.4c0.7-0.7,1.4-1.4,2.1-2.1c1.2-1.2,2.5-2.5,3.7-3.8c0.5-0.5,1.1-0.9,1.5-1.5c0.1-0.1,0.2-0.2,0.4-0.2
			c0.1,0.1,0.1,0.1,0.1,0.2c-0.5,0.2-0.8,0.6-1.1,1c-0.2,0.1-0.3,0.3-0.5,0.5c-1.2,1.2-2.4,2.4-3.6,3.7c-0.5,0.5-1,1-1.5,1.4
			c-1.7,1.7-3.3,3.4-5,5.1c-0.8,0.8-1.5,1.5-2.3,2.3c-0.9,0.9-1.9,1.9-2.8,2.8c-1.2,1.2-2.4,2.4-3.6,3.6c-0.5,0.5-1.1,1-1.5,1.5
			c-0.2,0-0.3,0-0.4-0.1c-0.1-0.1,0-0.2,0.1-0.3c2.7-2.7,5.4-5.4,8-8.1c0.1-0.1,0.3-0.2,0.5-0.2C71,34.2,70.8,34.4,70.7,34.1z"/>
		<path class="st48" d="M61.5,5.5c0.1-0.1,0.2-0.1,0.4-0.1c0.1,0.2-0.1,0.2-0.1,0.3c-0.9,0.8-1.7,1.7-2.6,2.5
			c-0.8,0.8-1.5,1.6-2.3,2.3c-0.5,0.5-1,1.1-1.6,1.6c-0.6,0.5-1.2,1.1-1.7,1.8c-0.2,0.3-0.5,0.5-0.8,0.7c-0.7,0.7-1.5,1.5-2.2,2.2
			c-0.3,0.3-0.5,0.5-0.7,0.8c-0.2,0.3-0.5,0.4-0.8,0.7c-0.4,0.6-1,1-1.5,1.5c-0.3,0.3-0.6,0.6-1,0.9c-0.1,0.1-0.2,0.3-0.3,0.4
			c-0.6,0.6-1.1,1.2-1.8,1.7c0-0.2,0-0.3,0.2-0.5c1.1-1.1,2.2-2.2,3.3-3.2c1.3-1.3,2.6-2.7,4-4c0.8-0.7,1.4-1.5,2.2-2.2
			c0.6-0.5,1.1-1,1.7-1.6c0.9-0.9,1.7-1.8,2.6-2.7C59,8.3,59.5,7.7,60,7.1c0.5-0.5,1-1,1.4-1.5C61.5,5.6,61.5,5.6,61.5,5.5z"/>
		<path class="st71" d="M85.1,31.6c-0.9,0.7-1.6,1.5-2.4,2.3c-0.2,0.2-0.4,0.3-0.5,0.5c-1.1,1.1-2.2,2.2-3.3,3.3
			c-2.2,2.2-4.4,4.4-6.6,6.6c-0.1,0.1-0.3,0.2-0.3,0.4c-0.1,0-0.2,0-0.3-0.1c0-0.1,0.1-0.2,0.1-0.2c0.9-0.8,1.7-1.7,2.6-2.6
			c0.4-0.4,0.9-0.8,1.3-1.2c0.6-0.7,1.3-1.2,1.8-1.8c0.3-0.4,0.8-0.8,1.2-1.2c0.3-0.3,0.7-0.7,1-1c0.6-0.6,1.1-1.2,1.7-1.7
			c0.6-0.5,1.1-1.1,1.6-1.6c0.2-0.2,0.5-0.5,0.7-0.7c0.4-0.3,0.7-0.7,1-1.1c0.1-0.1,0.1-0.2,0.3-0.2C85.2,31.3,85.1,31.5,85.1,31.6z
			"/>
		<path class="st72" d="M73,44.6C73,44.6,73,44.6,73,44.6c-0.1,0-0.2,0-0.3,0c0-0.2,0.1-0.2,0.2-0.3c1.1-1.1,2.3-2.3,3.4-3.4
			c1-1,2-2,3-3c0.7-0.7,1.4-1.5,2.2-2.2c0.7-0.7,1.3-1.4,2-2c0.4-0.4,0.7-0.8,1.1-1.1c0.1-0.1,0.2-0.3,0.3,0c-0.1,0.1,0,0.4-0.1,0.5
			c0-0.1-0.1-0.1-0.1-0.1c-0.1,0.1-0.3,0.2-0.4,0.3c-0.2,0.5-0.7,0.7-1,1.1c-0.6,0.6-1.2,1.1-1.7,1.8c-0.5,0.7-1.2,1.2-1.8,1.8
			c-1,1.1-2,2.1-3,3c-0.8,0.7-1.5,1.5-2.3,2.3C74,43.7,73.5,44.2,73,44.6z"/>
		<path class="st72" d="M84.8,33.1c0,0.1,0,0.2,0,0.3c0,0,0,0,0,0C84.7,33.3,84.7,33.2,84.8,33.1z"/>
		<path class="st43" d="M72,33.4c0.1-0.1,0.2-0.3,0.2-0.4C72.2,33.1,72.2,33.3,72,33.4z"/>
		<path class="st71" d="M72.7,44.6c0.1,0,0.1,0,0.2,0c-0.2,0.2-0.5,0-0.8,0.1c0-0.1,0.1-0.1,0.1-0.1C72.5,44.6,72.6,44.6,72.7,44.6z
			"/>
		<path class="st0" d="M64.6,28.4c0,1-0.2,1.7-0.8,2.4c-0.8,1-2.2,0.9-3,0c-0.9-1.1-1-3.1-0.1-4.3c0.9-1.3,2.7-1.2,3.5,0.2
			C64.5,27.2,64.6,27.8,64.6,28.4z"/>
		<path class="st61" d="M72.6,31.5c-0.1,0.6-0.3,1.2-0.6,1.8c-0.1,0.2-0.2,0.4-0.3,0.6c-0.2,0.3-0.6,0.5-0.9,0.4
			c-0.2-0.1-0.3-0.2-0.5-0.3c-1.1-1.1-1.3-2.8-1.4-4.2c-0.1-1.1,0-2.2,0.2-3.4c0.2-1,0.4-2.2,1-3c0.5-0.6,1.1-0.6,1.5,0
			c0.8,1.1,1,2.6,1.1,3.9C73,28.7,73,30.1,72.6,31.5z"/>
	</g>
</g>
</svg>
