<?xml version="1.0" encoding="utf-8"?>
<!-- Generator: Adobe Illustrator 22.0.1, SVG Export Plug-In . SVG Version: 6.00 Build 0)  -->
<svg version="1.1" id="Layer_1" xmlns="http://www.w3.org/2000/svg" xmlns:xlink="http://www.w3.org/1999/xlink" x="0px" y="0px"
	 viewBox="0 0 130 50" style="enable-background:new 0 0 130 50;" xml:space="preserve">
<style type="text/css">
	.st0{fill:url(#XMLID_2_);}
	.st1{fill:url(#XMLID_3_);}
	.st2{fill:#392125;}
</style>
<g>
	<g id="XMLID_4_">
		
			<linearGradient id="XMLID_2_" gradientUnits="userSpaceOnUse" x1="35.3379" y1="242.2913" x2="35.3379" y2="272.5627" gradientTransform="matrix(1 0 0 1 0 -232.4)">
			<stop  offset="0.3" style="stop-color:#FF1B2D"/>
			<stop  offset="0.4381" style="stop-color:#FA1A2C"/>
			<stop  offset="0.5939" style="stop-color:#ED1528"/>
			<stop  offset="0.7581" style="stop-color:#D60E21"/>
			<stop  offset="0.9272" style="stop-color:#B70519"/>
			<stop  offset="1" style="stop-color:#A70014"/>
		</linearGradient>
		<path id="XMLID_5_" class="st0" d="M32.8,33.8c-1.7-2-2.8-5-2.9-8.4v-0.7c0.1-3.4,1.2-6.4,2.9-8.4c2.2-2.9,5.5-4.7,9.3-4.7
			c2.3,0,4.5,0.7,6.3,1.9c-2.7-2.5-6.4-4-10.4-4c-0.1,0-0.1,0-0.1,0c-8.6,0-15.6,7-15.6,15.6c0,8.4,6.6,15.2,14.9,15.6
			c0.2,0,0.5,0,0.7,0c4,0,7.6-1.5,10.4-4c-1.8,1.2-4,1.9-6.3,1.9C38.4,38.6,35.1,36.7,32.8,33.8z"/>
		<g id="XMLID_8_">
			
				<linearGradient id="XMLID_3_" gradientUnits="userSpaceOnUse" x1="43.1759" y1="244.0755" x2="43.1759" y2="270.849" gradientTransform="matrix(1 0 0 1 0 -232.4)">
				<stop  offset="0" style="stop-color:#9C0000"/>
				<stop  offset="0.7" style="stop-color:#FF4B4B"/>
			</linearGradient>
			<path id="XMLID_50_" class="st1" d="M32.8,16.2c1.4-1.7,3.3-2.7,5.3-2.7c4.5,0,8.3,5.2,8.3,11.5s-3.7,11.5-8.3,11.5
				c-2,0-3.9-1-5.3-2.7c2.2,2.9,5.5,4.7,9.3,4.7c2.3,0,4.5-0.7,6.3-1.9c3.2-2.9,5.2-7,5.2-11.6s-2-8.8-5.2-11.6
				c-1.8-1.2-4-1.9-6.3-1.9C38.4,11.4,35.1,13.3,32.8,16.2z"/>
		</g>
	</g>
	<g id="XMLID_9_">
		<path id="XMLID_10_" class="st2" d="M77.8,22.5c-1.4,0-2.6,0.6-3.4,1.7v-1.4h-1.1v12.7h1.1v-4.5c0.8,1.1,2,1.7,3.4,1.7
			c2.6,0,4.7-2.2,4.7-5C82.4,24.8,80.4,22.5,77.8,22.5z M77.8,31.5c-2,0-3.6-1.7-3.6-4s1.6-4,3.6-4s3.6,1.7,3.6,4
			C81.3,29.7,79.7,31.5,77.8,31.5z"/>
		<path id="XMLID_13_" class="st2" d="M65.5,18.8c-3.7,0-6.7,3.2-6.7,7s3,7,6.7,7s6.7-3.2,6.7-7S69.2,18.8,65.5,18.8z M65.5,31.8
			c-3.1,0-5.6-2.7-5.6-6s2.5-6,5.6-6s5.6,2.7,5.6,6C71.1,29.1,68.6,31.8,65.5,31.8z"/>
		<path id="XMLID_16_" class="st2" d="M97.8,22.6c-0.4,0-0.7,0.1-1.1,0.3c-0.7,0.4-1.2,0.9-1.5,1.7c0,0,0,0.1-0.1,0.1l0,0
			c0-0.6,0-1.2,0-1.7l0,0l0,0h-1.1l0,0c0,3.2,0,6.3,0,9.5c0.4,0,0.7,0,1.1,0l0,0c0-0.1,0-0.1,0-0.1c0-1.7,0-3.2,0-4.9
			c0-0.7,0.1-1.3,0.4-1.8c0.2-0.5,0.5-1,0.9-1.3c0.5-0.4,1.1-0.6,1.7-0.5c0.1,0,0.2,0.1,0.3,0.1c0.1-0.3,0.2-0.7,0.3-1.1
			C98.5,22.6,98.1,22.6,97.8,22.6z"/>
		<path id="XMLID_17_" class="st2" d="M88,22.6c-2.6,0-4.7,2.2-4.7,5s2.1,5,4.7,5c1.8,0,3.5-1.2,4.2-2.8l-0.9-0.6
			c-0.6,1.4-1.8,2.3-3.2,2.3c-1.9,0-3.4-1.6-3.6-3.6H92l0,0h0.6c0-0.1,0-0.2,0-0.4C92.7,24.6,90.8,22.6,88,22.6z M88,23.6
			c1.9,0,3.3,1.3,3.5,3.3h-7C84.8,25.1,86.2,23.6,88,23.6z"/>
		<path id="XMLID_20_" class="st2" d="M106.6,22.8v1.4c-0.8-1.1-2-1.7-3.4-1.7c-2.6,0-4.7,2.2-4.7,5c0,2.7,2.1,5,4.7,5
			c1.4,0,2.6-0.6,3.4-1.7v1.4h1.1v-9.6H106.6z M103.2,31.5c-2,0-3.6-1.7-3.6-4s1.6-4,3.6-4s3.6,1.7,3.6,4
			C106.8,29.7,105.2,31.5,103.2,31.5z"/>
	</g>
</g>
<g>
</g>
</svg>
