<?xml version="1.0" encoding="utf-8"?>
<!-- Generator: Adobe Illustrator 22.0.1, SVG Export Plug-In . SVG Version: 6.00 Build 0)  -->
<svg version="1.1" id="Layer_1" xmlns="http://www.w3.org/2000/svg" xmlns:xlink="http://www.w3.org/1999/xlink" x="0px" y="0px"
	 viewBox="0 0 130 50" style="enable-background:new 0 0 130 50;" xml:space="preserve">
<style type="text/css">
	.st0{fill:url(#XMLID_2_);}
	.st1{fill:url(#XMLID_3_);}
	.st2{fill:#392125;}
</style>
<g>
	<g id="XMLID_4_">
		
			<linearGradient id="XMLID_2_" gradientUnits="userSpaceOnUse" x1="23.6995" y1="47.0757" x2="23.6995" y2="4.9784" gradientTransform="matrix(1 0 0 -1 0 51.0646)">
			<stop  offset="0.3" style="stop-color:#FF1B2D"/>
			<stop  offset="0.4381" style="stop-color:#FA1A2C"/>
			<stop  offset="0.5939" style="stop-color:#ED1528"/>
			<stop  offset="0.7581" style="stop-color:#D60E21"/>
			<stop  offset="0.9272" style="stop-color:#B70519"/>
			<stop  offset="1" style="stop-color:#A70014"/>
		</linearGradient>
		<path id="XMLID_5_" class="st0" d="M20.2,37.3c-2.4-2.8-3.9-7-4.1-11.7v-1c0.1-4.7,1.7-8.9,4.1-11.7c3.1-4.1,7.7-6.6,12.9-6.6
			c3.2,0,6.2,1,8.7,2.6C38,5.4,32.9,3.3,27.4,3.3c-0.1,0-0.1,0-0.1,0C15.3,3.3,5.6,13,5.6,25c0,11.7,9.2,21.2,20.7,21.7
			c0.3,0,0.7,0,1,0c5.6,0,10.6-2.1,14.5-5.5c-2.5,1.7-5.5,2.6-8.7,2.6C27.9,43.9,23.3,41.3,20.2,37.3z"/>
		<g id="XMLID_8_">
			
				<linearGradient id="XMLID_3_" gradientUnits="userSpaceOnUse" x1="34.6132" y1="44.5945" x2="34.6132" y2="7.3615" gradientTransform="matrix(1 0 0 -1 0 51.0646)">
				<stop  offset="0" style="stop-color:#9C0000"/>
				<stop  offset="0.7" style="stop-color:#FF4B4B"/>
			</linearGradient>
			<path id="XMLID_50_" class="st1" d="M20.2,12.7c2-2.4,4.6-3.8,7.4-3.8c6.3,0,11.5,7.2,11.5,16s-5.1,16-11.5,16
				c-2.8,0-5.4-1.4-7.4-3.8c3.1,4.1,7.7,6.6,12.9,6.6c3.2,0,6.2-1,8.7-2.6c4.4-4,7.2-9.8,7.2-16.2s-2.8-12.2-7.2-16.2
				C39.3,7,36.3,6,33.1,6C27.9,6.1,23.3,8.7,20.2,12.7z"/>
		</g>
	</g>
	<g id="XMLID_9_">
		<path id="XMLID_10_" class="st2" d="M82.7,21.5c-1.9,0-3.6,0.9-4.7,2.3v-2h-1.5v17.6H78v-6.3c1.1,1.5,2.8,2.3,4.7,2.3
			c3.6,0,6.5-3.1,6.5-7C89.1,24.7,86.3,21.5,82.7,21.5z M82.7,34c-2.8,0-5-2.4-5-5.5s2.2-5.5,5-5.5c2.8,0,5,2.4,5,5.5
			C87.6,31.5,85.4,34,82.7,34z"/>
		<path id="XMLID_13_" class="st2" d="M65.6,16.4c-5.1,0-9.3,4.4-9.3,9.7s4.2,9.7,9.3,9.7s9.3-4.4,9.3-9.7
			C74.9,20.8,70.8,16.4,65.6,16.4z M65.6,34.4c-4.3,0-7.8-3.7-7.8-8.3s3.5-8.3,7.8-8.3s7.8,3.7,7.8,8.3
			C73.5,30.7,69.9,34.4,65.6,34.4z"/>
		<path id="XMLID_16_" class="st2" d="M110.6,21.6c-0.5,0-1,0.2-1.5,0.4c-1,0.5-1.7,1.3-2.1,2.3c0,0,0,0.1-0.1,0.1l0,0
			c0-0.8,0-1.6,0-2.4l0,0l0,0h-1.5l0,0c0,4.4,0,8.8,0,13.2c0.5,0,1,0,1.5,0l0,0c0-0.1,0-0.1,0-0.1c0-2.4,0-4.5,0-6.8
			c0-1,0.2-1.8,0.5-2.5c0.3-0.7,0.7-1.4,1.3-1.8c0.7-0.6,1.5-0.9,2.4-0.7c0.2,0,0.3,0.1,0.4,0.1c0.1-0.4,0.3-1,0.4-1.5
			C111.5,21.7,111,21.6,110.6,21.6z"/>
		<path id="XMLID_17_" class="st2" d="M97,21.6c-3.6,0-6.5,3.1-6.5,7s2.9,7,6.5,7c2.5,0,4.8-1.6,5.8-3.9l-1.3-0.8
			c-0.8,1.9-2.5,3.2-4.5,3.2c-2.6,0-4.7-2.2-5-5h10.5l0,0h0.9c0-0.2,0-0.3,0-0.5C103.5,24.5,100.8,21.6,97,21.6z M97,23.1
			c2.7,0,4.6,1.8,4.9,4.6h-9.8C92.5,25.1,94.5,23.1,97,23.1z"/>
		<path id="XMLID_20_" class="st2" d="M122.8,21.9v2c-1.1-1.5-2.8-2.3-4.7-2.3c-3.6,0-6.5,3.1-6.5,7c0,3.8,2.9,7,6.5,7
			c1.9,0,3.6-0.9,4.7-2.3v2h1.5V21.9H122.8z M118.1,34c-2.8,0-5-2.4-5-5.5s2.2-5.5,5-5.5c2.8,0,5,2.4,5,5.5
			C123.1,31.5,120.8,34,118.1,34z"/>
	</g>
</g>
</svg>
