<?xml version="1.0" encoding="utf-8"?>
<!-- Generator: Adobe Illustrator 22.0.1, SVG Export Plug-In . SVG Version: 6.00 Build 0)  -->
<svg version="1.1" id="Layer_1" xmlns="http://www.w3.org/2000/svg" xmlns:xlink="http://www.w3.org/1999/xlink" x="0px" y="0px"
	 viewBox="0 0 130 50" style="enable-background:new 0 0 130 50;" xml:space="preserve">
<style type="text/css">
	.st0{fill:#1B488D;}
</style>
<path class="st0" d="M126,14.4c-1.7-9.5-30.3-12.5-64-6.6c-14.7,2.6-28,6.4-38.1,10.7c0.6-0.1,1.2-0.2,1.8-0.2
	c1.8,0,4.3,0.4,4.3,3.2v0.9h-3.1c0,0,0-0.5,0-0.8c0-0.7-0.4-1.1-1.2-1.1c-0.8,0-1.1,0.4-1.2,0.8c0,0.1,0,0.4,0,0.7
	c0.4,1.5,5.2,2.3,5.7,4.9c0.1,0.3,0.2,1,0,2.1c-0.3,2.1-2.2,2.9-4.5,2.9c-2.4,0-4.6-0.8-4.6-3.7l0-1h3.4v1.2c0,0.7,0.5,1.1,1.3,1.1
	c0.8,0,1.1-0.4,1.2-0.8c0.1-0.2,0.1-0.6,0-0.9c-0.6-1.6-5.1-2.4-5.7-5c-0.1-0.6-0.1-1.1,0-1.7c0.1-0.9,0.6-1.5,1.2-2
	C10.3,24.4,3.1,30.4,4,35.6c1.7,9.5,30.3,12.5,64,6.6c15-2.6,28.5-6.6,38.7-11c-0.5,0.1-1.1,0.2-1.7,0.2c-2.2,0-4.2-0.8-4.4-3.1
	c0-0.4,0-0.6,0-0.8l0-5.3c0-0.2,0-0.6,0.1-0.8c0.3-2.4,2.2-3.1,4.4-3.1c2.2,0,4.2,0.8,4.4,3.1c0,0.4,0,0.8,0,0.8v0.4h-3.2v-0.7
	c0,0,0-0.3,0-0.5c-0.1-0.3-0.3-0.9-1.3-0.9c-0.9,0-1.2,0.6-1.3,0.9c0,0.2-0.1,0.4-0.1,0.6v5.8c0,0.2,0,0.3,0,0.5
	c0.1,0.3,0.4,0.9,1.3,0.9c0.9,0,1.2-0.6,1.3-0.9c0-0.1,0-0.3,0-0.5V26H105v-1.8h4.5v3.4c0,0.2,0,0.4,0,0.8c-0.1,1.1-0.6,1.8-1.3,2.3
	C119.9,25.4,126.9,19.5,126,14.4z M39.2,31.2l-1.7-11.5h-0.1l-1.7,11.5h-3.4l2.3-12.6h5.6l2.3,12.6H39.2z M56,31.2l-0.1-11.4h-0.1
	l-2.1,11.4h-3.2l-2.1-11.4h-0.1l-0.1,11.4h-3.2l0.3-12.6h5.2l1.6,9.7h0.1l1.6-9.7h5.2l0.3,12.6H56z M71.2,28.8
	c-0.3,2.1-2.2,2.9-4.4,2.9c-2.4,0-4.5-0.8-4.5-3.6l0-1h3.4l0,1.2c0,0.7,0.5,1.1,1.3,1.1c0.8,0,1.1-0.4,1.2-0.8
	c0.1-0.2,0.1-0.6,0-0.9c-0.6-1.6-5.1-2.4-5.6-4.9c-0.1-0.6-0.1-1.1,0-1.7c0.3-2,2.1-2.8,4.4-2.8c1.8,0,4.2,0.4,4.2,3.1v0.9h-3.1
	c0,0,0-0.5,0-0.8c0-0.7-0.4-1.1-1.2-1.1c-0.8,0-1.1,0.4-1.1,0.8c0,0.1,0,0.4,0,0.7c0.4,1.5,5.1,2.2,5.6,4.9
	C71.3,27,71.4,27.7,71.2,28.8z M83.1,28.5c-0.2,2.4-2.1,3.1-4.4,3.1c-2.3,0-4.2-0.8-4.4-3.1c0-0.1,0-0.6,0-0.8v-9.1h3.2V28
	c0,0.2,0,0.3,0,0.5c0.1,0.3,0.3,0.9,1.2,0.9c0.9,0,1.1-0.6,1.2-0.9c0-0.1,0-0.3,0-0.5v-9.3h3.2v9.1C83.1,27.9,83.1,28.4,83.1,28.5z
	 M97.2,31.1h-4.5l-3.1-10.3h-0.1l0.2,10.3h-3.1V18.6h4.7l2.9,9.9h0.1l-0.2-9.9h3.1V31.1z"/>
</svg>
