<?xml version="1.0" encoding="utf-8"?>
<!-- Generator: Adobe Illustrator 22.0.1, SVG Export Plug-In . SVG Version: 6.00 Build 0)  -->
<svg version="1.1" id="Layer_1" xmlns="http://www.w3.org/2000/svg" xmlns:xlink="http://www.w3.org/1999/xlink" x="0px" y="0px"
	 viewBox="0 0 130 50" style="enable-background:new 0 0 130 50;" xml:space="preserve">
<style type="text/css">
	.st0{fill:#1B488D;}
	.st1{fill:#FFFFFF;}
</style>
<g id="g4" transform="matrix(7.1600872,0,0,7.1600872,9.4919108e-4,-0.00252957)">
	<g>
		<path class="st0" d="M14.1,4c0-0.1,0-0.1,0-0.1l0-0.8c0,0,0-0.1,0-0.1c0-0.3,0.3-0.4,0.6-0.4c0.3,0,0.6,0.1,0.6,0.4
			c0,0.1,0,0.1,0,0.1v0.1h-0.4V3.1c0,0,0,0,0-0.1c0,0,0-0.1-0.2-0.1c-0.1,0-0.2,0.1-0.2,0.1c0,0,0,0.1,0,0.1v0.8c0,0,0,0,0,0.1
			c0,0,0.1,0.1,0.2,0.1c0.1,0,0.2-0.1,0.2-0.1c0,0,0,0,0-0.1V3.6h-0.2V3.4h0.6v0.5c0,0,0,0.1,0,0.1c0,0.1-0.1,0.3-0.2,0.3
			c1.7-0.7,2.6-1.6,2.5-2.3c-0.2-1.3-4.3-1.8-9-0.9C6.6,1.4,4.7,2,3.3,2.6c0.1,0,0.2,0,0.2,0c0.3,0,0.6,0.1,0.6,0.4v0.1H3.7
			c0,0,0-0.1,0-0.1c0-0.1-0.1-0.2-0.2-0.2C3.4,2.8,3.4,2.9,3.4,3c0,0,0,0.1,0,0.1c0.1,0.2,0.7,0.3,0.8,0.7c0,0,0,0.1,0,0.3
			c0,0.3-0.3,0.4-0.6,0.4c-0.3,0-0.6-0.1-0.6-0.5l0-0.1h0.5V4c0,0.1,0.1,0.2,0.2,0.2c0.1,0,0.2-0.1,0.2-0.1c0,0,0-0.1,0-0.1v0
			C3.6,3.6,3,3.5,2.9,3.2c0-0.1,0-0.2,0-0.2c0-0.1,0.1-0.2,0.2-0.3C1.4,3.4,0.3,4.3,0.5,5c0.2,1.3,4.3,1.8,9,0.9
			c2.1-0.4,4-0.9,5.5-1.5c-0.1,0-0.2,0-0.2,0C14.4,4.4,14.1,4.3,14.1,4z M5.4,4.4L5.2,2.8h0L4.9,4.4H4.5l0.3-1.8h0.8l0.3,1.8H5.4z
			 M7.8,4.4l0-1.6h0L7.5,4.4H7L6.7,2.8h0l0,1.6H6.3l0-1.8H7L7.3,4h0l0.2-1.4h0.7l0,1.8H7.8z M10,4c0,0.3-0.3,0.4-0.6,0.4
			C9,4.4,8.7,4.3,8.7,3.9l0-0.1h0.5l0,0.2c0,0.1,0.1,0.2,0.2,0.2c0.1,0,0.2-0.1,0.2-0.1c0,0,0-0.1,0-0.1C9.4,3.6,8.8,3.5,8.7,3.2
			c0-0.1,0-0.2,0-0.2c0-0.3,0.3-0.4,0.6-0.4c0.3,0,0.6,0.1,0.6,0.4v0.1H9.5c0,0,0-0.1,0-0.1c0-0.1-0.1-0.2-0.2-0.2
			C9.2,2.8,9.2,2.9,9.2,3c0,0,0,0.1,0,0.1c0,0.2,0.7,0.3,0.8,0.7C10,3.8,10,3.9,10,4z M11.6,4c0,0.3-0.3,0.4-0.6,0.4
			c-0.3,0-0.6-0.1-0.6-0.4c0,0,0-0.1,0-0.1V2.6h0.5v1.3c0,0,0,0,0,0.1c0,0,0,0.1,0.2,0.1c0.1,0,0.2-0.1,0.2-0.1c0,0,0,0,0-0.1V2.6
			h0.5v1.3C11.6,3.9,11.6,4,11.6,4z M13.6,4.4H13l-0.4-1.4h0l0,1.4h-0.4V2.6h0.7L13.2,4h0l0-1.4h0.4V4.4z"/>
		<polygon class="st1" points="13.2,4 13.2,4 12.8,2.6 12.1,2.6 12.1,4.4 12.6,4.4 12.5,2.9 12.6,2.9 13,4.4 13.6,4.4 13.6,2.6 
			13.2,2.6 		"/>
		<polygon class="st1" points="4.8,2.6 4.5,4.4 4.9,4.4 5.2,2.8 5.2,2.8 5.4,4.4 5.9,4.4 5.6,2.6 		"/>
		<polygon class="st1" points="7.5,2.6 7.3,4 7.3,4 7,2.6 6.3,2.6 6.3,4.4 6.7,4.4 6.7,2.8 6.7,2.8 7,4.4 7.5,4.4 7.8,2.8 7.8,2.8 
			7.8,4.4 8.3,4.4 8.2,2.6 		"/>
		<path class="st1" d="M3.1,2.7c0.1,0,0.1-0.1,0.2-0.1C3.2,2.6,3.1,2.6,3.1,2.7z"/>
		<path class="st1" d="M2.9,2.9c0,0.1,0,0.2,0,0.2C3,3.5,3.6,3.6,3.7,3.9v0c0,0,0,0.1,0,0.1c0,0.1-0.1,0.1-0.2,0.1
			C3.4,4.1,3.4,4.1,3.4,4V3.8H2.9l0,0.1c0,0.4,0.3,0.5,0.6,0.5c0.3,0,0.6-0.1,0.6-0.4c0-0.2,0-0.3,0-0.3C4.1,3.4,3.4,3.3,3.4,3.1
			c0,0,0-0.1,0-0.1c0-0.1,0.1-0.1,0.2-0.1c0.1,0,0.2,0.1,0.2,0.2c0,0,0,0.1,0,0.1h0.4V3c0-0.4-0.3-0.4-0.6-0.4c-0.1,0-0.2,0-0.2,0
			c-0.1,0-0.1,0.1-0.2,0.1C3,2.7,2.9,2.8,2.9,2.9z"/>
		<path class="st1" d="M9.2,3.1C9.2,3,9.2,3,9.2,3.1c0-0.1,0-0.2,0.2-0.2c0.1,0,0.2,0.1,0.2,0.2c0,0,0,0.1,0,0.1h0.4V3
			c0-0.4-0.3-0.4-0.6-0.4C9,2.5,8.8,2.6,8.7,2.9c0,0.1,0,0.1,0,0.2c0.1,0.4,0.7,0.5,0.8,0.7c0,0,0,0.1,0,0.1c0,0.1-0.1,0.1-0.2,0.1
			C9.2,4.1,9.2,4.1,9.2,4l0-0.2H8.7l0,0.1c0,0.4,0.3,0.5,0.6,0.5C9.7,4.4,9.9,4.3,10,4c0-0.2,0-0.3,0-0.3C9.9,3.4,9.2,3.3,9.2,3.1z"
			/>
		<path class="st1" d="M11.6,2.6h-0.5v1.3c0,0,0,0,0,0.1c0,0,0,0.1-0.2,0.1c-0.1,0-0.2-0.1-0.2-0.1c0,0,0,0,0-0.1V2.6h-0.5v1.3
			c0,0,0,0.1,0,0.1c0,0.3,0.3,0.4,0.6,0.4c0.3,0,0.6-0.1,0.6-0.4c0,0,0-0.1,0-0.1V2.6z"/>
		<path class="st1" d="M15,4.4c0.1,0,0.1,0,0.2-0.1C15.1,4.3,15,4.4,15,4.4z"/>
		<polygon class="st1" points="14.7,4.1 14.7,4.1 14.7,4.1 		"/>
		<path class="st1" d="M15.4,4c0-0.1,0-0.1,0-0.1V3.4h-0.6v0.3h0.2v0.3c0,0,0,0,0,0.1c0,0-0.1,0.1-0.2,0.1h0h0l0,0
			c-0.1,0-0.2-0.1-0.2-0.1c0,0,0,0,0-0.1V3.1c0,0,0-0.1,0-0.1c0,0,0-0.1,0.2-0.1c0.1,0,0.2,0.1,0.2,0.1c0,0,0,0.1,0,0.1v0.1h0.4V3.1
			c0,0,0-0.1,0-0.1c0-0.3-0.3-0.4-0.6-0.4c-0.3,0-0.6,0.1-0.6,0.4c0,0,0,0.1,0,0.1l0,0.8c0,0,0,0.1,0,0.1c0,0.3,0.3,0.4,0.6,0.4
			c0.1,0,0.2,0,0.2,0c0.1,0,0.1-0.1,0.2-0.1C15.3,4.2,15.3,4.1,15.4,4z"/>
	</g>
</g>
</svg>
