<?xml version="1.0" encoding="utf-8"?>
<!-- Generator: Adobe Illustrator 22.0.1, SVG Export Plug-In . SVG Version: 6.00 Build 0)  -->
<svg version="1.1" id="Layer_1" xmlns="http://www.w3.org/2000/svg" xmlns:xlink="http://www.w3.org/1999/xlink" x="0px" y="0px"
	 viewBox="0 0 130 50" style="enable-background:new 0 0 130 50;" xml:space="preserve">
<style type="text/css">
	.st0{fill:#1B488D;}
	.st1{fill:#FFFFFF;}
</style>
<g id="g4_1_" transform="matrix(7.1600872,0,0,7.1600872,9.4919108e-4,-0.00252957)">
	<g id="g6">
		<g id="g8">
			<path id="path10" inkscape:connector-curvature="0" class="st0" d="M17.6,2c0.2,1.3-3.4,3.1-8.1,3.9C4.8,6.7,0.8,6.3,0.6,5
				C0.3,3.6,4,1.9,8.7,1.1C13.4,0.3,17.4,0.7,17.6,2z"/>
		</g>
		<g id="g12">
			<g id="g14">
				<polygon id="polygon16" class="st1" points="12.1,2.6 12.8,2.6 13.2,4 13.2,4 13.1,2.6 13.6,2.6 13.6,4.3 13,4.3 12.5,2.9 
					12.5,2.9 12.5,4.3 12.1,4.3 				"/>
				<polygon id="polygon18" class="st1" points="5,4.4 4.5,4.4 4.8,2.6 5.6,2.6 6,4.4 5.5,4.4 5.2,2.8 5.2,2.8 				"/>
				<polygon id="polygon20" class="st1" points="6.8,2.8 6.8,2.8 6.7,4.4 6.3,4.4 6.3,2.6 7.1,2.6 7.3,3.9 7.3,3.9 7.5,2.6 8.2,2.6 
					8.3,4.4 7.8,4.4 7.8,2.8 7.8,2.8 7.5,4.4 7.1,4.4 				"/>
				<path id="path22" inkscape:connector-curvature="0" class="st1" d="M3.8,3.9c0,0,0,0.1,0,0.1c0,0.1-0.1,0.1-0.2,0.1
					C3.5,4.1,3.4,4.1,3.4,4V3.8H3l0,0.1c0,0.4,0.3,0.5,0.6,0.5c0.3,0,0.6-0.1,0.6-0.4c0-0.2,0-0.3,0-0.3C4.1,3.4,3.5,3.3,3.4,3.1
					c0,0,0-0.1,0-0.1c0-0.1,0.1-0.1,0.2-0.1c0.1,0,0.2,0.1,0.2,0.2c0,0,0,0.1,0,0.1h0.4V3c0-0.4-0.3-0.4-0.6-0.4
					C3.3,2.5,3,2.6,3,2.9C3,3,3,3.1,3,3.2C3.1,3.5,3.7,3.6,3.8,3.9L3.8,3.9z"/>
				<path id="path24" inkscape:connector-curvature="0" class="st1" d="M9.5,3.9c0,0,0,0.1,0,0.1c0,0.1-0.1,0.1-0.2,0.1
					C9.2,4.1,9.2,4,9.2,4l0-0.2H8.7l0,0.1c0,0.4,0.3,0.5,0.6,0.5c0.3,0,0.6-0.1,0.6-0.4c0-0.2,0-0.2,0-0.3C9.9,3.4,9.2,3.3,9.2,3.1
					c0,0,0-0.1,0-0.1c0-0.1,0.1-0.1,0.2-0.1c0.1,0,0.2,0.1,0.2,0.2c0,0,0,0.1,0,0.1h0.4V3c0-0.4-0.3-0.4-0.6-0.4
					C9,2.6,8.8,2.7,8.7,2.9c0,0.1,0,0.1,0,0.2C8.8,3.5,9.4,3.6,9.5,3.9z"/>
				<path id="path26" inkscape:connector-curvature="0" class="st1" d="M11,4.1c0.1,0,0.2-0.1,0.2-0.1c0,0,0,0,0-0.1V2.6h0.4v1.3
					c0,0,0,0.1,0,0.1c0,0.3-0.3,0.4-0.6,0.4c-0.3,0-0.6-0.1-0.6-0.4c0,0,0-0.1,0-0.1V2.6h0.4v1.3c0,0,0,0,0,0.1
					C10.8,4,10.9,4.1,11,4.1z"/>
				<path id="path28" inkscape:connector-curvature="0" class="st1" d="M14.7,4.1c0.1,0,0.2-0.1,0.2-0.1c0,0,0,0,0-0.1V3.6h-0.2V3.4
					h0.6v0.5c0,0,0,0.1,0,0.1c0,0.3-0.3,0.4-0.6,0.4c-0.3,0-0.6-0.1-0.6-0.4c0-0.1,0-0.1,0-0.1l0-0.7c0,0,0-0.1,0-0.1
					c0-0.3,0.3-0.4,0.6-0.4c0.3,0,0.6,0.1,0.6,0.4c0,0.1,0,0.1,0,0.1v0.1h-0.4V3.1c0,0,0,0,0-0.1c0,0,0-0.1-0.2-0.1
					c-0.1,0-0.2,0.1-0.2,0.1c0,0,0,0.1,0,0.1v0.8c0,0,0,0,0,0.1C14.5,4,14.5,4.1,14.7,4.1L14.7,4.1z"/>
			</g>
		</g>
	</g>
</g>
</svg>
