<?xml version="1.0" encoding="utf-8"?>
<!-- Generator: Adobe Illustrator 22.0.1, SVG Export Plug-In . SVG Version: 6.00 Build 0)  -->
<svg version="1.1" id="Layer_1" xmlns="http://www.w3.org/2000/svg" xmlns:xlink="http://www.w3.org/1999/xlink" x="0px" y="0px"
	 viewBox="0 0 130 50" style="enable-background:new 0 0 130 50;" xml:space="preserve">
<style type="text/css">
	.st0{fill:#213B86;}
	.st1{fill:#DC0000;}
	.st2{fill:#3F5596;}
</style>
<g>
	<path class="st0" d="M92.8,9.7c-0.9,0.2-1,0.2-1,1.2c0,9.4,0,18.9,0,28.3c0,0.1,0,0.1,0,0.2c0,0.7,0.1,0.9,0.9,0.9
		c1.5,0.1,3.1,0,4.6,0c0.3,0,0.7,0,1-0.1c0.4-0.1,0.5-0.2,0.5-0.6c0-0.1,0-0.3,0-0.4c0-4.1,0-8.2,0-12.3c0-1.4,0-2.7,0-4.1
		c0-0.2-0.1-0.4,0-0.6c0-0.1,0-0.2,0.1-0.2s0.1,0.1,0.2,0.2c0.2,0.4,0.3,0.9,0.5,1.3c0.9,2.2,1.8,4.4,2.8,6.6c0.6,1.3,1.3,2.7,1.9,4
		c0.1,0.1,0.1,0.2,0.2,0.3c0.2,0.4,0.5,0.6,0.9,0.6s0.7,0.1,1.1,0.1c1.1,0,2.2,0,3.2,0c0.3,0,0.7-0.1,1-0.1c0.5,0,0.8-0.3,1-0.7
		c0.6-1.3,1.2-2.6,1.9-3.9c1-2.1,1.9-4.3,2.8-6.5c0.2-0.5,0.4-1,0.6-1.6c0-0.1,0.1-0.3,0.2-0.2c0.1,0,0.1,0.2,0.1,0.3
		c0,0.3,0,0.6,0,0.9c0,3,0,6,0,8.9c0,2.4,0,4.8,0,7.2c0,0.7,0.2,0.8,0.8,0.9c1.4,0.1,2.9,0,4.3,0.1c0.3,0,0.7-0.1,1-0.1
		c0.2,0,0.5-0.1,0.7-0.3c0,0,0.1-0.1,0.2-0.1c0-9.9,0-19.8,0-29.8c-0.2-0.4-0.7-0.5-1.1-0.5c-0.1,0-0.2,0-0.3-0.1
		c-0.2,0-0.4,0-0.6,0c-0.3,0.1-0.6,0.1-0.8,0c-0.7,0-1.5,0-2.2,0c-0.2,0.1-0.4,0-0.6,0.1l0,0c-0.1,0-0.2,0-0.3,0
		c-0.1,0-0.3,0.1-0.4-0.1c-0.1,0-0.2,0-0.2,0c-0.2,0.1-0.4,0.1-0.6,0.1c-0.6,0.1-1.1,0.4-1.4,1c-2.4,5.1-4.9,10.3-7.1,15.5
		c0,0.1-0.1,0.1-0.1,0.3c-0.2-0.6-0.5-1.1-0.7-1.7c-1.9-4.9-4.2-9.6-6.4-14.3c-0.2-0.5-0.6-0.6-1.1-0.7c-0.2,0-0.5,0-0.7-0.1
		c-0.1,0-0.2,0-0.2,0c-0.1,0.1-0.2,0.1-0.2,0c-0.1,0-0.2,0-0.4,0c-0.3,0.1-0.6,0.1-0.8,0c-1.1,0-2.2,0-3.3,0c-0.1,0.1-0.3,0-0.5,0.1
		l0,0c-0.1,0-0.2,0-0.3,0c-0.1,0-0.2,0.1-0.3-0.1c0,0,0,0-0.1,0C93,9.7,92.9,9.7,92.8,9.7z"/>
	<path class="st0" d="M74,9.6c-7.4,0-14.7,0-22.1,0l0,0l0,0c-0.3,0.2-0.4,0.4-0.4,0.8c-0.1,1.4-0.1,2.7,0,4.1
		c0.1,0.6,0.3,0.8,0.9,0.8c2.2,0,4.4,0,6.5,0c0.6,0,0.7,0,0.7,0.7c0,7.8,0,15.6,0,23.3c0,0.9,0.1,0.9,0.9,1c1.6,0.1,3.1,0,4.7,0
		c0.3,0,0.7,0,1.1-0.1c0.3-0.1,0.5-0.2,0.5-0.6c0-0.1,0-0.3,0-0.4c0-7.7,0-15.5,0-23.2c0-0.7,0-0.7,0.7-0.7c2.1,0,4.2,0,6.3,0
		c0.1,0,0.3,0,0.4,0c0.3,0,0.5-0.2,0.6-0.5c0-0.1,0.1-0.2,0.1-0.3C75,13.7,75,12.8,75,12c0-0.4,0-0.7,0-1.1c0-0.2,0-0.5-0.1-0.7
		c0-0.2-0.1-0.4-0.3-0.5c-0.1,0-0.1-0.1-0.1-0.2c0,0,0,0-0.1,0C74.2,9.6,74.1,9.6,74,9.6z"/>
	<path class="st1" d="M7.2,9.7c-0.7,0.3-1.1,0.8-1.1,1.6c0,1,0,2.1,0,3.1s0.7,1.7,1.7,1.7c0.1,0,0.2,0,0.3,0c11,0,22,0,33,0
		c0.3,0,0.7,0,1-0.2c0.6-0.3,0.9-0.8,0.9-1.4c0-1.1,0-2.2,0-3.3c0-0.7-0.4-1.2-1-1.5c-0.1-0.1-0.3-0.1-0.3-0.2
		c-11.4,0-22.8,0-34.2,0C7.4,9.7,7.3,9.7,7.2,9.7z"/>
	<path class="st1" d="M7.4,9.6C6.5,9.8,6,10.4,6,11.4s0,2,0,2.9c0,0.1,0,0.3,0,0.4c0.2,0.9,0.9,1.4,1.8,1.4c10.9,0,21.7,0,32.6,0
		c0.3,0,0.6,0,0.8,0c1,0,1.7-0.8,1.7-1.7c0-1.1,0-2.1,0-3.2c0-0.8-0.5-1.5-1.3-1.7c0,0-0.1,0-0.1-0.1c0,0.2,0.2,0.2,0.3,0.2
		c0.6,0.3,1,0.8,1,1.5c0,1.1,0,2.2,0,3.3c0,0.7-0.4,1.1-0.9,1.4c-0.3,0.2-0.6,0.2-1,0.2c-11,0-22,0-33,0c-0.1,0-0.2,0-0.3,0
		c-1,0-1.7-0.7-1.7-1.7s0-2.1,0-3.1c0-0.8,0.4-1.3,1.1-1.6C7.3,9.7,7.4,9.7,7.4,9.6C7.4,9.5,7.4,9.6,7.4,9.6z"/>
	<path class="st0" d="M79.5,9.7c-0.5,0.1-0.6,0.2-0.7,0.8c0,0.1,0,0.2,0,0.4c0,9.4,0,18.9,0,28.3c0,0.2,0,0.4,0,0.5
		c0.1,0.4,0.2,0.6,0.6,0.6s0.7,0.1,1.1,0.1c1.2,0,2.5,0,3.7,0c0.4,0,0.8,0,1.1-0.1c0.4,0,0.6-0.2,0.7-0.7c0-0.1,0-0.3,0-0.4
		c0-9.5,0-18.9,0-28.4c0-0.1,0-0.2,0-0.2c0-0.6-0.1-0.8-0.7-0.9c-0.1,0-0.2,0-0.3-0.2c-0.1,0-0.2,0-0.3,0c-0.1,0.1-0.2,0-0.4,0.1
		c-0.2,0-0.3,0-0.5,0c-0.3,0-0.6,0.1-0.9-0.1c-0.4,0-0.8,0-1.2,0c-0.3,0.1-0.6,0-0.9,0.1l0,0c-0.2,0-0.3,0-0.5,0l0,0
		c-0.1,0-0.2,0.1-0.4-0.1c-0.1,0-0.2,0-0.3,0C79.8,9.7,79.7,9.7,79.5,9.7z"/>
	<path class="st0" d="M51.9,9.6c0.1,0,0.2,0,0.3,0c7.2,0,14.5,0,21.7,0c0.1,0,0.2,0,0.3,0C66.8,9.5,59.4,9.5,51.9,9.6
		C51.9,9.5,51.9,9.6,51.9,9.6z"/>
	<path class="st2" d="M51.9,9.6L51.9,9.6C51.9,9.6,51.9,9.5,51.9,9.6C51.9,9.5,51.9,9.6,51.9,9.6z"/>
	<path class="st0" d="M74,9.6c-7.2,0-14.5,0-21.7,0c-0.1,0-0.2,0-0.3,0l0,0l0,0C59.3,9.6,66.7,9.6,74,9.6c0.2,0,0.3,0.1,0.3,0
		C74.2,9.6,74.1,9.6,74,9.6z"/>
	<path class="st2" d="M51.9,9.6L51.9,9.6L51.9,9.6L51.9,9.6z"/>
	<path class="st0" d="M124,10.1c0-0.1,0-0.3,0-0.4c0-0.1,0-0.2-0.2-0.2c-0.4,0-0.8,0-1.2,0c0.2,0.1,0.5,0,0.7,0.1
		C123.6,9.6,123.8,9.8,124,10.1z"/>
	<path class="st0" d="M122.8,9.6c0.4,0.1,0.9,0.1,1.1,0.5c-0.1-0.4-0.4-0.5-0.7-0.5c-0.2,0-0.5,0-0.7-0.1
		C122.6,9.6,122.7,9.6,122.8,9.6z"/>
	<path class="st0" d="M81,9.6c0.3,0,0.6,0,0.9,0C81.6,9.5,81.3,9.5,81,9.6C81,9.5,81,9.5,81,9.6L81,9.6z"/>
	<path class="st0" d="M81,9.6L81,9.6L81,9.6c0.3,0,0.6,0.1,0.9,0C81.6,9.6,81.3,9.5,81,9.6z"/>
	<path class="st0" d="M84,9.6L84,9.6C84,9.5,84,9.5,84,9.6c-0.3,0-0.6,0-0.9,0C83.4,9.6,83.7,9.5,84,9.6z"/>
	<path class="st0" d="M84,9.6L84,9.6L84,9.6c-0.3,0-0.6,0-0.9-0.1C83.4,9.7,83.7,9.6,84,9.6z"/>
	<path class="st0" d="M98.4,9.5c-0.3,0-0.6,0-0.8,0C97.8,9.6,98.1,9.6,98.4,9.5z"/>
	<path class="st0" d="M98.4,9.5c-0.3,0.1-0.6,0.1-0.8,0C97.8,9.6,98.1,9.6,98.4,9.5z"/>
	<path class="st0" d="M121.9,9.5c-0.3,0-0.6,0-0.8,0C121.3,9.6,121.6,9.6,121.9,9.5z"/>
	<path class="st0" d="M121.9,9.5c-0.3,0.1-0.6,0.1-0.8,0C121.3,9.6,121.6,9.6,121.9,9.5z"/>
	<path class="st0" d="M118.2,9.6c0.2,0,0.4,0,0.6,0C118.6,9.5,118.4,9.5,118.2,9.6C118.2,9.5,118.2,9.5,118.2,9.6L118.2,9.6z"/>
	<path class="st0" d="M118.2,9.6L118.2,9.6L118.2,9.6c0.2,0,0.4,0.1,0.6,0C118.6,9.6,118.4,9.5,118.2,9.6z"/>
	<path class="st0" d="M84,9.6c0.1,0,0.3,0,0.4,0l0,0l0,0C84.3,9.5,84.1,9.5,84,9.6C84,9.5,84,9.5,84,9.6z"/>
	<path class="st0" d="M84.4,9.6c-0.1,0-0.3,0-0.4,0l0,0l0,0C84.1,9.6,84.3,9.6,84.4,9.6S84.5,9.6,84.4,9.6L84.4,9.6z"/>
	<path class="st0" d="M84,9.6C84,9.5,84,9.5,84,9.6C84,9.5,84,9.5,84,9.6L84,9.6z"/>
	<path class="st0" d="M84,9.6L84,9.6L84,9.6L84,9.6L84,9.6z"/>
	<path class="st0" d="M93.8,9.6c0.2,0,0.3,0,0.5,0C94.1,9.5,93.9,9.5,93.8,9.6C93.8,9.5,93.8,9.5,93.8,9.6L93.8,9.6z"/>
	<path class="st0" d="M93.8,9.6L93.8,9.6L93.8,9.6c0.2,0,0.3,0.1,0.5,0C94.1,9.6,93.9,9.5,93.8,9.6z"/>
	<path class="st0" d="M80.5,9.6c0.1,0,0.3,0,0.4,0l0,0l0,0C80.8,9.5,80.7,9.5,80.5,9.6C80.5,9.5,80.5,9.5,80.5,9.6L80.5,9.6z"/>
	<path class="st0" d="M81,9.6c-0.1,0-0.3,0-0.4,0l0,0l0,0C80.7,9.6,80.8,9.6,81,9.6L81,9.6L81,9.6L81,9.6z"/>
	<path class="st0" d="M81,9.5L81,9.5C81,9.6,81,9.6,81,9.5L81,9.5L81,9.5z"/>
	<path class="st0" d="M81,9.6L81,9.6L81,9.6L81,9.6L81,9.6z"/>
	<path class="st0" d="M117.9,9.6C117.9,9.5,117.9,9.5,117.9,9.6c-0.1,0-0.2,0-0.4,0C117.6,9.6,117.8,9.5,117.9,9.6z"/>
	<path class="st0" d="M117.9,9.6L117.9,9.6c-0.1,0-0.2,0-0.4-0.1C117.6,9.6,117.8,9.6,117.9,9.6z"/>
	<path class="st0" d="M84.5,9.6c0.1,0,0.2,0,0.3,0C84.7,9.5,84.6,9.5,84.5,9.6C84.5,9.5,84.5,9.5,84.5,9.6z"/>
	<path class="st0" d="M84.5,9.6L84.5,9.6L84.5,9.6c0.1,0,0.2,0.1,0.3,0C84.7,9.6,84.6,9.5,84.5,9.6z"/>
	<path class="st0" d="M84.5,9.6C84.5,9.5,84.5,9.5,84.5,9.6C84.5,9.5,84.5,9.5,84.5,9.6L84.5,9.6z"/>
	<path class="st0" d="M84.5,9.6L84.5,9.6L84.5,9.6L84.5,9.6L84.5,9.6z"/>
	<path class="st0" d="M80.5,9.6C80.5,9.5,80.5,9.5,80.5,9.6C80.5,9.5,80.5,9.5,80.5,9.6c-0.1,0-0.2,0-0.3,0
		C80.3,9.6,80.4,9.5,80.5,9.6z"/>
	<path class="st0" d="M80.5,9.6L80.5,9.6L80.5,9.6L80.5,9.6c-0.1,0-0.2,0-0.4-0.1C80.3,9.6,80.4,9.6,80.5,9.6z"/>
	<path class="st0" d="M80.5,9.5L80.5,9.5C80.5,9.6,80.5,9.6,80.5,9.5L80.5,9.5L80.5,9.5z"/>
	<path class="st0" d="M80.5,9.6L80.5,9.6L80.5,9.6L80.5,9.6L80.5,9.6z"/>
	<path class="st0" d="M93.5,9.6C93.5,9.5,93.5,9.5,93.5,9.6c-0.1,0-0.2,0-0.4,0C93.2,9.6,93.4,9.5,93.5,9.6z"/>
	<path class="st0" d="M93.5,9.6L93.5,9.6c-0.1,0-0.2,0-0.3-0.1C93.2,9.6,93.4,9.6,93.5,9.6z"/>
	<path class="st0" d="M117.9,9.6c0.1,0,0.2,0,0.3,0l0,0l0,0C118.1,9.5,118,9.5,117.9,9.6C117.9,9.5,117.9,9.5,117.9,9.6z"/>
	<path class="st0" d="M118.2,9.6c-0.1,0-0.2,0-0.3,0l0,0l0,0C118,9.6,118.1,9.6,118.2,9.6L118.2,9.6L118.2,9.6L118.2,9.6z"/>
	<path class="st0" d="M118.2,9.5L118.2,9.5C118.2,9.6,118.2,9.6,118.2,9.5L118.2,9.5L118.2,9.5z"/>
	<path class="st0" d="M118.2,9.6L118.2,9.6L118.2,9.6L118.2,9.6L118.2,9.6z"/>
	<path class="st0" d="M117.9,9.6L117.9,9.6C117.9,9.5,117.9,9.5,117.9,9.6C117.9,9.5,117.9,9.5,117.9,9.6L117.9,9.6z"/>
	<path class="st0" d="M117.9,9.6L117.9,9.6L117.9,9.6L117.9,9.6L117.9,9.6L117.9,9.6z"/>
	<path class="st0" d="M93.5,9.6c0.1,0,0.2,0,0.3,0l0,0l0,0C93.7,9.5,93.6,9.5,93.5,9.6C93.5,9.5,93.5,9.5,93.5,9.6z"/>
	<path class="st0" d="M93.7,9.6c-0.1,0-0.2,0-0.3,0l0,0l0,0C93.6,9.6,93.7,9.6,93.7,9.6C93.8,9.6,93.8,9.6,93.7,9.6
		C93.8,9.6,93.8,9.6,93.7,9.6C93.8,9.6,93.7,9.6,93.7,9.6z"/>
	<path class="st0" d="M93.8,9.5C93.7,9.5,93.7,9.5,93.8,9.5C93.8,9.6,93.8,9.6,93.8,9.5L93.8,9.5L93.8,9.5z"/>
	<path class="st0" d="M93.7,9.6C93.7,9.6,93.8,9.6,93.7,9.6C93.8,9.6,93.8,9.6,93.7,9.6C93.8,9.6,93.8,9.6,93.7,9.6
		C93.8,9.6,93.8,9.6,93.7,9.6z"/>
	<path class="st0" d="M93.5,9.6L93.5,9.6C93.5,9.5,93.5,9.5,93.5,9.6C93.5,9.5,93.5,9.5,93.5,9.6L93.5,9.6z"/>
	<path class="st0" d="M93.5,9.6L93.5,9.6L93.5,9.6L93.5,9.6L93.5,9.6L93.5,9.6z"/>
	<path class="st0" d="M99,9.5c-0.1,0-0.2,0-0.2,0C98.8,9.6,98.9,9.6,99,9.5z"/>
	<path class="st0" d="M99,9.5c-0.1,0-0.2,0-0.2,0C98.8,9.6,98.9,9.6,99,9.5z"/>
	<path class="st1" d="M7.9,28.3c2.1,0,4.2,0,6.2,0c2.2,0,4.3,0,6.5,0c0.2,0,0.3-0.1,0.3-0.3c0-2.1,0-4.1,0-6.2c0-0.2,0-0.2-0.2-0.2
		c-4.3,0-8.5,0-12.8,0c-1.1,0-1.8,0.8-1.8,1.8s0,2,0,2.9C6,27.6,6.7,28.3,7.9,28.3z"/>
	<path class="st1" d="M41.2,21.7c-4.3,0-8.5,0-12.8,0c-0.2,0-0.3,0.1-0.3,0.3c0,2,0,4.1,0,6.1c0,0.2,0.1,0.3,0.3,0.3
		c2.1,0,4.3,0,6.4,0c2.1,0,4.2,0,6.3,0c1.1,0,1.8-0.7,1.8-1.8c0-1,0-2,0-3C43.1,22.4,42.3,21.7,41.2,21.7z"/>
	<path class="st1" d="M41.2,33.9c-2.1,0-4.1,0-6.2,0c-2.2,0-4.3,0-6.5,0c-0.2,0-0.3,0-0.3,0.3c0,2,0,4,0,6.1c0,0.2,0.1,0.3,0.3,0.3
		c4.2,0,8.5,0,12.7,0c1.1,0,1.8-0.7,1.9-1.9c0-0.9,0-1.9,0-2.8C43.1,34.6,42.3,33.9,41.2,33.9z"/>
	<path class="st1" d="M20.6,33.9c-2.2,0-4.3,0-6.5,0c-2.1,0-4.2,0-6.3,0c-1.1,0-1.8,0.7-1.8,1.8c0,1,0,1.9,0,2.9
		c0,1.1,0.7,1.9,1.8,1.9c4.3,0,8.5,0,12.8,0c0.2,0,0.3-0.1,0.3-0.3c0-2,0-4,0-6.1C20.9,33.9,20.8,33.9,20.6,33.9z"/>
</g>
<g>
</g>
</svg>
