<?xml version="1.0" encoding="utf-8"?>
<!-- Generator: Adobe Illustrator 22.0.1, SVG Export Plug-In . SVG Version: 6.00 Build 0)  -->
<svg version="1.1" id="Layer_1" xmlns="http://www.w3.org/2000/svg" xmlns:xlink="http://www.w3.org/1999/xlink" x="0px" y="0px"
	 viewBox="0 0 130 50" style="enable-background:new 0 0 130 50;" xml:space="preserve">
<style type="text/css">
	.st0{fill:#CEB5E0;}
	.st1{fill:#EBE0F2;}
	.st2{fill:#E6D9F0;}
	.st3{fill:#570097;}
</style>
<g id="rVV8Ll.tif">
	<g>
		<path class="st0" d="M21.2,22.5L21.2,22.5c-0.1-0.1-0.1-0.2-0.2-0.2c0-0.2,0-0.3,0-0.4c0,0,0-0.1,0.1-0.1c0,0,0-0.1,0.1-0.1
			c0,0,0.1,0,0.1,0.1C21.2,21.9,21.3,22.2,21.2,22.5z"/>
		<path class="st1" d="M21,22.2L21,22.2C21.1,22.3,21.1,22.3,21,22.2C21,22.3,21,22.3,21,22.2z"/>
		<path class="st2" d="M21.1,21.7C21.1,21.8,21.1,21.8,21.1,21.7C21,21.7,21,21.7,21.1,21.7L21.1,21.7z"/>
		<path class="st3" d="M54.7,7.9c-0.2-0.1-0.6-0.2-0.8-0.2h-0.1l0,0l0,0h-0.1l0,0c-0.1,0-0.1,0-0.2-0.1c-0.1,0-0.2,0-0.3,0
			c-0.1,0.1-0.2,0.1-0.2,0.1l0,0c-0.1,0-0.1,0-0.2,0l0,0h-0.1h-0.1c-0.1,0-0.1,0-0.2,0.1c-2.3,0.4-3.8,2.5-3.5,4.8s2.5,3.9,4.9,3.6
			c2.1-0.3,3.5-2.1,3.5-4.2C57.5,10.2,56.5,8.6,54.7,7.9z"/>
		<path class="st3" d="M72.7,31c0.1-0.1,0.1-0.2,0.2-0.2c1.6-3.2,3.3-6.5,4.9-9.7c0.2-0.2,0.3-0.6,0.4-0.8c0.1-0.2,0.2-0.4,0.3-0.6
			c0.8-1,1.9-1.3,3.1-0.9c0.2,0.1,0.2,0.1,0.4,0.2c0.6,0.3,1.2,0.6,1.8,0.9c1.3,0.7,1.6,2.3,1,3.4c-1.7,3-3.4,5.9-5.1,8.9
			c-1.2,2.1-2.4,4.2-3.6,6.3c-0.5,0.9-1.2,1.4-2.2,1.6c-1.1,0.2-2.1,0.2-3.1-0.1c-0.7-0.2-1.3-0.7-1.7-1.3
			c-2.9-5.1-5.8-10.2-8.7-15.4c-0.4-0.7-0.5-1.5-0.2-2.3c0.2-0.5,0.5-0.8,1-1.1c0.7-0.3,1.4-0.7,2.1-1.1c1.3-0.6,2.6-0.2,3.5,0.9
			c0.1,0.2,0.2,0.3,0.2,0.4c0.2,0.2,0.2,0.5,0.4,0.8c1.6,3.2,3.3,6.5,4.9,9.7C72.7,30.9,72.7,30.9,72.7,31z"/>
		<path class="st3" d="M21.2,22.5c0-0.2,0-0.6,0-0.8c0.2-0.8,0.6-1.4,1.4-1.8c0.6-0.2,1.2-0.6,1.8-0.9c0.4-0.2,0.8-0.3,1.3-0.3
			c0.7,0,1.3,0.2,1.9,0.7c0.3,0.2,0.5,0.6,0.7,1c0.8,1.6,1.6,3,2.4,4.6c1,2,2,3.9,3,5.8c0,0.1,0.1,0.2,0.2,0.2
			c0.1-0.1,0.1-0.2,0.2-0.2c1.5-3,3-6,4.6-9c0.2-0.5,0.5-1,0.7-1.5c0.2-0.3,0.4-0.7,0.7-1c0.8-0.7,1.7-0.8,2.8-0.5
			c0.2,0.1,0.3,0.2,0.5,0.2c0.6,0.2,1.2,0.6,1.7,0.8c1.5,0.7,1.6,2.4,1.1,3.5c-2.2,3.9-4.4,7.7-6.7,11.7c-0.7,1.2-1.4,2.4-2.1,3.5
			c-0.5,0.9-1.2,1.4-2.2,1.6s-2.1,0.2-3-0.1c-0.7-0.2-1.3-0.7-1.7-1.3c-2.9-5.1-5.8-10.2-8.7-15.3C21.4,23.1,21.2,22.8,21.2,22.5z"
			/>
		<path class="st3" d="M57,29.8c0,2.6,0,5.3,0,7.9c0,0.5-0.1,1-0.3,1.4c-0.4,0.9-1.2,1.4-2.2,1.5c-0.8,0-1.7,0-2.5,0
			c-1.2,0-2.1-0.8-2.4-2.1c-0.1-0.2-0.1-0.6-0.1-0.8c0-5.3,0-10.6,0-15.9c0-0.3,0.1-0.7,0.2-1.1c0.3-1.1,1.2-1.8,2.4-1.8
			c0.8,0,1.6,0,2.4,0c1.3,0,2.2,0.8,2.5,2.1c0.1,0.3,0.1,0.6,0.1,0.9C57,24.5,57,27.2,57,29.8z"/>
		<path class="st3" d="M108.9,29.2L108.9,29.2L108.9,29.2c0-0.2,0-0.2,0-0.2l0,0v-0.1l0,0l0,0c0-0.1,0-0.2,0-0.3
			c-0.2-1.2-0.5-2.4-1.1-3.5c-2.2-4.4-7.1-6.9-12.2-5.9c-2.6,0.5-4.8,1.7-6.5,3.8c-2.3,2.8-3.1,5.9-2.3,9.5c0.8,3.6,3,6.1,6.4,7.6
			c1.2,0.5,2.3,0.8,3.5,0.9c0.1,0,0.2,0,0.2,0l0,0l0,0c0.1,0,0.1,0,0.2,0l0,0c0.1,0,0.2,0,0.2,0c0.2,0,0.5,0,0.7,0l0,0
			c0.1,0,0.2,0,0.3,0c0.1,0,0.2,0,0.2,0l0,0c0.1,0,0.1,0,0.2,0l0,0c0.2,0,0.4,0,0.7-0.1c2.6-0.4,4.9-1.6,6.7-3.5
			c0.8-0.9,1.5-2,2-3.1c0.4-1.1,0.8-2.1,0.7-3.3l0,0c0-0.1,0-0.1,0-0.2c0-0.1,0-0.2,0-0.2l0,0l0,0c0-0.1,0-0.1,0-0.2s0-0.2,0.1-0.2
			c0-0.2,0-0.4,0-0.6C108.9,29.4,108.9,29.3,108.9,29.2z M97.7,34.2c-2.4,0-4.4-2-4.4-4.4c0-2.5,2-4.4,4.4-4.4c2.4,0,4.4,2,4.4,4.4
			C102.1,32.2,100.2,34.2,97.7,34.2z"/>
	</g>
</g>
<g>
</g>
</svg>
