<?xml version="1.0" encoding="utf-8"?>
<!-- Generator: Adobe Illustrator 22.0.1, SVG Export Plug-In . SVG Version: 6.00 Build 0)  -->
<svg version="1.1" id="Layer_1" xmlns="http://www.w3.org/2000/svg" xmlns:xlink="http://www.w3.org/1999/xlink" x="0px" y="0px"
	 viewBox="0 0 130 50" style="enable-background:new 0 0 130 50;" xml:space="preserve">
<style type="text/css">
	.st0{fill:#CEB5E0;}
	.st1{fill:#EBE0F2;}
	.st2{fill:#E6D9F0;}
	.st3{fill:#570097;}
</style>
<g id="rVV8Ll.tif">
	<g>
		<path class="st0" d="M11.7,21.9c0,0-0.1-0.1-0.1-0.1c0,0,0-0.1-0.1-0.1c0-0.2,0-0.4,0-0.5c0,0,0-0.1,0.1-0.1c0,0,0-0.1,0.1-0.1
			c0,0,0.1,0,0.1,0.1C11.7,21.2,11.8,21.6,11.7,21.9z"/>
		<path class="st1" d="M11.5,21.6c0,0,0.1,0.1,0.1,0.1c0,0,0,0-0.1,0C11.5,21.7,11.5,21.7,11.5,21.6z"/>
		<path class="st2" d="M11.6,21c0,0.1,0,0.1-0.1,0.1C11.5,21,11.5,21,11.6,21C11.6,21,11.6,21,11.6,21z"/>
		<path class="st3" d="M52.5,4.2c-0.3-0.1-0.7-0.2-1-0.3c0,0-0.1,0-0.1,0c0,0,0,0,0,0c0,0,0,0,0,0c0,0-0.1,0-0.1,0c0,0,0,0,0,0
			c-0.1,0-0.1,0-0.2-0.1c-0.1,0-0.3,0-0.4,0c-0.1,0.1-0.2,0.1-0.3,0.1c0,0,0,0,0,0c-0.1,0-0.1,0-0.2,0c0,0,0,0,0,0c0,0-0.1,0-0.1,0
			c0,0-0.1,0-0.1,0c-0.1,0-0.1,0-0.2,0.1C47,4.5,45.2,7,45.6,9.8c0.4,2.8,3,4.8,6,4.4c2.5-0.4,4.3-2.5,4.3-5.1
			C55.9,6.9,54.6,5,52.5,4.2z"/>
		<path class="st3" d="M74.4,32.3c0.1-0.1,0.1-0.2,0.2-0.3c2-3.9,4-7.9,6-11.8c0.2-0.3,0.4-0.7,0.5-1c0.1-0.2,0.3-0.5,0.4-0.7
			c1-1.2,2.3-1.6,3.8-1.1c0.2,0.1,0.3,0.1,0.5,0.2c0.7,0.4,1.4,0.7,2.2,1.1c1.6,0.8,2,2.8,1.2,4.1c-2.1,3.6-4.1,7.2-6.2,10.8
			c-1.5,2.6-2.9,5.1-4.4,7.7c-0.6,1.1-1.5,1.7-2.7,2c-1.3,0.2-2.5,0.2-3.8-0.1c-0.9-0.2-1.6-0.8-2.1-1.6
			c-3.5-6.2-7.1-12.4-10.6-18.7c-0.5-0.9-0.6-1.8-0.2-2.8c0.2-0.6,0.6-1,1.2-1.3c0.8-0.4,1.7-0.9,2.6-1.3c1.6-0.7,3.2-0.3,4.2,1.1
			c0.1,0.2,0.2,0.4,0.3,0.5c0.2,0.3,0.3,0.6,0.5,1c2,3.9,4,7.9,6,11.8C74.3,32.1,74.3,32.2,74.4,32.3z"/>
		<path class="st3" d="M11.7,21.9c0-0.3,0-0.7,0-1c0.2-1,0.7-1.7,1.7-2.2c0.7-0.3,1.4-0.7,2.2-1.1c0.5-0.2,1-0.4,1.6-0.4
			c0.9,0,1.6,0.3,2.3,0.9c0.4,0.3,0.6,0.7,0.9,1.2c1,1.9,1.9,3.7,2.9,5.6c1.2,2.4,2.4,4.8,3.6,7.1c0,0.1,0.1,0.2,0.2,0.3
			c0.1-0.1,0.1-0.2,0.2-0.3c1.8-3.7,3.7-7.3,5.6-11c0.3-0.6,0.6-1.2,0.9-1.8c0.2-0.4,0.5-0.8,0.9-1.2c1-0.9,2.1-1,3.4-0.6
			c0.2,0.1,0.4,0.2,0.6,0.2c0.7,0.3,1.4,0.7,2.1,1c1.8,0.8,2,2.9,1.3,4.2c-2.7,4.7-5.4,9.4-8.1,14.2c-0.8,1.4-1.7,2.9-2.5,4.3
			c-0.6,1.1-1.5,1.7-2.7,1.9c-1.2,0.2-2.5,0.2-3.7-0.1c-0.9-0.2-1.6-0.8-2.1-1.6c-3.5-6.2-7.1-12.4-10.6-18.6
			C11.9,22.6,11.7,22.3,11.7,21.9z"/>
		<path class="st3" d="M55.3,30.8c0,3.2,0,6.4,0,9.6c0,0.6-0.1,1.2-0.4,1.7c-0.5,1.1-1.4,1.7-2.7,1.8c-1,0-2.1,0-3.1,0
			c-1.5,0-2.6-1-2.9-2.5c-0.1-0.3-0.1-0.7-0.1-1c0-6.4,0-12.9,0-19.3c0-0.4,0.1-0.9,0.2-1.3c0.4-1.3,1.5-2.2,2.9-2.2
			c1,0,1.9,0,2.9,0c1.6,0,2.7,1,3,2.5c0.1,0.4,0.1,0.7,0.1,1.1C55.3,24.4,55.3,27.6,55.3,30.8z"/>
		<path class="st3" d="M118.4,30.1C118.4,30.1,118.4,30.1,118.4,30.1c0,0,0-0.1,0-0.1c0-0.1,0-0.2,0-0.2c0,0,0,0,0,0
			c0,0,0-0.1,0-0.1c0,0,0,0,0,0c0,0,0,0,0,0c0-0.1,0-0.3,0-0.4c-0.2-1.5-0.6-2.9-1.3-4.3c-2.7-5.3-8.6-8.4-14.8-7.2
			c-3.2,0.6-5.9,2.1-7.9,4.6c-2.8,3.4-3.8,7.2-2.8,11.5c1,4.4,3.7,7.4,7.8,9.3c1.4,0.6,2.8,1,4.3,1.1c0.1,0,0.2,0,0.3,0c0,0,0,0,0,0
			c0,0,0,0,0,0c0.1,0,0.1,0,0.2,0c0,0,0,0,0,0c0.1,0,0.2,0,0.3,0c0.3,0,0.6,0,0.9,0c0,0,0,0,0,0c0.1,0,0.2,0,0.4,0
			c0.1,0,0.2,0,0.2,0c0,0,0,0,0,0c0.1,0,0.1,0,0.2,0c0,0,0,0,0,0c0.3,0,0.5,0,0.8-0.1c3.2-0.5,6-1.9,8.2-4.3c1-1.1,1.8-2.4,2.4-3.8
			c0.5-1.3,1-2.6,0.9-4c0,0,0,0,0,0c0-0.1,0-0.1,0-0.2c0-0.1,0-0.2,0-0.2c0,0,0,0,0,0c0,0,0,0,0,0c0-0.1,0-0.1,0-0.2
			c0-0.1,0-0.2,0.1-0.2c0-0.2,0-0.5,0-0.7C118.4,30.3,118.4,30.2,118.4,30.1z M104.8,36.1c-2.9,0-5.3-2.4-5.3-5.3
			c0-3,2.4-5.4,5.4-5.3c2.9,0,5.3,2.4,5.3,5.4C110.1,33.7,107.8,36.1,104.8,36.1z"/>
	</g>
</g>
</svg>
